<?xml version="1.0" encoding="utf-8"?>

<svg version="1.1" xmlns="http://www.w3.org/2000/svg" xmlns:xlink="http://www.w3.org/1999/xlink" x="0px" y="0px" width="719.81px" height="719.81px" viewBox="0 0 719.81 719.81" style="enable-background:new 0 0 719.81 719.81;" xml:space="preserve">

<g id="背景">
</g>
<g id="ガイド線" class="st0">
</g>
<g id="文字">
</g>
<g id="影">
</g>
<g id="レイヤー_6">
&#x9;<g id="レイヤー_8">
&#x9;</g>
&#x9;<g>
&#x9;&#x9;<path class="st115" d="M515.24,389.72c15.43,60.16,17.73,121.81,6.79,182.4c-3.09,17.11-6.7,35.86,7.29,50.34&#xA;&#x9;&#x9;&#x9;c6.29,6.51,16.25,12.59,15.22,20.3c-1.58,11.78-25.21,14.64-42.93,14.26c-19.05-0.41-40.92-1.79-51.94-12.16&#xA;&#x9;&#x9;&#x9;c-9.57-9.02-6.94-21.23-4.37-32.14c16.8-71.37,12.89-144.89-11.47-215.29C459.19,397.58,484.56,393.74,515.24,389.72z"></path>
&#x9;&#x9;<g>
&#x9;&#x9;&#x9;<path class="st116" d="M196.21,440.56c23.32-8.1,49.75-13.37,72.44-22.69c22.69-9.32,44.73-24.13,50.52-45.11&#xA;&#x9;&#x9;&#x9;&#x9;c69.39-4.35,123.2,0.96,176.44-1.84c8.94,43.46,6.07,90.94-22.27,127.78c-19.1,24.83-48.14,42.8-78.3,57.5&#xA;&#x9;&#x9;&#x9;&#x9;c-54.76,26.68-119.42,44.5-180.68,34.15c-2.01,13.64-1.99,27.55,9.11,38.81c6.29,6.38,16.25,12.35,15.22,19.91&#xA;&#x9;&#x9;&#x9;&#x9;c-1.58,11.55-25.21,14.36-42.93,13.98c-19.05-0.4-40.92-1.75-51.94-11.93c-9.57-8.84-6.94-20.82-4.37-31.53&#xA;&#x9;&#x9;&#x9;&#x9;c5.47-22.8,8.73-45.82,9.82-68.88c-6.66-11.32-11.97-24.14-12.21-32.6C136.12,484.5,159.97,453.15,196.21,440.56z"></path>
&#x9;&#x9;</g>
&#x9;&#x9;<g>
&#x9;&#x9;&#x9;<path class="st117" d="M495.61,370.93c-25.4,1.33-50.94,0.82-78.23,0.4c-0.82,2.35-1.71,4.67-2.68,6.95&#xA;&#x9;&#x9;&#x9;&#x9;c-4.73,11.21-11.09,21.71-18.64,31.24c-8.01,10.1-17.48,18.63-27.69,26.45c-22.21,17-46.96,30.23-70.53,45.18&#xA;&#x9;&#x9;&#x9;&#x9;c-11.62,7.36-23.1,15.1-33.51,24.11c-9.97,8.63-19.09,18.33-26.78,29.06c-11.85,16.55-20.34,36.09-21.06,56.37&#xA;&#x9;&#x9;&#x9;&#x9;c60.63,9.59,124.43-8.1,178.56-34.48c30.16-14.7,59.2-32.67,78.3-57.5C501.68,461.87,504.55,414.39,495.61,370.93z"></path>
&#x9;&#x9;</g>
&#x9;&#x9;<path class="st115" d="M313.66,396.1c-15.43,60.16-17.73,121.81-6.79,182.4c3.09,17.11,6.7,35.86-7.29,50.34&#xA;&#x9;&#x9;&#x9;c-6.29,6.51-16.25,12.59-15.22,20.3c1.58,11.78,25.21,14.64,42.93,14.26c19.05-0.41,40.92-1.79,51.94-12.16&#xA;&#x9;&#x9;&#x9;c9.57-9.02,6.94-21.23,4.37-32.14c-16.8-71.37-12.89-144.89,11.47-215.29C369.71,403.96,344.34,400.12,313.66,396.1z"></path>
&#x9;&#x9;<g>
&#x9;&#x9;&#x9;<path class="st115" d="M179.02,304.38c-9.3-5.36-14.93-12.33-14.93-19.96c0-16.93,27.71-30.66,61.89-30.66c0.08,0,0.17,0,0.25,0&#xA;&#x9;&#x9;&#x9;&#x9;c1.24-5.4,2.76-10.72,4.55-15.92c-19.53-11.59-32.63-32.88-32.63-57.23c0-36.74,29.78-66.52,66.52-66.52&#xA;&#x9;&#x9;&#x9;&#x9;c21.36,0,40.36,10.08,52.53,25.74c28.37-14.97,61.38-23.56,96.62-23.56c25.04,0,48.95,4.34,70.88,12.21&#xA;&#x9;&#x9;&#x9;&#x9;c12.06-16.94,31.84-28,54.21-28c36.74,0,66.52,29.78,66.52,66.52c0,18.19-7.31,34.68-19.15,46.69c6.92,12.86,12.13,26.6,15.35,41&#xA;&#x9;&#x9;&#x9;&#x9;c26.86,3.35,46.74,15.39,46.74,29.73c0,7.62-5.63,14.59-14.93,19.96c9.3,5.36,14.93,12.33,14.93,19.96&#xA;&#x9;&#x9;&#x9;&#x9;c0,16.93-27.71,30.66-61.89,30.66l0,0c-32.28,48.17-101.96,69.16-178.94,69.16c-77.31,0-140.58-21.17-169.06-69.79&#xA;&#x9;&#x9;&#x9;&#x9;c-4.05,0.41-8.23,0.63-12.53,0.63c-34.18,0-61.89-13.73-61.89-30.66C164.09,316.71,169.72,309.74,179.02,304.38z"></path>
&#x9;&#x9;</g>
&#x9;&#x9;<g>
&#x9;&#x9;&#x9;<path class="st117" d="M549.67,360.93c-18.13-15.71-39.66-27.6-62.74-34.22c-11.58-3.32-23.63-5.42-35.69-5.73&#xA;&#x9;&#x9;&#x9;&#x9;c-12.16-0.31-24.34,0.87-36.23,3.41c-23.82,5.09-46.42,15.61-65.8,30.33c-18.51,14.06-34.02,32.03-44.82,52.62&#xA;&#x9;&#x9;&#x9;&#x9;c29.1,11.46,64.36,16.8,103.16,16.8c63.59,0,122.19-14.34,158.84-46.49C561.23,371.7,555.64,366.1,549.67,360.93z"></path>
&#x9;&#x9;</g>
&#x9;&#x9;<path class="st15" d="M297.8,148.62c-28.74,14.98-50.2,43.25-58.18,74.15c-15.93-10.37-24.79-30.61-21.6-49.35&#xA;&#x9;&#x9;&#x9;s18.23-34.92,36.69-39.44C273.17,129.44,294,136.82,297.8,148.62z"></path>
&#x9;&#x9;<path class="st15" d="M502.22,137.55c30.61,10.66,55.94,35.52,68.32,64.93c14.26-12.57,20.09-33.88,14.22-51.96&#xA;&#x9;&#x9;&#x9;c-5.87-18.08-23.1-31.9-42.03-33.71C523.81,115.01,504.28,125.32,502.22,137.55z"></path>
&#x9;&#x9;<path class="st116" d="M173.69,480.84c-16.74-6.61-32.12-18.09-40.34-34.1s-8.15-36.8,2.8-51.09&#xA;&#x9;&#x9;&#x9;c6.04-7.88,15.26-14.14,17.14-23.88c1.85-9.58-4.83-19.43-13.78-23.34c-8.94-3.91-19.42-2.77-28.53,0.73&#xA;&#x9;&#x9;&#x9;c-23.69,9.11-39.74,34.28-39.56,59.67c0.18,25.38,15.73,49.68,37.96,61.93S159.57,483.44,173.69,480.84z"></path>
&#x9;&#x9;<path class="st15" d="M129.22,435.8c-0.94-3.68-1.5-7.46-1.64-11.24c-1.28-0.2-2.55-0.39-3.83-0.58&#xA;&#x9;&#x9;&#x9;c-9.9-1.41-19.88-2.26-29.87-2.63c-7.04-0.26-14.08-0.26-21.12-0.05c1.01,4.98,2.6,9.84,4.68,14.49H129.22z"></path>
&#x9;&#x9;<path class="st15" d="M88.84,381c10.6,2.99,21.05,6.49,31.31,10.5c4.91,1.92,9.78,3.96,14.6,6.11c0.45-0.67,0.91-1.32,1.4-1.96&#xA;&#x9;&#x9;&#x9;c1.56-2.04,3.34-3.98,5.15-5.89c-0.25-0.17-0.5-0.34-0.76-0.51c-8.72-5.66-17.98-10.5-27.59-14.45&#xA;&#x9;&#x9;&#x9;c-8.4-3.45-17.06-6.23-25.88-8.35c-3.1,3.66-5.8,7.68-8.05,11.94C82.3,379.22,85.58,380.08,88.84,381z"></path>
&#x9;&#x9;<circle class="st15" cx="371.46" cy="334.64" r="10.63"></circle>
&#x9;&#x9;<circle class="st15" cx="500.12" cy="324.02" r="10.63"></circle>
&#x9;&#x9;<path class="st15" d="M444.97,349.89l13.63-12.74c3.06-2.86,0.66-7.96-3.49-7.43l-30.03,3.83c-4.15,0.53-5.19,6.07-1.52,8.07&#xA;&#x9;&#x9;&#x9;l16.39,8.91C441.6,351.41,443.61,351.15,444.97,349.89z"></path>
&#x9;&#x9;<g>
&#x9;&#x9;&#x9;<circle class="st15" cx="176.13" cy="491.63" r="4.36"></circle>
&#x9;&#x9;&#x9;<circle class="st15" cx="194.19" cy="477.33" r="10.14"></circle>
&#x9;&#x9;&#x9;<circle class="st15" cx="224.15" cy="461.59" r="15.73"></circle>
&#x9;&#x9;</g>
&#x9;&#x9;<g>
&#x9;&#x9;&#x9;<circle class="st15" cx="273.99" cy="215.78" r="4.25"></circle>
&#x9;&#x9;&#x9;<circle class="st15" cx="288.1" cy="198.31" r="9.88"></circle>
&#x9;&#x9;&#x9;<circle class="st15" cx="313.23" cy="176.93" r="15.34"></circle>
&#x9;&#x9;</g>
&#x9;&#x9;<g>
&#x9;&#x9;&#x9;<circle class="st15" cx="545.05" cy="207.18" r="4.25"></circle>
&#x9;&#x9;&#x9;<circle class="st15" cx="530.94" cy="189.71" r="9.88"></circle>
&#x9;&#x9;&#x9;<circle class="st15" cx="505.82" cy="168.32" r="15.34"></circle>
&#x9;&#x9;</g>
&#x9;&#x9;<g>
&#x9;&#x9;&#x9;<circle class="st15" cx="287.6" cy="377.69" r="2.76"></circle>
&#x9;&#x9;&#x9;<circle class="st15" cx="277.62" cy="367.1" r="6.4"></circle>
&#x9;&#x9;&#x9;<circle class="st15" cx="266.1" cy="349.1" r="9.94"></circle>
&#x9;&#x9;</g>
&#x9;&#x9;<g>
&#x9;&#x9;&#x9;<circle class="st15" cx="552.06" cy="363.86" r="2.76"></circle>
&#x9;&#x9;&#x9;<circle class="st15" cx="562.04" cy="353.27" r="6.4"></circle>
&#x9;&#x9;&#x9;<circle class="st15" cx="573.56" cy="335.26" r="9.94"></circle>
&#x9;&#x9;</g>
&#x9;&#x9;<g>
&#x9;&#x9;&#x9;<circle class="st15" cx="356.21" cy="579.09" r="2.8"></circle>
&#x9;&#x9;&#x9;<circle class="st15" cx="359.7" cy="593.43" r="6.5"></circle>
&#x9;&#x9;&#x9;<circle class="st15" cx="360.83" cy="615.09" r="10.08"></circle>
&#x9;&#x9;</g>
&#x9;&#x9;<g>
&#x9;&#x9;&#x9;<circle class="st15" cx="472.25" cy="579.09" r="2.8"></circle>
&#x9;&#x9;&#x9;<circle class="st15" cx="468.76" cy="593.43" r="6.5"></circle>
&#x9;&#x9;&#x9;<circle class="st15" cx="467.63" cy="615.09" r="10.08"></circle>
&#x9;&#x9;</g>
&#x9;&#x9;<g>
&#x9;&#x9;&#x9;<circle class="st15" cx="200.36" cy="571.68" r="2.8"></circle>
&#x9;&#x9;&#x9;<circle class="st15" cx="196.87" cy="586.02" r="6.5"></circle>
&#x9;&#x9;&#x9;<circle class="st15" cx="195.74" cy="607.69" r="10.08"></circle>
&#x9;&#x9;</g>
&#x9;</g>
</g>
<g id="レイヤー_9">
</g>
<g id="レイヤー_7">
</g>
</svg>