<?xml version="1.0" encoding="utf-8"?>

<svg version="1.1" xmlns="http://www.w3.org/2000/svg" xmlns:xlink="http://www.w3.org/1999/xlink" x="0px" y="0px" width="719.81px" height="719.81px" viewBox="0 0 719.81 719.81" style="enable-background:new 0 0 719.81 719.81;" xml:space="preserve">

<g id="背景">
</g>
<g id="ガイド線" class="st0">
</g>
<g id="文字">
</g>
<g id="影">
</g>
<g id="レイヤー_6">
&#x9;<g id="レイヤー_8">
&#x9;</g>
&#x9;<g>
&#x9;&#x9;<path class="st8" d="M249.13,344.93c-57.07,71.26-92.72,167.04-97.3,262.55c-0.32,6.76,3.94,12.12,9.54,11.77L261.39,613&#xA;&#x9;&#x9;&#x9;c5.86-0.37,10.52-6.8,10.03-13.79c-5.57-78.1-7.57-157.43-5.65-246.98C265.99,341.64,255.47,337.01,249.13,344.93z"></path>
&#x9;&#x9;<path class="st9" d="M250.84,425.32c-11.36-1.53-22.82-2.33-34.29-2.39c-5.66-0.03-11.31,0.12-16.96,0.45&#xA;&#x9;&#x9;&#x9;c0.74-1.51,1.49-3.02,2.25-4.52c10.01-1.03,20.11-1.26,30.15-0.65c11.16,0.68,22.24,2.42,33.08,5.16c0,1.42,0.01,2.83,0.02,4.25&#xA;&#x9;&#x9;&#x9;C260.36,426.73,255.61,425.96,250.84,425.32z"></path>
&#x9;&#x9;<path class="st9" d="M248.09,472.46c-13.87-3.08-28.1-4.52-42.3-4.32c-8.76,0.12-17.51,0.88-26.16,2.25&#xA;&#x9;&#x9;&#x9;c0.47-1.3,0.93-2.61,1.42-3.91c1.74-0.26,3.48-0.52,5.23-0.73c14.91-1.83,30.04-1.87,44.96-0.14c11.67,1.36,23.21,3.83,34.41,7.38&#xA;&#x9;&#x9;&#x9;c0.03,1.46,0.07,2.9,0.1,4.35C259.95,475.42,254.05,473.78,248.09,472.46z"></path>
&#x9;&#x9;<path class="st10" d="M247.65,534.12c-8.32-2.64-16.83-4.7-25.45-6.16c-8.62-1.46-17.34-2.34-26.08-2.6&#xA;&#x9;&#x9;&#x9;c-8.72-0.26-17.46,0.08-26.13,1.04c-2.37,0.26-4.72,0.58-7.08,0.93c0.21-0.93,0.41-1.87,0.62-2.81c0.51-0.08,1.02-0.18,1.53-0.25&#xA;&#x9;&#x9;&#x9;c8.86-1.32,17.81-2.07,26.77-2.28c8.94-0.21,17.89,0.13,26.78,1.02c8.99,0.9,17.92,2.35,26.73,4.37&#xA;&#x9;&#x9;&#x9;c7.54,1.72,14.97,3.88,22.28,6.4c0.12,2.74,0.26,5.46,0.39,8.2C261.4,538.97,254.59,536.33,247.65,534.12z"></path>
&#x9;</g>
&#x9;<path class="st11" d="M490.22,355.16c30.22,99.29,27.51,207.42-7.65,305.23c-2.32,6.44-8.89,10.7-16.03,10.09&#xA;&#x9;&#x9;c-22.81-1.95-48.04-0.86-69,0.14c-7.65,0.36-14.44-4.61-16.04-11.72c-2.75-12.27-4.85-23.27-4.71-36.32&#xA;&#x9;&#x9;c0.09-8.24-6.7-15.02-15.36-15.18c-6.23-0.11-11.44-0.4-17.4-0.48c-8.48-0.12-15.43,6.16-15.87,14.2&#xA;&#x9;&#x9;c-0.72,13.06-3.63,28.2-8.14,43.3c-1.69,5.68-6.8,9.86-12.95,10.67c-22.86,3.01-45.79,2.84-67.95-0.98&#xA;&#x9;&#x9;c-5.21-0.9-9.55-4.24-11.66-8.85C209,624.97,202.5,579.73,200.7,535.48c-1.9-46.6,0.95-93.46-1.35-134.69&#xA;&#x9;&#x9;c-0.03-0.6-0.11-1.18-0.22-1.77c-2.54-13.35-2.48-27.15,0.12-40.49c1.45-7.41,8.65-12.52,16.56-11.96&#xA;&#x9;&#x9;c43.18,3.03,83.43,34.32,127.22,30.21c35.61-3.34,65.02-29.53,131.6-32.44C481.83,344.03,488.21,348.59,490.22,355.16z"></path>
&#x9;<path class="st8" d="M483.88,357.49c57.07,71.26,92.72,167.04,97.3,262.55c0.32,6.76-3.94,12.12-9.54,11.77l-100.03-6.25&#xA;&#x9;&#x9;c-5.86-0.37-10.52-6.8-10.03-13.79c5.57-78.1,7.57-157.43,5.65-246.98C467.01,354.2,477.54,349.58,483.88,357.49z"></path>
&#x9;<path class="st8" d="M467.93,434.8c5.56-1.4,11.18-2.54,16.84-3.4c12.22-1.85,24.61-2.45,36.95-1.82c2.95,0.15,5.9,0.38,8.84,0.67&#xA;&#x9;&#x9;c-13.3-26.12-28.96-50.63-46.69-72.76c-6.34-7.92-16.86-3.29-16.64,7.3C467.75,388.81,467.98,412.08,467.93,434.8z"></path>
&#x9;<path class="st9" d="M482.16,437.89c11.36-1.53,22.82-2.33,34.29-2.39c5.66-0.03,11.31,0.12,16.96,0.45&#xA;&#x9;&#x9;c-0.74-1.51-1.49-3.02-2.25-4.52c-10.01-1.03-20.11-1.26-30.15-0.65c-11.16,0.68-22.24,2.42-33.08,5.16c0,1.42-0.01,2.83-0.02,4.25&#xA;&#x9;&#x9;C472.64,439.3,477.39,438.53,482.16,437.89z"></path>
&#x9;<path class="st9" d="M484.92,485.02c13.87-3.08,28.1-4.52,42.3-4.32c8.76,0.12,17.51,0.88,26.16,2.25&#xA;&#x9;&#x9;c-0.47-1.3-0.93-2.61-1.42-3.91c-1.74-0.26-3.48-0.52-5.23-0.73c-14.91-1.83-30.04-1.87-44.96-0.14&#xA;&#x9;&#x9;c-11.67,1.36-23.21,3.83-34.41,7.38c-0.03,1.46-0.07,2.9-0.1,4.35C473.06,487.98,478.95,486.35,484.92,485.02z"></path>
&#x9;<path class="st10" d="M485.35,546.69c8.32-2.64,16.83-4.7,25.45-6.16c8.62-1.46,17.34-2.34,26.08-2.6&#xA;&#x9;&#x9;c8.72-0.26,17.46,0.08,26.13,1.04c2.37,0.26,4.72,0.58,7.08,0.93c-0.21-0.93-0.41-1.87-0.62-2.81c-0.51-0.08-1.02-0.18-1.53-0.25&#xA;&#x9;&#x9;c-8.86-1.32-17.81-2.07-26.77-2.28c-8.94-0.21-17.89,0.13-26.78,1.02c-8.99,0.9-17.92,2.35-26.73,4.37&#xA;&#x9;&#x9;c-7.54,1.72-14.97,3.88-22.28,6.4c-0.12,2.74-0.26,5.46-0.39,8.2C471.61,551.53,478.41,548.89,485.35,546.69z"></path>
&#x9;<g>
&#x9;&#x9;<path class="st11" d="M223.16,232.51c-37.07-12.22-61.42-48.94-64.56-86.12s12.12-74.07,34.75-104.55&#xA;&#x9;&#x9;&#x9;c7.74-10.42,20.01-21.38,32.7-17.26c7.21,2.34,11.78,8.92,15.74,15.11c20.43,31.93,39.2,65.14,50.93,100.81&#xA;&#x9;&#x9;&#x9;c7.4,22.51,11.76,47.6,1.73,69.16S256.18,243.39,223.16,232.51z"></path>
&#x9;&#x9;<path class="st30" d="M224.45,210.95c-29.27-9.65-48.49-38.64-50.97-67.99s9.57-58.48,27.43-82.54&#xA;&#x9;&#x9;&#x9;c6.11-8.23,15.8-16.88,25.82-13.63c5.69,1.85,9.3,7.04,12.43,11.93c16.13,25.21,30.95,51.43,40.21,79.59&#xA;&#x9;&#x9;&#x9;c5.84,17.77,9.29,37.58,1.36,54.6S250.51,219.55,224.45,210.95z"></path>
&#x9;&#x9;<path class="st30" d="M198.51,148.62c6.86-6.99,14.82-12.93,23.49-17.49c4.33-2.28,8.85-4.21,13.49-5.75&#xA;&#x9;&#x9;&#x9;c2.52-0.84,5.17-1.35,7.78-1.83c2.62-0.48,5.26-0.85,7.92-1.11c7.48-0.74,15.04-0.57,22.49,0.46&#xA;&#x9;&#x9;&#x9;c-9.1-22.39-21.38-43.61-34.52-64.16c-3.13-4.88-6.74-10.08-12.43-11.93c-10.02-3.26-19.71,5.4-25.82,13.63&#xA;&#x9;&#x9;&#x9;c-17.86,24.06-29.91,53.19-27.43,82.54c0.85,10.09,3.68,20.14,8.22,29.38C185.93,163.58,191.7,155.56,198.51,148.62z"></path>
&#x9;&#x9;<path class="st31" d="M274.15,124.09c-8.84-1.28-17.87-1.33-26.71-0.08c-2.63,0.37-5.25,0.85-7.85,1.44&#xA;&#x9;&#x9;&#x9;c-2.48,0.57-4.87,1.34-7.25,2.24c-4.52,1.71-8.9,3.81-13.08,6.24c-8.4,4.86-16.03,11.04-22.54,18.23&#xA;&#x9;&#x9;&#x9;c-5.8,6.41-10.68,13.64-14.37,21.46c8.75,17.05,23.35,31.15,42.09,37.33c26.07,8.59,48.35-1.01,56.28-18.04&#xA;&#x9;&#x9;&#x9;c7.92-17.03,4.48-36.83-1.36-54.6C277.78,133.52,276.03,128.78,274.15,124.09z"></path>
&#x9;</g>
&#x9;<g>
&#x9;&#x9;<path class="st11" d="M482.61,232.51c37.07-12.22,61.42-48.94,64.56-86.12s-12.12-74.07-34.75-104.55&#xA;&#x9;&#x9;&#x9;c-7.74-10.42-20.01-21.38-32.7-17.26c-7.21,2.34-11.78,8.92-15.74,15.11c-20.43,31.93-39.2,65.14-50.93,100.81&#xA;&#x9;&#x9;&#x9;c-7.4,22.51-11.76,47.6-1.73,69.16C421.37,231.23,449.59,243.39,482.61,232.51z"></path>
&#x9;&#x9;<path class="st30" d="M481.33,210.95c29.27-9.65,48.49-38.64,50.97-67.99c2.48-29.35-9.57-58.48-27.43-82.54&#xA;&#x9;&#x9;&#x9;c-6.11-8.23-15.8-16.88-25.82-13.63c-5.69,1.85-9.3,7.04-12.43,11.93c-16.13,25.21-30.95,51.43-40.21,79.59&#xA;&#x9;&#x9;&#x9;c-5.84,17.77-9.29,37.58-1.36,54.6S455.26,219.55,481.33,210.95z"></path>
&#x9;&#x9;<path class="st30" d="M433.01,124.53c8.76,0.22,17.49,1.32,26.05,3.23c8.5,1.89,16.81,4.59,24.82,7.99&#xA;&#x9;&#x9;&#x9;c7.98,3.39,15.67,7.5,22.92,12.26c7.17,4.7,13.93,10.04,20.14,15.95c0.18,0.17,0.34,0.35,0.52,0.52&#xA;&#x9;&#x9;&#x9;c2.58-6.96,4.23-14.22,4.85-21.52c2.48-29.35-9.57-58.48-27.43-82.54c-6.11-8.23-15.8-16.88-25.82-13.63&#xA;&#x9;&#x9;&#x9;c-5.69,1.85-9.3,7.04-12.43,11.93c-13.46,21.04-26,42.79-35.17,65.78C431.98,124.52,432.49,124.52,433.01,124.53z"></path>
&#x9;&#x9;<path class="st32" d="M523.83,162.63c-6.31-5.74-13.14-10.89-20.37-15.41c-7.32-4.57-15.05-8.5-23.08-11.69&#xA;&#x9;&#x9;&#x9;c-8.01-3.19-16.31-5.66-24.77-7.34c-8.1-1.61-16.34-2.46-24.6-2.55c-1.65,4.18-3.19,8.41-4.6,12.68&#xA;&#x9;&#x9;&#x9;c-5.84,17.77-9.29,37.58-1.36,54.6c7.92,17.03,30.21,26.63,56.28,18.04c21.59-7.12,37.7-24.76,45.67-45.31&#xA;&#x9;&#x9;&#x9;C525.95,164.63,524.91,163.61,523.83,162.63z"></path>
&#x9;</g>
&#x9;<ellipse class="st33" cx="355.45" cy="491.84" rx="63.91" ry="76.31"></ellipse>
&#x9;<g>
&#x9;&#x9;<path class="st34" d="M171.49,394.17c24.92-6.1,50.14-10.97,75.54-14.57c31.28-4.43,62.82-6.99,94.41-7.66&#xA;&#x9;&#x9;&#x9;c15.93-0.34,31.88-0.2,47.81,0.41c15.69,0.6,31.56,1.29,47.15,3.24c28.25,3.53,56.73,7.61,81.88,21.7&#xA;&#x9;&#x9;&#x9;c28.35-3.42,44.94-18.47,44.94-60.88c0-98.07-95.43-177.58-213.14-177.58s-213.14,79.5-213.14,177.58&#xA;&#x9;&#x9;&#x9;C136.95,371.11,149.74,387.49,171.49,394.17z"></path>
&#x9;</g>
&#x9;<g>
&#x9;&#x9;<path class="st35" d="M537.69,394.77c-10.68-4.86-21-10.5-30.86-16.86c-18.47-11.91-35.35-26.26-50.19-42.46&#xA;&#x9;&#x9;&#x9;c-14.84-16.2-27.66-34.26-38-53.64c-10.29-19.29-18.12-39.91-22.96-61.24c-4.36-19.19-6.25-38.93-5.45-58.59&#xA;&#x9;&#x9;&#x9;c-13-2.07-26.42-3.16-40.14-3.16c-117.71,0-213.14,79.5-213.14,177.58c0,26.29,7.35,42.07,20.36,51.08c-3,6.46-5.64,12.75-8.17,19&#xA;&#x9;&#x9;&#x9;c-1.27,3.13,1.11,6.54,4.65,6.62c17.19,0.37,34.47-3.54,49.65-11.22c3.57-1.81,7.81,1.05,7.35,4.87l-1.3,10.9&#xA;&#x9;&#x9;&#x9;c-0.34,2.88,2.04,5.4,5.09,5.41c23.34,0.08,46.58-9.15,63.03-24.87c3.09-2.95,8.48-0.97,8.66,3.19c0.15,3.45-0.35,6.94-1.47,10.23&#xA;&#x9;&#x9;&#x9;c-1.32,3.87,2.57,7.49,6.59,6.08c16.51-5.79,36-19.1,50.32-31.18c2.69-0.09,5.38-0.15,8.09-0.2&#xA;&#x9;&#x9;&#x9;c14.34,12.13,33.95,25.55,50.55,31.37c4.02,1.41,7.91-2.2,6.59-6.08c-1.12-3.29-1.62-6.77-1.47-10.23&#xA;&#x9;&#x9;&#x9;c0.18-4.16,5.57-6.14,8.66-3.19c16.45,15.72,39.7,24.95,63.03,24.87c3.05-0.01,5.43-2.53,5.09-5.41l-1.3-10.9&#xA;&#x9;&#x9;&#x9;c-0.46-3.82,3.78-6.68,7.35-4.87c15.18,7.68,32.46,11.59,49.65,11.22c3.53-0.08,5.92-3.48,4.65-6.62&#xA;&#x9;&#x9;&#x9;C541.02,402.6,539.4,398.71,537.69,394.77z"></path>
&#x9;</g>
&#x9;<g>
&#x9;&#x9;<path class="st34" d="M154.48,385.33c23.29-4.09,45.88-12.03,66.7-23.22c20.74-11.14,39.77-25.49,55.99-42.56&#xA;&#x9;&#x9;&#x9;c8.11-8.53,15.52-17.74,22.05-27.54c6.98-10.47,13.39-21.18,18.67-32.62c10.56-22.85,17.07-47.59,19.09-72.69&#xA;&#x9;&#x9;&#x9;c0.74-9.17,0.86-18.39,0.39-27.57c-111.8,5.48-200.43,82.74-200.43,177.25C136.95,360.73,143.24,376.04,154.48,385.33z"></path>
&#x9;</g>
&#x9;<ellipse class="st36" cx="294.81" cy="286.72" rx="10.68" ry="10.15"></ellipse>
&#x9;<ellipse class="st36" cx="417.65" cy="282.39" rx="10.68" ry="10.15"></ellipse>
&#x9;<path class="st37" d="M350.66,299.14c-0.39,5.09-3.02,9.75-4.01,14.76s0.48,11.32,5.32,12.98c2.68,0.92,5.66,0.11,8.23-1.09&#xA;&#x9;&#x9;c10.37-4.84,17.07-16.57,15.99-27.96c-4.64-2.92-8.44-7.17-10.83-12.1C360.96,289.79,356.56,293.85,350.66,299.14z"></path>
&#x9;<path class="st36" d="M359.87,277.47l-2.3,2.68c-3.08,3.58-0.54,9.12,4.19,9.12h4.6c4.72,0,7.27-5.54,4.19-9.12l-2.3-2.68&#xA;&#x9;&#x9;C366.04,274.91,362.07,274.91,359.87,277.47z"></path>
&#x9;<path class="st38" d="M345.83,300.18c6.24-4.84,9.39-7.15,17.89-13.26c4.76,4.76,10.15,10.42,14.91,15.18"></path>
</g>
<g id="レイヤー_9">
</g>
<g id="レイヤー_7">
</g>
</svg>