<?xml version="1.0" encoding="utf-8"?>

<svg version="1.1" xmlns="http://www.w3.org/2000/svg" xmlns:xlink="http://www.w3.org/1999/xlink" x="0px" y="0px" width="719.81px" height="719.81px" viewBox="0 0 719.81 719.81" style="enable-background:new 0 0 719.81 719.81;" xml:space="preserve">

<g id="背景">
</g>
<g id="ガイド線" class="st0">
</g>
<g id="文字">
</g>
<g id="影">
</g>
<g id="レイヤー_6">
&#x9;<g id="レイヤー_8">
&#x9;</g>
&#x9;<path class="st114" d="M369.82,342.6c21.96-43.67,25.66-96.18,10.06-142.51s-50.32-85.89-94.23-107.38&#xA;&#x9;&#x9;c-13.39-6.55-28.07-11.56-42.94-10.52c-14.88,1.04-29.94,9.17-35.88,22.85c-6.07,13.98-1.48,30.75,7.66,42.93&#xA;&#x9;&#x9;s22.2,20.74,34.98,29.03c-16.22-12.66-37.53-25.95-55.87-16.62c-13.19,6.71-18.79,23.91-15.01,38.21&#xA;&#x9;&#x9;c3.78,14.31,15.18,25.63,28.19,32.7c13.01,7.06,27.63,10.46,42.06,13.77c-16.39-1.72-36.27-1.89-45.31,11.88&#xA;&#x9;&#x9;c-10.26,15.64,2.43,36.99,18.46,46.63c16.03,9.64,35.47,13.34,50,25.13c-7.58-5.95-19.87-0.49-23.44,8.46&#xA;&#x9;&#x9;c-3.57,8.95-0.55,19.26,4.36,27.56c14.36,24.3,45.65,37.18,72.95,30.04C353.15,387.64,374.12,361.09,369.82,342.6z"></path>
&#x9;<path class="st57" d="M496.74,315.31c15.07,46.8,30.15,93.61,45.22,140.41c3.74,11.61,7.5,24.02,4.28,35.78&#xA;&#x9;&#x9;c-4.54,16.54-21.21,26.37-36.88,33.33c-77.93,34.58-165.98,40.66-250.85,32.47c-29.25-2.83-61.71-9.26-78.5-33.38&#xA;&#x9;&#x9;c-12.01-17.25-13.03-40.07-8.97-60.68c6.88-34.97,26.87-66.31,51.61-91.97s54.21-46.2,83.71-66.19&#xA;&#x9;&#x9;c21.77-14.75,45.54-29.87,71.84-29.28C422.18,276.78,454.81,320.65,496.74,315.31z"></path>
&#x9;<path class="st119" d="M155.68,513.06c-29.45,5.69-57.26,19.63-79.43,39.83c-7.15,6.51-13.94,17.73-7.48,24.93&#xA;&#x9;&#x9;c3.42,3.81,9.11,4.37,14.22,4.45c20.13,0.3,40.3-2.95,59.32-9.55c-16.1,14.7-27.73,34.22-33,55.37&#xA;&#x9;&#x9;c-1.61,6.48-2.32,14.24,2.39,18.98c5.6,5.64,15.13,3.46,22.29,0c18.24-8.81,33.56-23.56,43.04-41.47&#xA;&#x9;&#x9;c2.7,12.64-1.42,25.66-1.68,38.59c-0.27,12.93,5.8,28.17,18.56,30.27c14.88,2.45,25.42-14,30.29-28.27&#xA;&#x9;&#x9;c10.11-29.59,14.73-61.05,13.54-92.3c-0.26-6.93-0.88-14.09-4.21-20.17c-7.02-12.8-23.73-16.77-38.29-15.8&#xA;&#x9;&#x9;C180.67,518.9,166.29,523.44,155.68,513.06z"></path>
&#x9;<path class="st120" d="M332.02,394.51c-3.62-48.75-27.44-95.69-64.65-127.4s-87.32-47.79-136.03-43.64&#xA;&#x9;&#x9;c-14.86,1.26-30.02,4.52-42.24,13.06c-12.23,8.54-20.96,23.26-19.03,38.05c1.98,15.11,14.54,27.13,28.65,32.88&#xA;&#x9;&#x9;s29.71,6.37,44.93,6.91c-20.43-2.52-45.53-2.97-56.47,14.47c-7.86,12.54-3.82,30.16,6.78,40.49s26.2,14.18,40.99,13.55&#xA;&#x9;&#x9;s29.08-5.24,43.15-9.81c-14.94,6.95-32.08,17.03-32.75,33.49c-0.76,18.69,21.1,30.48,39.81,30.51s37.28-6.8,55.8-4.16&#xA;&#x9;&#x9;c-9.56-1.2-17.29,9.8-15.75,19.31c1.54,9.51,9.43,16.8,17.9,21.39c24.81,13.46,58.27,8.42,78.01-11.74&#xA;&#x9;&#x9;C340.88,441.71,345.21,408.15,332.02,394.51z"></path>
&#x9;<path class="st119" d="M298.58,242.29c-5.25-52.05,26.54-105.73,74.71-126.15s108.85-5.93,142.6,34.04&#xA;&#x9;&#x9;c33.13,39.24,38.56,94.12,42.55,145.32c0.46,5.92,0.75,12.44-2.85,17.15c-5.23,6.84-16.44,6.06-23.17,0.7&#xA;&#x9;&#x9;c-6.73-5.37-10.11-13.8-13.2-21.83c-8.68,9.95,2.49,28.64-7.21,37.6c-7.23,6.68-19.17,1.12-25.61-6.32&#xA;&#x9;&#x9;c-6.44-7.44-11.57-17.09-20.9-20.21c6.1,17.13-6.34,38.28-24.28,41.26c-17.94,2.99-36.56-12.99-36.33-31.18&#xA;&#x9;&#x9;c0.51,15.67-14.09,30.7-29.67,28.99c-15.58-1.71-26.48-21.68-18.2-34.98c-5.22,10.13-10.61,20.49-19.03,28.17&#xA;&#x9;&#x9;c-8.42,7.68-20.64,12.24-31.43,8.56c-15.14-5.16-21.21-23.62-21-39.61C285.75,287.81,301.64,272.69,298.58,242.29z"></path>
&#x9;<path class="st57" d="M188.53,493.14c-10.94-10.89-30.22-11.91-42.25-2.24c-5.12,4.11-9.04,10.39-8.38,16.93&#xA;&#x9;&#x9;c0.94,9.2,10.76,15.4,20.01,15.61c9.25,0.21,17.95-4,26.24-8.1c-10.87,6.99-19.46,17.47-24.2,29.49&#xA;&#x9;&#x9;c-1.84,4.66-2.73,10.83,1.19,13.94c3.04,2.41,7.48,1.65,11.11,0.3c12.07-4.49,21.96-14.52,26.29-26.65&#xA;&#x9;&#x9;c-2.46,9.77-1.73,20.32,2.07,29.65c1.93,4.75,4.96,9.48,9.73,11.37c7.48,2.97,16.15-2.58,19.5-9.89c3.35-7.31,2.8-15.74,2.18-23.76&#xA;&#x9;&#x9;c-0.46,7.77-0.27,15.79,2.74,22.97s9.34,13.38,17.06,14.31c11.05,1.33,21.11-9.06,22.14-20.14s-5.06-21.81-13.23-29.36&#xA;&#x9;&#x9;c-8.17-7.55-18.31-12.54-28.04-17.93C222.96,504.24,213.24,498.13,188.53,493.14z"></path>
&#x9;<path class="st121" d="M481.96,272c45.47-25.81,104.11-26.73,150.37-2.37c6.07-17.33,0.23-37.34-11.71-51.3&#xA;&#x9;&#x9;c-11.93-13.96-29.13-22.52-46.79-27.56c-17.02-4.86-35.19-6.74-52.45-2.84c-17.26,3.9-33.51,14.05-42.52,29.28&#xA;&#x9;&#x9;S469.15,252.86,481.96,272z"></path>
&#x9;<circle class="st122" cx="428.17" cy="225.03" r="13.5"></circle>
&#x9;<path class="st121" d="M442.91,521.05c8.52,18.66,17.04,37.33,25.56,55.99c20.03,6.84,40.06,13.68,60.08,20.52&#xA;&#x9;&#x9;c-18,2.53-36.65,0.22-53.49-6.6c16.29,6.75,29.68,20.22,36.34,36.55c-15.99-4.27-30.44-14.08-40.31-27.36&#xA;&#x9;&#x9;c-2.34,13.63-4.68,27.27-7.02,40.9C461.14,601.22,456.81,561.5,442.91,521.05z"></path>
&#x9;<path class="st121" d="M528.55,507.02c20.52-0.24,41.03-0.48,61.55-0.73c14.36-15.55,28.71-31.1,43.07-46.65&#xA;&#x9;&#x9;c-4.97,17.48-14.62,33.6-27.68,46.24c12.77-12.17,30.5-18.97,48.13-18.45c-10.37,12.89-25.19,22.14-41.33,25.8&#xA;&#x9;&#x9;c11.52,7.66,23.04,15.31,34.56,22.97C609.25,522.77,571.17,510.66,528.55,507.02z"></path>
</g>
<g id="レイヤー_9">
</g>
<g id="レイヤー_7">
</g>
</svg>