<?xml version="1.0" encoding="utf-8"?>

<svg version="1.1" xmlns="http://www.w3.org/2000/svg" xmlns:xlink="http://www.w3.org/1999/xlink" x="0px" y="0px" width="719.81px" height="719.81px" viewBox="0 0 719.81 719.81" style="enable-background:new 0 0 719.81 719.81;" xml:space="preserve">

<g id="背景">
</g>
<g id="ガイド線" class="st0">
</g>
<g id="文字">
</g>
<g id="影">
</g>
<g id="レイヤー_6">
&#x9;<g id="レイヤー_8">
&#x9;</g>
&#x9;<g>
&#x9;&#x9;<path class="st46" d="M422.13,390.63c-0.87,20.2-0.86,42.76,13.9,57.52c8.45,8.45,20.4,12.84,31.29,18.32&#xA;&#x9;&#x9;&#x9;c23.27,11.71,43.71,30.64,50.3,54.58c6.59,23.94-3.94,52.68-25.37,62.46c-16.49-5.55-32.98-11.11-51.46-20.69&#xA;&#x9;&#x9;&#x9;c8.06-5.84,16.37-11.95,21.03-20.43c4.66-8.48,4.56-20.05-3.01-26.44c-6.08-5.14-14.98-5.63-23.1-6.65&#xA;&#x9;&#x9;&#x9;c-30.4-3.81-58.99-19.01-78.05-41.5c-19.06-22.49-28.37-52-25.41-80.57"></path>
&#x9;&#x9;<ellipse class="st46" cx="539.32" cy="249.69" rx="111.52" ry="162.6"></ellipse>
&#x9;&#x9;<ellipse class="st46" cx="172.12" cy="249.69" rx="111.52" ry="162.6"></ellipse>
&#x9;&#x9;<ellipse class="st68" cx="190.88" cy="256.36" rx="77.48" ry="112.97"></ellipse>
&#x9;&#x9;<ellipse class="st68" cx="526.26" cy="256.36" rx="77.48" ry="112.97"></ellipse>
&#x9;&#x9;<ellipse class="st69" cx="373.1" cy="271.66" rx="191.52" ry="165.66"></ellipse>
&#x9;&#x9;<path class="st69" d="M121.93,516.95c44.05-8.97,90.33-8.15,135.98,3.83c12.57,25.79,21.81,53.01,30.58,81.16&#xA;&#x9;&#x9;&#x9;c-39.09,30.25-93.39,42.47-142.91,32.15c-8-1.67-16.57-4.35-20.96-10.83c-3.84-5.67-3.54-12.87-3.05-19.56&#xA;&#x9;&#x9;&#x9;C123.52,577.42,126.56,551.21,121.93,516.95z"></path>
&#x9;&#x9;<g>
&#x9;&#x9;&#x9;<path class="st69" d="M615.86,518.98c-44.05-8.97-90.33-8.15-135.98,3.83c-12.57,25.79-21.81,53.01-30.58,81.16&#xA;&#x9;&#x9;&#x9;&#x9;c39.09,30.25,93.39,42.47,142.91,32.15c8-1.67,16.57-4.35,20.96-10.83c3.84-5.67,3.54-12.87,3.05-19.56&#xA;&#x9;&#x9;&#x9;&#x9;C614.27,579.45,611.23,553.23,615.86,518.98z"></path>
&#x9;&#x9;&#x9;
&#x9;&#x9;&#x9;&#x9;<ellipse transform="matrix(0.3024 -0.9532 0.9532 0.3024 -135.4618 971.282)" class="st70" cx="595.86" cy="578.19" rx="61.55" ry="48.25"></ellipse>
&#x9;&#x9;</g>
&#x9;&#x9;<path class="st69" d="M261.71,371.25c-46.77,40.81-70.88,103.23-62.8,162.59c3.21,23.54,12.85,48.53,34.74,60.51&#xA;&#x9;&#x9;&#x9;c14.48,7.93,31.99,8.89,48.75,9.66c46.14,2.1,92.28,4.21,138.43,6.31c16.19,0.74,32.89,1.41,48.12-3.79&#xA;&#x9;&#x9;&#x9;c29.29-10,46.03-39.27,52.82-67.75c15.5-65.01-9.81-137.11-63.48-180.85C396.03,381.07,324.78,382.21,261.71,371.25z"></path>
&#x9;&#x9;<path class="st71" d="M266.11,402.54c62.85,12.28,128.22,13.16,191.42,2.57C393.05,431.32,316.71,424.4,266.11,402.54z"></path>
&#x9;&#x9;<g>
&#x9;&#x9;&#x9;<path class="st72" d="M264.19,500.07c-9.63-1.66-18.63,4.69-18.6,13.1c0.12,31.16,3.7,62.3,10.67,92.88&#xA;&#x9;&#x9;&#x9;&#x9;c1.41,6.18,3.3,12.83,9.02,16.78c5.84,4.04,14.04,4.12,21.55,3.95c16.77-0.38,33.52-1.08,50.25-2.1&#xA;&#x9;&#x9;&#x9;&#x9;c8.43-0.51,14.71-6.8,14.23-14.03c-1.9-28.79-2.59-57.64-2.06-86.48c0.12-6.65-5.45-12.36-13.12-13.35&#xA;&#x9;&#x9;&#x9;&#x9;C315.16,508.1,293.01,505.04,264.19,500.07z"></path>
&#x9;&#x9;&#x9;<path class="st71" d="M251.69,506.02c1.59,25.5,3.19,51,4.78,76.5C246.88,557.23,244.38,529.99,251.69,506.02z"></path>
&#x9;&#x9;&#x9;<path class="st71" d="M340.17,506.02c1.59,25.5,3.19,51,4.78,76.5C335.37,557.23,332.86,529.99,340.17,506.02z"></path>
&#x9;&#x9;</g>
&#x9;&#x9;<g>
&#x9;&#x9;&#x9;<path class="st70" d="M277.22,607.39c15.45,1.56,31.11,1.22,46.48-1.04c9.13-1.34,18.16-3.38,26.99-6.06&#xA;&#x9;&#x9;&#x9;&#x9;c-0.12-2.25-0.24-4.51-0.36-6.76c-0.96,0.24-1.91,0.49-2.87,0.71c-16.12,3.75-32.65,5.76-49.19,6.04&#xA;&#x9;&#x9;&#x9;&#x9;c-14.72,0.26-29.44-0.86-43.96-3.29c0.47,2.31,0.98,4.61,1.49,6.91C262.86,605.48,270.02,606.66,277.22,607.39z"></path>
&#x9;&#x9;&#x9;<path class="st71" d="M251.69,506.02c1.59,25.5,3.19,51,4.78,76.5C246.88,557.23,244.38,529.99,251.69,506.02z"></path>
&#x9;&#x9;&#x9;<path class="st71" d="M340.17,506.02c1.59,25.5,3.19,51,4.78,76.5C335.37,557.23,332.86,529.99,340.17,506.02z"></path>
&#x9;&#x9;</g>
&#x9;&#x9;<g>
&#x9;&#x9;&#x9;<path class="st72" d="M468.1,500.07c9.63-1.66,18.63,4.69,18.6,13.1c-0.12,31.16-3.7,62.3-10.67,92.88&#xA;&#x9;&#x9;&#x9;&#x9;c-1.41,6.18-3.3,12.83-9.02,16.78c-5.84,4.04-14.04,4.12-21.55,3.95c-16.77-0.38-33.52-1.08-50.25-2.1&#xA;&#x9;&#x9;&#x9;&#x9;c-8.43-0.51-14.71-6.8-14.23-14.03c1.9-28.79,2.59-57.64,2.06-86.48c-0.12-6.65,5.45-12.36,13.12-13.35&#xA;&#x9;&#x9;&#x9;&#x9;C417.13,508.1,439.28,505.04,468.1,500.07z"></path>
&#x9;&#x9;&#x9;<path class="st71" d="M480.6,506.02c-1.59,25.5-3.19,51-4.78,76.5C485.41,557.23,487.91,529.99,480.6,506.02z"></path>
&#x9;&#x9;&#x9;<path class="st71" d="M392.12,506.02c-1.59,25.5-3.19,51-4.78,76.5C396.92,557.23,399.43,529.99,392.12,506.02z"></path>
&#x9;&#x9;</g>
&#x9;&#x9;<g>
&#x9;&#x9;&#x9;<path class="st70" d="M455.07,607.39c-15.45,1.56-31.11,1.22-46.48-1.04c-9.13-1.34-18.16-3.38-26.99-6.06&#xA;&#x9;&#x9;&#x9;&#x9;c0.12-2.25,0.24-4.51,0.36-6.76c0.96,0.24,1.91,0.49,2.87,0.71c16.12,3.75,32.65,5.76,49.19,6.04&#xA;&#x9;&#x9;&#x9;&#x9;c14.72,0.26,29.44-0.86,43.96-3.29c-0.47,2.31-0.98,4.61-1.49,6.91C469.42,605.48,462.27,606.66,455.07,607.39z"></path>
&#x9;&#x9;&#x9;<path class="st71" d="M480.6,506.02c-1.59,25.5-3.19,51-4.78,76.5C485.41,557.23,487.91,529.99,480.6,506.02z"></path>
&#x9;&#x9;&#x9;<path class="st71" d="M392.12,506.02c-1.59,25.5-3.19,51-4.78,76.5C396.92,557.23,399.43,529.99,392.12,506.02z"></path>
&#x9;&#x9;</g>
&#x9;&#x9;
&#x9;&#x9;&#x9;<ellipse transform="matrix(0.9532 -0.3024 0.3024 0.9532 -167.6081 69.9072)" class="st70" cx="141.93" cy="576.16" rx="48.25" ry="61.55"></ellipse>
&#x9;&#x9;<circle class="st73" cx="290.81" cy="316.9" r="40.9"></circle>
&#x9;&#x9;<circle class="st73" cx="466.54" cy="320.3" r="40.9"></circle>
&#x9;&#x9;<path class="st72" d="M405.56,326.65c-7.37,16.7,3.77,36.07,17.79,47.76s31.36,19.6,43,33.66c19.48,23.52,16.37,62.41-7.53,87.6&#xA;&#x9;&#x9;&#x9;c-14.22-5.63-28.44-11.27-41.13-15.49c5.72-5.71,11.55-11.59,14.95-18.93c3.4-7.34,3.91-16.55-0.81-23.12&#xA;&#x9;&#x9;&#x9;c-7.21-10.04-21.88-9.47-34.16-10.93c-20.87-2.48-40.47-14.22-52.51-31.45c-12.04-17.23-16.34-39.66-11.51-60.12&#xA;&#x9;&#x9;&#x9;C357.23,332.22,380.82,328.81,405.56,326.65z"></path>
&#x9;&#x9;<path class="st71" d="M345.63,342.63c-5.57,13.93-0.12,30.23,9.37,41.85c9.49,11.61,22.5,19.69,34.71,28.41&#xA;&#x9;&#x9;&#x9;c12.21,8.72,24.25,18.79,30.31,32.51c8.09,18.3,3.21,41.51-11.56,55c5.59-20.79,8.8-45.06-4.41-62.07&#xA;&#x9;&#x9;&#x9;c-8.51-10.96-22.11-16.44-33.27-24.7C347.86,396.66,335.66,366.32,345.63,342.63z"></path>
&#x9;&#x9;<path class="st71" d="M414.62,339.97c-5.57,13.93-0.12,30.23,9.37,41.85c9.49,11.61,22.5,19.69,34.71,28.41&#xA;&#x9;&#x9;&#x9;c12.21,8.72,24.25,18.79,30.31,32.51c8.09,18.3,3.21,41.51-11.56,55c5.59-20.79,8.8-45.06-4.41-62.07&#xA;&#x9;&#x9;&#x9;c-8.51-10.96-22.11-16.44-33.27-24.7C416.85,394,404.65,363.65,414.62,339.97z"></path>
&#x9;&#x9;<path class="st74" d="M283.27,331.06c2.19-6.5,9.02-11.11,15.86-10.71c6.84,0.4,13.09,5.77,14.52,12.47"></path>
&#x9;&#x9;<path class="st74" d="M444.78,331.06c2.19-6.5,9.02-11.11,15.86-10.71s13.09,5.77,14.52,12.47"></path>
&#x9;&#x9;<path class="st73" d="M329.2,329.37c30.29-11.47,68.18-12.28,98.6-1.17"></path>
&#x9;</g>
</g>
<g id="レイヤー_9">
</g>
<g id="レイヤー_7">
</g>
</svg>