<?xml version="1.0" encoding="utf-8"?>

<svg version="1.1" xmlns="http://www.w3.org/2000/svg" xmlns:xlink="http://www.w3.org/1999/xlink" x="0px" y="0px" width="719.81px" height="719.81px" viewBox="0 0 719.81 719.81" style="enable-background:new 0 0 719.81 719.81;" xml:space="preserve">

<g id="背景">
</g>
<g id="ガイド線" class="st0">
</g>
<g id="文字">
</g>
<g id="影">
</g>
<g id="レイヤー_6">
&#x9;<g id="レイヤー_8">
&#x9;</g>
&#x9;
&#x9;&#x9;<rect x="391" y="377.45" transform="matrix(0.9705 0.2409 -0.2409 0.9705 139.8248 -79.7717)" class="st93" width="10.3" height="309.02"></rect>
&#x9;<g>
&#x9;&#x9;<rect x="339.5" y="327.56" class="st93" width="13.2" height="206.01"></rect>
&#x9;&#x9;
&#x9;&#x9;&#x9;<rect x="420" y="484.13" transform="matrix(0.5895 -0.8078 0.8078 0.5895 -299.153 585.6118)" class="st93" width="13.2" height="206.01"></rect>
&#x9;</g>
&#x9;<path class="st96" d="M338.56,316.04c3.54-13.08-6.25-25.73-15.66-35.49c-29.5-30.6-63.05-58.84-103.14-72.97&#xA;&#x9;&#x9;s-87.84-12.01-121.48,13.97c11.3,49.14,47.22,91.97,93.64,111.67S294.09,348.99,338.56,316.04z"></path>
&#x9;<path class="st96" d="M339.19,251.55c-10.14,3.35-19.94-6.51-16.15-16.49c0.76-1.99,1.67-3.92,2.72-5.72&#xA;&#x9;&#x9;c4.74-8.21,11.73-14.63,18.07-21.52c18.1-19.66,31.7-44.55,35.88-71.72s-1.72-56.58-18.28-77.95s-44.17-33.43-69.59-27.77&#xA;&#x9;&#x9;c-25.42,5.66-46.61,30.27-47.12,57.81c-0.51,27.55,21.78,54.3,47.79,54.77c7.77,0.14,15.49-1.81,23.24-1.24&#xA;&#x9;&#x9;c7.75,0.57,16.14,4.57,18.7,12.35c3.58,10.87-5.6,21.25-13.7,28.83c-29.23,27.35-56.49,59.45-67.88,99.03&#xA;&#x9;&#x9;c-11.39,39.58-3.17,87.95,28.1,113.09c23.7,19.05,55.25,21.72,84.87,23.34c35.38,1.94,71.12,3.43,105.94-3.17&#xA;&#x9;&#x9;c17.6-3.33,35.36-9.01,49.15-21.01c29.3-25.52,32.14-75.87,11.33-109.78c-20.81-33.91-60.09-51.71-98.14-52.51&#xA;&#x9;&#x9;C401.75,231.21,370.17,241.33,339.19,251.55z"></path>
&#x9;<path class="st98" d="M252.86,281.93c-1.17,4.06-2.12,8.21-2.87,12.42c2.97-8.21,6.39-16.27,10.24-24.11&#xA;&#x9;&#x9;c6.72-13.65,14.74-26.66,23.92-38.8c9.3-12.3,19.79-23.61,31.37-33.78c11.3-9.93,24.42-22.5,22.52-39.04&#xA;&#x9;&#x9;c-0.77-6.69-4.43-12.76-10.63-15.62c-3.3-1.52-7.06-2.01-10.49-1.16c7.41,0.87,15.08,4.84,17.52,12.24&#xA;&#x9;&#x9;c3.58,10.87-5.6,21.25-13.7,28.83C291.51,210.25,264.25,242.35,252.86,281.93z"></path>
&#x9;<g>
&#x9;&#x9;<path class="st99" d="M287.38,76.99c-4.98-11-14.88-19.65-26.44-23.13s-24.59-1.72-34.81,4.7c-2.33,1.46-4.68,3.41-5.13,6.12&#xA;&#x9;&#x9;&#x9;c-0.45,2.76,1.2,5.37,2.77,7.68c5.21,7.62,10.52,15.36,17.71,21.14s16.65,9.45,25.7,7.61C276.23,99.26,284.1,90.76,287.38,76.99z"></path>
&#x9;&#x9;<path class="st99" d="M287.38,76.99c-1.16-12.02-14.88-19.65-26.44-23.13c-0.82-0.25-1.65-0.46-2.48-0.65&#xA;&#x9;&#x9;&#x9;c0.82,2.04,1.36,4.2,1.61,6.44c1.05,9.71-2.97,19.41-9.58,26.4c-2.7,2.85-5.72,5.32-8.93,7.51c7.18,5.76,16.62,9.4,25.64,7.56&#xA;&#x9;&#x9;&#x9;C276.23,99.26,288.74,91.08,287.38,76.99z"></path>
&#x9;&#x9;<path class="st100" d="M239.9,92.13c7.45-4.98,13.93-11.5,16.75-20.21c2.02-6.24,2.14-13.32-0.62-19.21&#xA;&#x9;&#x9;&#x9;c-10.23-1.75-21.1,0.31-29.9,5.84c-2.33,1.46-4.68,3.41-5.13,6.12c-0.45,2.76,1.2,5.37,2.77,7.68&#xA;&#x9;&#x9;&#x9;C228.59,79.4,233.51,86.52,239.9,92.13z"></path>
&#x9;</g>
&#x9;<path class="st96" d="M359.11,279.91c-4.38-13.49,4.22-27.17,12.64-37.82c26.42-33.4,56.95-64.52,94.82-81.22&#xA;&#x9;&#x9;s84.35-16.82,118.84,8.68c-7.45,51.87-39.21,98.35-82.83,121.17C458.96,313.55,404.6,312.16,359.11,279.91z"></path>
&#x9;<path class="st101" d="M300.49,75.49c1.25-3,2.99-5.89,5.57-7.86c2.58-1.98,6.12-2.9,9.17-1.79c2.87,1.05,4.93,3.77,5.75,6.71&#xA;&#x9;&#x9;s0.55,6.1-0.14,9.08"></path>
&#x9;<circle class="st93" cx="344.99" cy="524.23" r="15.72"></circle>
&#x9;<circle class="st93" cx="390.94" cy="547.29" r="15.72"></circle>
&#x9;<ellipse class="st107" cx="341.85" cy="681.81" rx="22.41" ry="9.01"></ellipse>
&#x9;
&#x9;&#x9;<ellipse transform="matrix(0.7071 -0.7071 0.7071 0.7071 -316.4216 542.468)" class="st107" cx="496.61" cy="653.19" rx="22.41" ry="9.01"></ellipse>
</g>
<g id="レイヤー_9">
</g>
<g id="レイヤー_7">
</g>
</svg>