<?xml version="1.0" encoding="utf-8"?>

<svg version="1.1" xmlns="http://www.w3.org/2000/svg" xmlns:xlink="http://www.w3.org/1999/xlink" x="0px" y="0px" width="719.81px" height="719.81px" viewBox="0 0 719.81 719.81" style="enable-background:new 0 0 719.81 719.81;" xml:space="preserve">

<g id="背景">
</g>
<g id="ガイド線" class="st0">
</g>
<g id="文字">
</g>
<g id="影">
</g>
<g id="レイヤー_6">
&#x9;<g id="レイヤー_8">
&#x9;</g>
&#x9;<path class="st111" d="M168.86,381.15c-40.55,61.64-44.45,145.55-9.79,210.68c4.66,8.75,9.88,19.83,3.96,27.79&#xA;&#x9;&#x9;c-3.03,4.08-8.75,6.76-9.06,11.83c-0.42,7.03,9.22,9.35,16.26,9.18c22.92-0.56,45.84-1.12,68.7-0.61&#xA;&#x9;&#x9;c5.4,0.12,10.39-2.96,12.62-7.88c24.02-52.96,33.67-112.38,27.54-170.22c-1.48-13.96-4.05-28.32-11.94-39.93&#xA;&#x9;&#x9;c-9.11-13.4-24.41-21.58-40.17-25.34S194.83,393.04,168.86,381.15z"></path>
&#x9;<path class="st111" d="M599.25,617.4c-96.23-7.52-194.53-3.43-283.59-40.64c-34.6-14.45-68.74-33.11-92.12-62.42&#xA;&#x9;&#x9;s-33.89-71.29-13.93-111.16c58.1-33.65,122.71-56.03,194.04-68.96c42.21-14.17,141.85,54.79,167.01,91.52&#xA;&#x9;&#x9;c86.35,7.33,109.75,96.27,74.02,171.22C637.6,611.82,621.5,619.13,599.25,617.4z"></path>
&#x9;<path class="st112" d="M604.94,592.78c-31.98-8.74-62.63-22.43-90.39-40.56c-13.85-9.04-26.99-19.19-39.19-30.36&#xA;&#x9;&#x9;c-12.65-11.57-24.04-24.38-35.66-36.95c-21.66-23.43-46.23-48.53-78.72-55.15c-26.52-5.4-57.92,1.25-71.98,26.48&#xA;&#x9;&#x9;c-0.16,0.29-0.55,0.31-0.79,0.1c-5.88-5.36-12.41-9.95-19.41-13.72c-20.66-11.11-45.44-15.42-68.5-10.73&#xA;&#x9;&#x9;c-4.88,30.47,5.45,60.12,23.24,82.43c23.38,29.32,57.52,47.97,92.12,62.42c89.07,37.2,187.36,33.12,283.59,40.64&#xA;&#x9;&#x9;c20.29,1.58,35.45-4.38,43.34-16.72C629.9,598.8,617.32,596.16,604.94,592.78z"></path>
&#x9;<ellipse class="st113" cx="88.29" cy="224.41" rx="30" ry="43.43"></ellipse>
&#x9;<ellipse class="st113" cx="448.46" cy="207.07" rx="30" ry="43.43"></ellipse>
&#x9;<path class="st111" d="M88.29,279.82c0-94.82,81.72-230.49,185-230.49s189,135.67,189,230.49s-85.72,127.75-189,127.75&#xA;&#x9;&#x9;S88.29,374.65,88.29,279.82z"></path>
&#x9;<path class="st113" d="M170.81,308.49c0-52.98,45.66-128.78,103.36-128.78s105.59,75.8,105.59,128.78s-47.89,71.37-105.59,71.37&#xA;&#x9;&#x9;S170.81,361.46,170.81,308.49z"></path>
&#x9;<ellipse class="st113" cx="275.29" cy="236" rx="124.5" ry="66.8"></ellipse>
&#x9;<path class="st118" d="M192.9,228.07c49.47,11.75,101.86,10.96,150.95-2.26"></path>
&#x9;<ellipse cx="231.7" cy="244.08" rx="12.5" ry="13"></ellipse>
&#x9;<ellipse cx="308.23" cy="244.08" rx="12.5" ry="13"></ellipse>
&#x9;<path class="st111" d="M332.31,394.45c-40.55,61.64-44.45,145.55-9.79,210.68c4.66,8.75,9.88,19.83,3.96,27.79&#xA;&#x9;&#x9;c-3.03,4.08-8.75,6.76-9.06,11.83c-0.42,7.03,9.22,9.35,16.26,9.18c22.92-0.56,45.84-1.12,68.7-0.61&#xA;&#x9;&#x9;c5.4,0.12,10.39-2.96,12.62-7.88c24.02-52.96,33.67-112.38,27.54-170.22c-1.48-13.96-4.05-28.32-11.94-39.93&#xA;&#x9;&#x9;c-9.11-13.4-24.41-21.58-40.17-25.34C374.67,406.17,358.28,406.34,332.31,394.45z"></path>
&#x9;<path class="st111" d="M572.23,459.79c-52.39,9.27-62.74,97.92-47.16,158.06c1.77,6.81-3.13,13.9-7.89,14.71&#xA;&#x9;&#x9;c-1.75,0.3-3.44,0.94-5.02,2.13c-4.22,3.18-6.82,11.91-3.88,17.38c2.14,3.98,6.03,4.52,9.48,4.74&#xA;&#x9;&#x9;c39.56,2.57,79.12,5.14,118.69,7.72c3.57,0.23,6.93-2.73,8.53-7.63c14.12-43.41,19.02-93.25,13.73-140.75&#xA;&#x9;&#x9;c-1.96-17.55-5.91-36.2-15.82-46.4c-18.23-18.77-44.06,1.4-61-11.33C578.74,456.05,575.7,459.17,572.23,459.79z"></path>
&#x9;<path class="st123" d="M533.37,515.85c-15.83,31.09-18.52,68.63-7.27,101.66C509.49,585.32,510.86,544.55,533.37,515.85z"></path>
&#x9;<path d="M248.82,282.2c-1.54,0-2.85-1.18-2.98-2.74c-0.54-6.11,1.71-12.46,6.16-17.42c4.45-4.96,10.52-7.88,16.65-8.01&#xA;&#x9;&#x9;c6.12-0.12,12.31,2.54,16.97,7.31c4.65,4.77,7.16,11.02,6.87,17.15c-0.08,1.66-1.46,2.95-3.14,2.86c-1.66-0.08-2.93-1.48-2.86-3.14&#xA;&#x9;&#x9;c0.21-4.47-1.68-9.09-5.17-12.68c-3.42-3.51-7.87-5.5-12.25-5.5c-0.1,0-0.2,0-0.3,0c-4.47,0.09-8.96,2.29-12.3,6.02&#xA;&#x9;&#x9;c-3.35,3.73-5.04,8.43-4.65,12.88c0.15,1.65-1.07,3.11-2.72,3.25C249,282.2,248.91,282.2,248.82,282.2z"></path>
&#x9;<path d="M268.24,306.96c-15.93,0-31.85-3.7-45.8-11.2c-1.46-0.78-2.01-2.6-1.22-4.06c0.78-1.46,2.6-2.01,4.06-1.22&#xA;&#x9;&#x9;c28.8,15.47,66.47,13.73,93.72-4.33c1.38-0.92,3.24-0.54,4.16,0.84s0.54,3.24-0.84,4.16C306.48,301.64,287.34,306.96,268.24,306.96&#xA;&#x9;&#x9;z"></path>
</g>
<g id="レイヤー_9">
</g>
<g id="レイヤー_7">
</g>
</svg>