<?xml version="1.0" encoding="utf-8"?>

<svg version="1.1" xmlns="http://www.w3.org/2000/svg" xmlns:xlink="http://www.w3.org/1999/xlink" x="0px" y="0px" width="719.81px" height="719.81px" viewBox="0 0 719.81 719.81" style="enable-background:new 0 0 719.81 719.81;" xml:space="preserve">

<g id="背景">
</g>
<g id="ガイド線" class="st0">
</g>
<g id="文字">
</g>
<g id="影">
</g>
<g id="レイヤー_6">
&#x9;<g id="レイヤー_8">
&#x9;</g>
&#x9;<ellipse class="st1" cx="304.56" cy="383.75" rx="263.47" ry="105.31"></ellipse>
&#x9;<g>
&#x9;&#x9;<circle class="st18" cx="205.5" cy="185.72" r="42.54"></circle>
&#x9;&#x9;<circle class="st3" cx="205.5" cy="185.72" r="26.32"></circle>
&#x9;</g>
&#x9;<g>
&#x9;&#x9;<circle class="st18" cx="499.15" cy="185.72" r="42.54"></circle>
&#x9;&#x9;<circle class="st4" cx="499.15" cy="185.72" r="26.32"></circle>
&#x9;</g>
&#x9;<ellipse class="st5" cx="183.32" cy="405" rx="138.39" ry="144.55"></ellipse>
&#x9;<g>
&#x9;&#x9;<path class="st6" d="M97.3,330.12c-22.17,37.28-29.08,82.41-19.02,124.09c-6.76-19.94-10.41-41.04-8.25-61.87&#xA;&#x9;&#x9;&#x9;S80.44,350.93,97.3,330.12z"></path>
&#x9;&#x9;<path class="st6" d="M114.69,352.08c-15.19,25.54-19.93,56.47-13.03,85.03c-4.63-13.66-7.13-28.12-5.65-42.4&#xA;&#x9;&#x9;&#x9;C97.49,380.43,103.14,366.34,114.69,352.08z"></path>
&#x9;&#x9;<g>
&#x9;&#x9;&#x9;<path class="st6" d="M115.5,377.11c-17.58-4.23-34.08-12.11-47.16-22.52C77.8,367.27,94.77,376.89,115.5,377.11z"></path>
&#x9;&#x9;&#x9;<path class="st6" d="M107.8,408.34c-19.88-4.64-38.62-12.93-53.58-23.68C65.14,397.61,84.46,407.65,107.8,408.34z"></path>
&#x9;&#x9;</g>
&#x9;</g>
&#x9;<path class="st12" d="M136.58,330.59c-12.97,53.4-22.61,107.61-28.82,162.21c-0.63,5.56-0.95,11.96,3.05,15.88&#xA;&#x9;&#x9;c2.98,2.92,7.47,3.5,11.62,3.92c36.33,3.71,82.25,1.99,118.58,5.71c6.21-62,13.3-133.55-30.76-185.36&#xA;&#x9;&#x9;C186.1,335.29,161.57,333.55,136.58,330.59z"></path>
&#x9;<path class="st12" d="M498.18,397.19c8.28,14.86,25.78,21.98,42.03,16.98c49.18-15.15,97.04-33.39,143.32-54.63&#xA;&#x9;&#x9;c5.61-2.57,11.77-6.03,12.34-13.07c0.43-5.25-2.46-10.88-5.23-16.01c-16.44-30.51-32.88-61.02-49.32-91.54&#xA;&#x9;&#x9;c-11.37-21.11-39.83-25.39-56.9-8.55c-30.71,30.31-63.4,58.28-97.86,83.73c-15.29,11.3-19.33,32.46-9.04,48.44&#xA;&#x9;&#x9;C484.75,373.77,491.58,385.35,498.18,397.19z"></path>
&#x9;<path class="st18" d="M690.65,330.46c-16.44-30.51-32.88-61.02-49.32-91.54c-11.37-21.11-39.83-25.39-56.9-8.55&#xA;&#x9;&#x9;c-1.67,1.65-3.37,3.26-5.05,4.9c7.55,9.66,14.79,19.56,21.66,29.72c8.31,12.28,16.1,24.9,23.35,37.82&#xA;&#x9;&#x9;c7.17,12.79,13.81,25.89,19.87,39.24c4.4,9.69,8.49,19.52,12.29,29.46c9.06-3.88,18.06-7.87,27-11.97&#xA;&#x9;&#x9;c5.61-2.57,11.77-6.03,12.34-13.07C696.3,341.23,693.41,335.6,690.65,330.46z"></path>
&#x9;<g>
&#x9;&#x9;<path class="st12" d="M583.87,361.47c0-2.66-0.06-5.3-0.15-7.94v-3.42h-0.13C577.67,231.31,479.48,136.8,359.2,136.8&#xA;&#x9;&#x9;&#x9;c-120.27,0-218.47,94.51-224.39,213.31h-0.28v223.85c0,18.1,14.67,32.77,32.77,32.77h214.5c18.1,0,32.77-14.67,32.77-32.77&#xA;&#x9;&#x9;&#x9;c0,18.1,14.67,32.77,32.77,32.77h103.59c18.1,0,32.77-14.67,32.77-32.77V369.52C583.81,366.85,583.87,364.17,583.87,361.47z"></path>
&#x9;</g>
&#x9;<g>
&#x9;&#x9;<path class="st19" d="M230.7,342.43c36.7-6.44,72.38-17.73,109.11-23.98c18.34-3.12,36.83-4.51,55.41-3.14&#xA;&#x9;&#x9;&#x9;c18.83,1.39,37.43,4.92,55.82,9.08c18.67,4.22,37.17,9.14,55.85,13.31c15.92,3.55,32.17,5.36,48.49,5.29&#xA;&#x9;&#x9;&#x9;c9.19-0.04,18.45-0.75,27.53-2.27C572.43,226.37,476.29,136.8,359.2,136.8c-116.35,0-212.04,88.45-223.51,201.78&#xA;&#x9;&#x9;&#x9;C165.94,349.4,199.48,347.91,230.7,342.43z"></path>
&#x9;</g>
&#x9;<path class="st18" d="M238.55,468.59c-10.94,0.27-21.88,0.29-32.81,0.04c-10.92-0.24-21.82-0.74-32.72-1.5&#xA;&#x9;&#x9;c-10.86-0.75-21.7-1.75-32.51-3.01c-9.57-1.11-19.11-2.43-28.62-3.93c-1.51,10.85-2.89,21.72-4.13,32.6&#xA;&#x9;&#x9;c-0.63,5.56-0.95,11.96,3.05,15.88c2.98,2.92,7.47,3.5,11.62,3.92c36.33,3.71,82.25,1.99,118.58,5.71&#xA;&#x9;&#x9;c1.62-16.16,3.3-32.98,4.11-49.92C242.93,468.46,240.74,468.53,238.55,468.59z"></path>
&#x9;<g>
&#x9;&#x9;<circle class="st15" cx="345.86" cy="296.03" r="7.46"></circle>
&#x9;&#x9;<circle class="st15" cx="415.63" cy="296.03" r="7.46"></circle>
&#x9;&#x9;<path class="st16" d="M367.87,328.01c-3.78,0-6.7-3.31-6.24-7.05l2.27-18.53c0-8.45,6.85-15.31,15.31-15.31h3.98&#xA;&#x9;&#x9;&#x9;c8.45,0,15.31,6.85,15.31,15.31l1.97,18.63c0.39,3.72-2.52,6.95-6.26,6.95H367.87z"></path>
&#x9;&#x9;<path class="st17" d="M363.5,305.65l-1.87,15.3c-0.46,3.75,2.47,7.05,6.24,7.05h26.33c3.74,0,6.65-3.24,6.26-6.95l-1.54-14.52&#xA;&#x9;&#x9;&#x9;C388.11,300.67,374.61,300.29,363.5,305.65z"></path>
&#x9;</g>
&#x9;<path class="st1" d="M244.34,476.17c0.72-23.81,3.12-47.59,7.17-71.17C252.57,427.27,249.89,449.66,244.34,476.17z"></path>
</g>
<g id="レイヤー_9">
</g>
<g id="レイヤー_7">
</g>
</svg>