<?xml version="1.0" encoding="utf-8"?>

<svg version="1.1" xmlns="http://www.w3.org/2000/svg" xmlns:xlink="http://www.w3.org/1999/xlink" x="0px" y="0px" width="719.81px" height="719.81px" viewBox="0 0 719.81 719.81" style="enable-background:new 0 0 719.81 719.81;" xml:space="preserve">

<g id="背景">
</g>
<g id="ガイド線" class="st0">
</g>
<g id="文字">
</g>
<g id="影">
</g>
<g id="レイヤー_6">
&#x9;<g id="レイヤー_8">
&#x9;</g>
&#x9;<g>
&#x9;&#x9;<circle class="st20" cx="231.94" cy="111.62" r="71.46"></circle>
&#x9;&#x9;<path class="st21" d="M214.91,497.17c-41.93-13.6-79.53-38.66-106.97-71.09c-14.77-17.45-12.75-42.39,4.13-58.1&#xA;&#x9;&#x9;&#x9;c10.63-9.9,21.51-19.58,32.61-29.03c22.47-19.11,58.35-13.99,73.24,10.7c17,28.17,34.68,55.99,53.02,83.43&#xA;&#x9;&#x9;&#x9;c9.8,14.65,9.5,33.45-1.14,47.59c-0.28,0.37-0.56,0.74-0.84,1.1C256.84,497.58,234.65,503.58,214.91,497.17z"></path>
&#x9;&#x9;<path class="st22" d="M214.91,497.17c-41.93-13.6-79.53-38.66-106.97-71.09c-14.77-17.45-12.75-42.39,4.13-58.1&#xA;&#x9;&#x9;&#x9;c10.63-9.9,21.51-19.58,32.61-29.03c22.47-19.11,58.35-13.99,73.24,10.7c17,28.17,34.68,55.99,53.02,83.43&#xA;&#x9;&#x9;&#x9;c9.8,14.65,9.5,33.45-1.14,47.59c-0.28,0.37-0.56,0.74-0.84,1.1C256.84,497.58,234.65,503.58,214.91,497.17z"></path>
&#x9;&#x9;<path class="st21" d="M485.77,365.05c27.72,95.83,25.23,200.18-7.02,294.58c-2.13,6.22-8.16,10.33-14.7,9.74&#xA;&#x9;&#x9;&#x9;c-20.92-1.88-44.07-0.83-63.29,0.13c-7.01,0.35-13.25-4.45-14.72-11.31c-2.53-11.85-4.45-22.45-4.32-35.05&#xA;&#x9;&#x9;&#x9;c0.08-7.95-6.14-14.49-14.09-14.65c-5.71-0.11-10.49-0.38-15.97-0.47c-7.77-0.12-14.16,5.94-14.56,13.71&#xA;&#x9;&#x9;&#x9;c-0.66,12.61-3.33,27.21-7.47,41.79c-1.55,5.48-6.24,9.51-11.88,10.29c-20.97,2.9-42,2.74-62.33-0.94&#xA;&#x9;&#x9;&#x9;c-4.78-0.87-8.76-4.09-10.7-8.54c-16.92-38.89-22.88-82.54-24.54-125.25c-1.74-44.97,0.87-90.2-1.24-129.99&#xA;&#x9;&#x9;&#x9;c-0.03-0.58-0.1-1.14-0.2-1.71c-2.33-12.89-2.28-26.2,0.11-39.08c1.33-7.15,7.94-12.08,15.2-11.54&#xA;&#x9;&#x9;&#x9;c39.61,2.92,76.53,33.13,116.71,29.16c32.67-3.23,59.65-28.5,120.72-31.31C478.07,354.3,483.93,358.7,485.77,365.05z"></path>
&#x9;&#x9;<path class="st21" d="M508.12,376.8c49.81,51.89,79.3,123,80.45,194.94c0.08,5.09-3.98,9.28-9.07,9.2l-91.06-1.38&#xA;&#x9;&#x9;&#x9;c-5.33-0.08-9.39-4.78-8.71-10.08c7.56-59.14,11.89-119.09,12.98-186.62C492.84,374.88,502.59,371.04,508.12,376.8z"></path>
&#x9;&#x9;<g>
&#x9;&#x9;&#x9;<g>
&#x9;&#x9;&#x9;&#x9;<circle class="st23" cx="322.45" cy="101.52" r="34.76"></circle>
&#x9;&#x9;&#x9;&#x9;<circle class="st23" cx="382.41" cy="101.52" r="34.76"></circle>
&#x9;&#x9;&#x9;</g>
&#x9;&#x9;&#x9;<circle class="st23" cx="160.48" cy="183.08" r="34.76"></circle>
&#x9;&#x9;&#x9;<circle class="st23" cx="140.49" cy="236.02" r="34.76"></circle>
&#x9;&#x9;&#x9;<circle class="st23" cx="140.49" cy="292.27" r="34.76"></circle>
&#x9;&#x9;&#x9;<circle class="st23" cx="160.48" cy="341.87" r="34.76"></circle>
&#x9;&#x9;&#x9;<circle class="st23" cx="203.82" cy="386.74" r="34.76"></circle>
&#x9;&#x9;&#x9;<circle class="st23" cx="266.7" cy="411.39" r="34.76"></circle>
&#x9;&#x9;&#x9;<circle class="st23" cx="333.75" cy="424.21" r="34.76"></circle>
&#x9;&#x9;&#x9;<g>
&#x9;&#x9;&#x9;&#x9;<circle class="st23" cx="539.93" cy="162.27" r="34.76"></circle>
&#x9;&#x9;&#x9;&#x9;<circle class="st23" cx="567.34" cy="211.77" r="34.76"></circle>
&#x9;&#x9;&#x9;&#x9;<circle class="st23" cx="575.46" cy="267.42" r="34.76"></circle>
&#x9;&#x9;&#x9;&#x9;<circle class="st23" cx="562.84" cy="319.39" r="34.76"></circle>
&#x9;&#x9;&#x9;&#x9;<circle class="st23" cx="526.42" cy="370.04" r="34.76"></circle>
&#x9;&#x9;&#x9;&#x9;<circle class="st23" cx="467.76" cy="403.51" r="34.76"></circle>
&#x9;&#x9;&#x9;&#x9;<circle class="st23" cx="403.27" cy="425.86" r="34.76"></circle>
&#x9;&#x9;&#x9;</g>
&#x9;&#x9;</g>
&#x9;&#x9;<circle class="st24" cx="382.41" cy="101.52" r="34.76"></circle>
&#x9;&#x9;<path class="st20" d="M140.49,266.56c0-96.27,103.64-154.94,223.33-154.94s210.1,58.67,210.1,154.94S476.89,421.5,357.21,421.5&#xA;&#x9;&#x9;&#x9;S140.49,362.82,140.49,266.56z"></path>
&#x9;&#x9;<circle class="st25" cx="231.94" cy="111.62" r="24.72"></circle>
&#x9;&#x9;<circle class="st20" cx="472.78" cy="111.62" r="71.46"></circle>
&#x9;&#x9;<circle class="st25" cx="472.78" cy="111.62" r="24.72"></circle>
&#x9;&#x9;<g>
&#x9;&#x9;&#x9;<path class="st26" d="M163.3,564.36c17.69,1.5,35.48,3,53.19,1.72s35.51-5.5,50.21-14.58c0.17,9.94,0.35,19.88,0.52,29.81&#xA;&#x9;&#x9;&#x9;&#x9;c-32.26,18.93-75.89,20.5-109.69,3.94C160.53,578.18,163.51,571.09,163.3,564.36z"></path>
&#x9;&#x9;&#x9;<g>
&#x9;&#x9;&#x9;&#x9;
&#x9;&#x9;&#x9;&#x9;&#x9;<ellipse transform="matrix(0.984 -0.1783 0.1783 0.984 -100.1417 30.3127)" class="st23" cx="118.55" cy="572.2" rx="27.3" ry="24.85"></ellipse>
&#x9;&#x9;&#x9;&#x9;
&#x9;&#x9;&#x9;&#x9;&#x9;<ellipse transform="matrix(0.1345 -0.9909 0.9909 0.1345 -484.8276 641.4229)" class="st23" cx="124.75" cy="598.24" rx="27.3" ry="24.85"></ellipse>
&#x9;&#x9;&#x9;&#x9;
&#x9;&#x9;&#x9;&#x9;&#x9;<ellipse transform="matrix(0.4341 -0.9009 0.9009 0.4341 -455.1669 476.1883)" class="st23" cx="151.44" cy="600.38" rx="24.85" ry="27.3"></ellipse>
&#x9;&#x9;&#x9;&#x9;
&#x9;&#x9;&#x9;&#x9;&#x9;<ellipse transform="matrix(0.6912 -0.7226 0.7226 0.6912 -366.0654 294.6154)" class="st23" cx="161.72" cy="575.67" rx="27.3" ry="24.85"></ellipse>
&#x9;&#x9;&#x9;&#x9;
&#x9;&#x9;&#x9;&#x9;&#x9;<ellipse transform="matrix(0.8807 -0.4737 0.4737 0.8807 -247.5583 133.57)" class="st23" cx="141.39" cy="558.25" rx="24.85" ry="27.3"></ellipse>
&#x9;&#x9;&#x9;</g>
&#x9;&#x9;</g>
&#x9;&#x9;<g>
&#x9;&#x9;&#x9;
&#x9;&#x9;&#x9;&#x9;<ellipse transform="matrix(0.984 -0.1783 0.1783 0.984 -81.0691 70.2871)" class="st23" cx="350.44" cy="486.1" rx="13.65" ry="12.42"></ellipse>
&#x9;&#x9;&#x9;
&#x9;&#x9;&#x9;&#x9;<ellipse transform="matrix(0.1345 -0.9909 0.9909 0.1345 -188.5741 782.3413)" class="st23" cx="353.55" cy="499.12" rx="13.65" ry="12.42"></ellipse>
&#x9;&#x9;&#x9;
&#x9;&#x9;&#x9;&#x9;<ellipse transform="matrix(0.4341 -0.9009 0.9009 0.4341 -242.9773 613.5796)" class="st23" cx="366.89" cy="500.19" rx="12.42" ry="13.65"></ellipse>
&#x9;&#x9;&#x9;
&#x9;&#x9;&#x9;&#x9;<ellipse transform="matrix(0.6912 -0.7226 0.7226 0.6912 -237.6519 419.4704)" class="st23" cx="372.03" cy="487.83" rx="13.65" ry="12.42"></ellipse>
&#x9;&#x9;&#x9;
&#x9;&#x9;&#x9;&#x9;<ellipse transform="matrix(0.8807 -0.4737 0.4737 0.8807 -183.7753 228.5615)" class="st23" cx="361.87" cy="479.12" rx="12.42" ry="13.65"></ellipse>
&#x9;&#x9;</g>
&#x9;&#x9;<g>
&#x9;&#x9;&#x9;
&#x9;&#x9;&#x9;&#x9;<ellipse transform="matrix(0.984 -0.1783 0.1783 0.984 -92.9067 71.3512)" class="st23" cx="350.44" cy="552.48" rx="13.65" ry="12.42"></ellipse>
&#x9;&#x9;&#x9;
&#x9;&#x9;&#x9;&#x9;<ellipse transform="matrix(0.1345 -0.9909 0.9909 0.1345 -254.3508 839.7958)" class="st23" cx="353.55" cy="565.5" rx="13.65" ry="12.42"></ellipse>
&#x9;&#x9;&#x9;
&#x9;&#x9;&#x9;&#x9;<ellipse transform="matrix(0.4341 -0.9009 0.9009 0.4341 -302.7764 651.1443)" class="st23" cx="366.89" cy="566.57" rx="12.42" ry="13.65"></ellipse>
&#x9;&#x9;&#x9;
&#x9;&#x9;&#x9;&#x9;<ellipse transform="matrix(0.6912 -0.7226 0.7226 0.6912 -285.62 439.9668)" class="st23" cx="372.03" cy="554.21" rx="13.65" ry="12.42"></ellipse>
&#x9;&#x9;&#x9;
&#x9;&#x9;&#x9;&#x9;<ellipse transform="matrix(0.8807 -0.4737 0.4737 0.8807 -215.2169 236.4799)" class="st23" cx="361.87" cy="545.5" rx="12.42" ry="13.65"></ellipse>
&#x9;&#x9;</g>
&#x9;&#x9;<path class="st27" d="M492.03,456.08c8.78,32.78,9.26,67.76,1.39,100.77c5.99-17.01,11.55-34.38,12.96-52.35&#xA;&#x9;&#x9;&#x9;C507.79,486.52,504.72,467.69,492.03,456.08z"></path>
&#x9;&#x9;<g>
&#x9;&#x9;&#x9;<circle class="st28" cx="345.4" cy="250.88" r="25.32"></circle>
&#x9;&#x9;&#x9;<circle class="st28" cx="376.51" cy="250.88" r="25.32"></circle>
&#x9;&#x9;</g>
&#x9;&#x9;<path class="st29" d="M355.26,216.3l-6.67,7.76c-4.19,4.87-0.73,12.41,5.7,12.41h13.34c6.43,0,9.89-7.54,5.7-12.41l-6.67-7.76&#xA;&#x9;&#x9;&#x9;C363.65,212.81,358.26,212.81,355.26,216.3z"></path>
&#x9;&#x9;<circle class="st29" cx="293.17" cy="242.97" r="15.12"></circle>
&#x9;&#x9;<circle class="st29" cx="426.8" cy="245.43" r="15.12"></circle>
&#x9;</g>
</g>
<g id="レイヤー_9">
</g>
<g id="レイヤー_7">
</g>
</svg>