<?xml version="1.0" encoding="utf-8"?>

<svg version="1.1" xmlns="http://www.w3.org/2000/svg" xmlns:xlink="http://www.w3.org/1999/xlink" x="0px" y="0px" width="719.81px" height="719.81px" viewBox="0 0 719.81 719.81" style="enable-background:new 0 0 719.81 719.81;" xml:space="preserve">

<g id="背景">
</g>
<g id="ガイド線" class="st0">
</g>
<g id="文字">
</g>
<g id="影">
</g>
<g id="レイヤー_6">
&#x9;<g id="レイヤー_8">
&#x9;</g>
&#x9;<path class="st84" d="M579.01,472.42c30.03,0,60.06-7.9,85.83-23.73c18.71-11.49,24.56-35.97,13.06-54.68&#xA;&#x9;&#x9;c-11.49-18.71-35.97-24.56-54.68-13.06c-26.61,16.35-63.57,16.01-89.88-0.82c-26.31-16.83-42.1-50.25-38.41-81.26&#xA;&#x9;&#x9;c2.6-21.8-12.97-41.58-34.78-44.18c-21.81-2.6-41.58,12.97-44.18,34.78c-7.28,61.12,22.66,124.47,74.51,157.64&#xA;&#x9;&#x9;C516.85,463.96,547.93,472.41,579.01,472.42z"></path>
&#x9;<path class="st87" d="M596.11,565.24c3.64,0,6.84-0.16,9.56-0.39c21.88-1.84,38.12-21.07,36.28-42.95&#xA;&#x9;&#x9;c-1.84-21.88-21.08-38.12-42.95-36.28c-1.16,0.1-2.36,0.15-3.6,0.15c-31.19,0-86.67-30.21-102.22-56.46&#xA;&#x9;&#x9;c-15.92-26.87-14.98-63.82,2.27-89.86c12.13-18.3,7.13-42.97-11.17-55.1c-18.3-12.13-42.97-7.13-55.1,11.17&#xA;&#x9;&#x9;c-34,51.3-35.78,121.35-4.41,174.3c14.97,25.27,43.67,50.47,78.74,69.12C544.55,560.77,576.69,565.24,596.11,565.24z"></path>
&#x9;<path class="st89" d="M254.09,626.1c-16.65,0-32.16-10.54-37.71-27.2c-6.94-20.83,4.32-43.34,25.16-50.28&#xA;&#x9;&#x9;c30.05-10.01,54.37-40.8,59.13-74.88c4.83-34.56-10.35-72.21-36.92-91.56c-17.75-12.93-21.66-37.79-8.73-55.54&#xA;&#x9;&#x9;c12.93-17.75,37.79-21.66,55.54-8.73c24.78,18.05,44.41,43.56,56.78,73.77c12.24,29.89,16.41,62.07,12.07,93.07&#xA;&#x9;&#x9;c-8.93,63.83-54.24,119.81-112.75,139.3C262.49,625.44,258.25,626.1,254.09,626.1z"></path>
&#x9;<path class="st89" d="M483.37,631.67c16.65,0,32.16-10.54,37.71-27.2c6.94-20.83-4.32-43.34-25.16-50.28&#xA;&#x9;&#x9;c-30.05-10.01-54.37-40.8-59.13-74.88c-4.83-34.56,10.35-72.21,36.92-91.56c17.75-12.93,21.66-37.79,8.73-55.54&#xA;&#x9;&#x9;c-12.93-17.75-37.79-21.66-55.54-8.73c-24.78,18.05-44.41,43.56-56.78,73.77c-12.24,29.89-16.41,62.07-12.07,93.07&#xA;&#x9;&#x9;c8.93,63.83,54.24,119.81,112.75,139.3C474.97,631.01,479.2,631.67,483.37,631.67z"></path>
&#x9;<path class="st92" d="M210.9,410.61c-56.3,0-111.61-32.53-141.04-84.28c-11.43-20.09-5.5-46.31,13.25-58.56&#xA;&#x9;&#x9;c18.75-12.25,43.21-5.89,54.64,14.2c16.26,28.58,49.32,46.29,80.41,43.05c31.09-3.23,60.36-27.42,71.18-58.82&#xA;&#x9;&#x9;c7.61-22.07,30.47-33.36,51.07-25.2c20.6,8.16,31.12,32.66,23.51,54.74c-21.33,61.88-76.82,107.74-138.08,114.11&#xA;&#x9;&#x9;C220.86,410.36,215.87,410.61,210.9,410.61z"></path>
&#x9;<path class="st84" d="M158.45,466.85c-30.03,0-60.06-7.9-85.83-23.73c-18.71-11.49-24.56-35.97-13.06-54.68&#xA;&#x9;&#x9;c11.49-18.71,35.97-24.56,54.68-13.06c26.61,16.35,63.57,16.01,89.88-0.82c26.31-16.83,42.1-50.25,38.41-81.26&#xA;&#x9;&#x9;c-2.6-21.8,12.97-41.58,34.78-44.18c21.81-2.6,41.58,12.97,44.18,34.78c7.28,61.12-22.66,124.47-74.51,157.64&#xA;&#x9;&#x9;C220.61,458.39,189.53,466.85,158.45,466.85z"></path>
&#x9;<path class="st87" d="M141.35,559.68c-3.64,0-6.84-0.16-9.56-0.39c-21.88-1.84-38.12-21.07-36.28-42.95&#xA;&#x9;&#x9;c1.84-21.88,21.08-38.12,42.95-36.28c1.16,0.1,2.36,0.15,3.6,0.15c31.19,0,86.67-30.21,102.22-56.46&#xA;&#x9;&#x9;c15.92-26.87,14.98-63.82-2.27-89.86c-12.13-18.3-7.13-42.97,11.17-55.1c18.3-12.13,42.97-7.13,55.1,11.17&#xA;&#x9;&#x9;c34,51.3,35.78,121.35,4.41,174.3c-14.97,25.27-43.67,50.47-78.74,69.12C192.91,555.21,160.77,559.68,141.35,559.68z"></path>
&#x9;<path class="st92" d="M526.56,416.18c56.3,0,111.61-32.53,141.04-84.28c11.43-20.09,5.5-46.31-13.25-58.56&#xA;&#x9;&#x9;c-18.75-12.25-43.21-5.89-54.64,14.2c-16.26,28.58-49.32,46.29-80.41,43.05c-31.09-3.23-60.36-27.42-71.18-58.82&#xA;&#x9;&#x9;c-7.61-22.07-30.47-33.36-51.07-25.2c-20.6,8.16-31.12,32.66-23.51,54.74c21.33,61.88,76.82,107.74,138.08,114.11&#xA;&#x9;&#x9;C516.6,415.93,521.59,416.18,526.56,416.18z"></path>
&#x9;<g>
&#x9;&#x9;<path class="st94" d="M600.05,553.48c3.64,0,6.84-0.16,9.56-0.39c21.88-1.84,38.12-21.07,36.28-42.95&#xA;&#x9;&#x9;&#x9;c-1.84-21.88-21.08-38.12-42.95-36.28c-1.16,0.1-2.36,0.15-3.6,0.15c-31.19,0-86.67-30.21-102.22-56.46&#xA;&#x9;&#x9;&#x9;c-15.92-26.87-14.98-63.82,2.27-89.86c12.13-18.3,7.13-42.97-11.17-55.1c-18.3-12.13-42.97-7.13-55.1,11.17&#xA;&#x9;&#x9;&#x9;c-34,51.3-35.78,121.35-4.41,174.3c14.97,25.27,43.67,50.47,78.74,69.12C548.49,549.02,580.63,553.48,600.05,553.48z"></path>
&#x9;&#x9;<path class="st94" d="M491.93,621.86c16.65,0,32.16-10.54,37.71-27.2c6.94-20.83-4.32-43.34-25.16-50.28&#xA;&#x9;&#x9;&#x9;c-30.05-10.01-54.37-40.8-59.13-74.88c-4.83-34.56,10.35-72.21,36.92-91.56c17.75-12.93,21.66-37.79,8.73-55.54&#xA;&#x9;&#x9;&#x9;c-12.93-17.75-37.79-21.66-55.54-8.73c-24.78,18.05-44.41,43.56-56.78,73.77c-12.24,29.89-16.41,62.07-12.07,93.07&#xA;&#x9;&#x9;&#x9;c8.93,63.83,54.24,119.81,112.75,139.3C483.53,621.2,487.77,621.86,491.93,621.86z"></path>
&#x9;&#x9;<path class="st94" d="M221.54,398.46c-56.3,0-111.61-30.35-141.04-78.64c-11.43-18.75-5.5-43.21,13.25-54.64&#xA;&#x9;&#x9;&#x9;c18.75-11.43,43.21-5.5,54.64,13.25c16.26,26.67,49.32,43.19,80.41,40.17c31.09-3.02,60.36-25.59,71.18-54.88&#xA;&#x9;&#x9;&#x9;c7.61-20.6,30.47-31.12,51.07-23.51c20.6,7.61,31.12,30.47,23.51,51.07c-21.33,57.73-76.82,100.52-138.08,106.46&#xA;&#x9;&#x9;&#x9;C231.51,398.22,226.52,398.46,221.54,398.46z"></path>
&#x9;&#x9;<path class="st94" d="M158.45,455.09c-30.03,0-60.06-7.9-85.83-23.73c-18.71-11.49-24.56-35.97-13.06-54.68&#xA;&#x9;&#x9;&#x9;c11.49-18.71,35.97-24.56,54.68-13.06c26.61,16.35,63.57,16.01,89.88-0.82c26.31-16.83,42.1-50.25,38.41-81.26&#xA;&#x9;&#x9;&#x9;c-2.6-21.8,12.97-41.58,34.78-44.18c21.81-2.6,41.58,12.97,44.18,34.78c7.28,61.12-22.66,124.47-74.51,157.64&#xA;&#x9;&#x9;&#x9;C220.61,446.63,189.53,455.09,158.45,455.09z"></path>
&#x9;&#x9;<path class="st94" d="M245.52,616.3c-16.65,0-32.16-10.54-37.71-27.2c-6.94-20.83,4.32-43.34,25.16-50.28&#xA;&#x9;&#x9;&#x9;c30.05-10.01,54.37-40.8,59.13-74.88c4.83-34.56-10.35-72.21-36.92-91.56c-17.75-12.93-21.66-37.79-8.73-55.54&#xA;&#x9;&#x9;&#x9;c12.93-17.75,37.79-21.66,55.54-8.73c24.78,18.05,44.41,43.56,56.78,73.77c12.24,29.89,16.41,62.07,12.07,93.07&#xA;&#x9;&#x9;&#x9;c-8.93,63.83-54.24,119.81-112.75,139.3C253.93,615.64,249.69,616.3,245.52,616.3z"></path>
&#x9;&#x9;<path class="st94" d="M137.41,547.92c-3.64,0-6.84-0.16-9.56-0.39c-21.88-1.84-38.12-21.07-36.28-42.95&#xA;&#x9;&#x9;&#x9;c1.84-21.88,21.08-38.12,42.95-36.28c1.16,0.1,2.36,0.15,3.6,0.15c31.19,0,86.67-30.21,102.22-56.46&#xA;&#x9;&#x9;&#x9;c15.92-26.87,14.98-63.82-2.27-89.86c-12.13-18.3-7.13-42.97,11.17-55.1c18.3-12.13,42.97-7.13,55.1,11.17&#xA;&#x9;&#x9;&#x9;c34,51.3,35.78,121.35,4.41,174.3c-14.97,25.27-43.67,50.47-78.74,69.12C188.97,543.45,156.83,547.92,137.41,547.92z"></path>
&#x9;&#x9;<path class="st94" d="M515.92,404.02c56.3,0,111.61-30.35,141.04-78.64c11.43-18.75,5.5-43.21-13.25-54.64&#xA;&#x9;&#x9;&#x9;c-18.75-11.43-43.21-5.5-54.64,13.25c-16.26,26.67-49.32,43.19-80.41,40.17c-31.09-3.02-60.36-25.59-71.18-54.88&#xA;&#x9;&#x9;&#x9;c-7.61-20.6-30.47-31.12-51.07-23.51c-20.6,7.61-31.12,30.47-23.51,51.07c21.33,57.73,76.82,100.52,138.08,106.46&#xA;&#x9;&#x9;&#x9;C505.95,403.79,510.94,404.02,515.92,404.02z"></path>
&#x9;&#x9;<path class="st94" d="M579.01,460.66c30.03,0,60.06-7.9,85.83-23.73c18.71-11.49,24.56-35.97,13.06-54.68&#xA;&#x9;&#x9;&#x9;c-11.49-18.71-35.97-24.56-54.68-13.06c-26.61,16.35-63.57,16.01-89.88-0.82c-26.31-16.83-42.1-50.25-38.41-81.26&#xA;&#x9;&#x9;&#x9;c2.6-21.8-12.97-41.58-34.78-44.18c-21.81-2.6-41.58,12.97-44.18,34.78c-7.28,61.12,22.66,124.47,74.51,157.64&#xA;&#x9;&#x9;&#x9;C516.85,452.2,547.93,460.66,579.01,460.66z"></path>
&#x9;&#x9;<ellipse class="st94" cx="370.76" cy="242.63" rx="171.78" ry="154.49"></ellipse>
&#x9;&#x9;<ellipse class="st94" cx="370.76" cy="373.42" rx="171.78" ry="84.97"></ellipse>
&#x9;</g>
&#x9;<circle class="st95" cx="300.37" cy="294.81" r="11.24"></circle>
&#x9;<circle class="st95" cx="437.67" cy="294.81" r="11.24"></circle>
&#x9;<circle class="st97" cx="368.73" cy="300.48" r="21.66"></circle>
</g>
<g id="レイヤー_9">
</g>
<g id="レイヤー_7">
</g>
</svg>