<?xml version="1.0" encoding="utf-8"?>

<svg version="1.1" xmlns="http://www.w3.org/2000/svg" xmlns:xlink="http://www.w3.org/1999/xlink" x="0px" y="0px" width="719.81px" height="719.81px" viewBox="0 0 719.81 719.81" style="enable-background:new 0 0 719.81 719.81;" xml:space="preserve">

<g id="背景">
</g>
<g id="ガイド線" class="st0">
</g>
<g id="文字">
</g>
<g id="影">
</g>
<g id="レイヤー_6">
&#x9;<g id="レイヤー_8">
&#x9;</g>
</g>
<g id="レイヤー_9">
</g>
<g id="レイヤー_7">
&#x9;<g>
&#x9;&#x9;<path class="st139" d="M142.85,296.03c-35.48-5.13-65.38,24.85-98.07,37.28c-10.9,4.14-22.59,8.95-28.14,19.11&#xA;&#x9;&#x9;&#x9;c-5.36,9.81-3.47,22.68,2.42,32.77s15.22,17.82,24.92,24.41c44.77,30.43,102.25,40.55,152.63,26.89&#xA;&#x9;&#x9;&#x9;c18.12-4.91,38.07-17.05,36.65-36.01c-0.61-8.19-5.27-15.67-10.02-22.59C203.48,349.06,187.24,302.45,142.85,296.03z"></path>
&#x9;&#x9;<path class="st140" d="M233.26,400.49c-0.61-8.19-5.27-15.67-10.02-22.59c-19.76-28.83-36-75.45-80.39-81.87&#xA;&#x9;&#x9;&#x9;c-13.61-1.97-26.39,1.24-38.83,6.63c-7.42,8.13-13.24,17.69-17.15,27.99c-4.53,11.9-6.62,24.75-5.7,37.47&#xA;&#x9;&#x9;&#x9;c0.88,12.27,4.58,24.54,10.65,35.24c10.07,17.78,26.63,31.81,45.87,38.64c19.95,1.42,39.94-0.34,58.93-5.49&#xA;&#x9;&#x9;&#x9;C214.72,431.59,234.68,419.45,233.26,400.49z"></path>
&#x9;&#x9;
&#x9;&#x9;&#x9;<ellipse transform="matrix(0.1081 -0.9941 0.9941 0.1081 -145.6539 599.4236)" class="st141" cx="261.24" cy="380.89" rx="108.79" ry="169.59"></ellipse>
&#x9;&#x9;<path class="st142" d="M313.76,280.45c-7.1,6.83-13.34,14.6-18.72,22.87C285,318.77,277.59,335.76,271.21,353&#xA;&#x9;&#x9;&#x9;c-7.69,20.78-14,42.59-13.92,64.93c0.04,10.15,1.29,20.42,5,29.92c3.23,8.29,8.02,16.03,13.97,22.65&#xA;&#x9;&#x9;&#x9;c7.9,8.8,18.11,15.69,29.42,18.55c67.42-7.57,119.03-42.58,124.17-89.83C435.35,348.59,385.72,300.19,313.76,280.45z"></path>
&#x9;&#x9;<path class="st139" d="M593.94,278.37C637.42,248.78,702.07,268,702.07,268s-5.84,67.19-49.33,96.78&#xA;&#x9;&#x9;&#x9;c-43.48,29.59-108.13,10.37-108.13,10.37S550.46,307.96,593.94,278.37z"></path>
&#x9;&#x9;<path class="st143" d="M610.42,311.42c17.52-11.92,43.58-4.18,43.58-4.18s-2.36,27.08-19.88,39&#xA;&#x9;&#x9;&#x9;c-17.52,11.92-43.58,4.18-43.58,4.18S592.9,323.34,610.42,311.42z"></path>
&#x9;&#x9;<path class="st139" d="M603.79,462.23c46.19,25.14,108.63-0.38,108.63-0.38s-12.46-66.29-58.65-91.43&#xA;&#x9;&#x9;&#x9;c-46.19-25.14-108.63,0.38-108.63,0.38S557.59,437.09,603.79,462.23z"></path>
&#x9;&#x9;<path class="st143" d="M640.32,398.71c17.72,11.62,20.54,38.66,20.54,38.66s-25.92,8.19-43.64-3.43&#xA;&#x9;&#x9;&#x9;c-17.72-11.62-20.54-38.66-20.54-38.66S622.6,387.09,640.32,398.71z"></path>
&#x9;&#x9;<path class="st139" d="M569.62,348.8C497,314.98,424.37,281.16,351.75,247.33c-46.96-21.87-98.91-44.25-148.9-30.67&#xA;&#x9;&#x9;&#x9;c-28.3,7.69-52.61,26.44-71.73,48.68s-33.61,48-47.97,73.58c-6.33,11.27-12.69,25.27-6.15,36.4c4.06,6.91,12.02,10.42,19.61,13.01&#xA;&#x9;&#x9;&#x9;c29.53,10.07,61.56,12.67,92.33,7.52c19.97-3.35,42.48-9.37,58.94,2.43c12.38,8.87,16.8,25.01,25.96,37.18&#xA;&#x9;&#x9;&#x9;c17.12,22.76,49.99,48.69,78.45,49.39c57.66,1.42,119.04-1.37,168.88-30.38C549.28,438.1,572.26,381,569.62,348.8z"></path>
&#x9;&#x9;<path class="st144" d="M499.97,435.74c-15.06-13.87-32.32-25.34-50.99-33.75c-9.37-4.22-19.11-7.65-29.06-10.22&#xA;&#x9;&#x9;&#x9;c-10.88-2.81-21.8-5.05-33.01-6.04c-22.22-1.96-44.74,0.15-66.26,5.97c-20.39,5.52-39.8,14.4-57.28,26.26&#xA;&#x9;&#x9;&#x9;c3.3,5.96,6.42,12.12,10.47,17.5c17.12,22.76,49.99,48.69,78.45,49.39c56.75,1.4,117.1-1.3,166.52-29.05&#xA;&#x9;&#x9;&#x9;C513.01,448.68,506.73,441.96,499.97,435.74z"></path>
&#x9;&#x9;<path class="st139" d="M255.41,258.81c-0.72-40.93,26.29-80.92,64.52-95.55c8.96-3.43,19.61-5.39,27.72-0.26&#xA;&#x9;&#x9;&#x9;c10.67,6.75,11.48,21.65,12,34.27c1.6,38.48,11.58,76.58,29.03,110.91C343.92,298.16,301.64,277.25,255.41,258.81z"></path>
&#x9;&#x9;<path class="st139" d="M289.2,476.97c-20.27-18.7-41.19-89.91-20.7-108.38c22.82-20.57,102.02-9.9,122.18,13.29&#xA;&#x9;&#x9;&#x9;c18.1,20.82,39.15,87.87,20.7,108.38C390.83,513.1,311.79,497.81,289.2,476.97z"></path>
&#x9;&#x9;<path class="st140" d="M382.85,368.95c16.68,26.54,28.65,56.04,35.18,86.71C418.68,423.6,405.76,391.48,382.85,368.95z"></path>
&#x9;&#x9;
&#x9;&#x9;&#x9;<ellipse transform="matrix(0.9725 -0.2329 0.2329 0.9725 -70.5035 55.1361)" class="st145" cx="198.24" cy="326.14" rx="9.48" ry="6.66"></ellipse>
&#x9;&#x9;
&#x9;&#x9;&#x9;<ellipse transform="matrix(0.7909 -0.6119 0.6119 0.7909 -174.4585 143.1699)" class="st145" cx="122.29" cy="326.9" rx="5.26" ry="7.68"></ellipse>
&#x9;&#x9;<g>
&#x9;&#x9;&#x9;<path class="st146" d="M250.27,297.52c19.17-19.98,50.87-20.67,50.87-20.67s0.63,31.7-18.54,51.68&#xA;&#x9;&#x9;&#x9;&#x9;c-19.17,19.98-50.87,20.67-50.87,20.67S231.1,317.5,250.27,297.52z"></path>
&#x9;&#x9;&#x9;<path class="st146" d="M294.8,299.35c23.59-14.5,50.35-13.82,50.35-13.82s-11.48,24.19-35.06,38.69s-50.35,13.82-50.35,13.82&#xA;&#x9;&#x9;&#x9;&#x9;S271.21,313.85,294.8,299.35z"></path>
&#x9;&#x9;&#x9;<path class="st146" d="M276.26,317.11c27.09-5.74,53.68,11.53,53.68,11.53s-17.32,26.56-44.4,32.3s-53.68-11.53-53.68-11.53&#xA;&#x9;&#x9;&#x9;&#x9;S249.17,322.85,276.26,317.11z"></path>
&#x9;&#x9;</g>
&#x9;&#x9;<path class="st140" d="M287.62,218.4c22.97,4.57,44.83,14.58,63.3,28.99c-8.95-7.63-18.18-15.08-28.58-20.57&#xA;&#x9;&#x9;&#x9;C311.93,221.34,300.18,217.89,287.62,218.4z"></path>
&#x9;</g>
</g>
</svg>