<?xml version="1.0" encoding="utf-8"?>

<svg version="1.1" xmlns="http://www.w3.org/2000/svg" xmlns:xlink="http://www.w3.org/1999/xlink" x="0px" y="0px" width="719.81px" height="719.81px" viewBox="0 0 719.81 719.81" style="enable-background:new 0 0 719.81 719.81;" xml:space="preserve">

<g id="背景">
</g>
<g id="ガイド線" class="st0">
</g>
<g id="文字">
</g>
<g id="影">
</g>
<g id="レイヤー_6">
&#x9;<g id="レイヤー_8">
&#x9;</g>
&#x9;<path class="st45" d="M151.39,313.99c30.09-38.4,61.42-75.75,95.52-109.86c5.45-5.45,11.07-10.89,17.67-14.31&#xA;&#x9;&#x9;s14.42-4.57,20.61-1.24c8.24,4.43,11.63,15.78,10.53,26.18s-5.79,20.15-10.39,29.58c-20.09,41.2-40.19,82.41-60.28,123.61&#xA;&#x9;&#x9;C195.08,369.85,166.13,351.31,151.39,313.99z"></path>
&#x9;<path class="st51" d="M209.7,551.51c16.98,14.78,39.47,25.24,63.76,29.44c24.27,4.24,50.37,2.33,74.38-6.81&#xA;&#x9;&#x9;c24.03-9.1,46.23-25.72,63.24-47.24c0.95-1.19,1.88-2.4,2.79-3.63c5.72-7.67,17.71-0.67,13.58,7.96c-0.75,1.56-1.52,3.1-2.31,4.64&#xA;&#x9;&#x9;c-13.85,26.85-34.94,50.97-62.14,67.98c-27.21,17-59.5,26.22-92.5,27.04c-32.99,0.8-67.15-6.72-97.93-23.97l-0.58-0.32&#xA;&#x9;&#x9;c-15.04-8.43-22.06-26.85-15.32-42.73c7.96-18.77,30.13-26,47.41-16.31C206.07,548.67,208.03,550.08,209.7,551.51z"></path>
&#x9;<path class="st59" d="M200.74,618.18c15.28-13.6,28.19-30.02,36.87-48.58c-10.3-4.89-19.74-10.98-27.9-18.09&#xA;&#x9;&#x9;c-1.67-1.43-3.63-2.85-5.63-3.96c-17.28-9.69-39.45-2.46-47.41,16.31c-6.73,15.87,0.29,34.29,15.33,42.73l0.58,0.32&#xA;&#x9;&#x9;c8.73,4.9,17.74,8.98,26.91,12.34C199.89,618.88,200.32,618.55,200.74,618.18z"></path>
&#x9;<path class="st60" d="M466.83,401.24c13.66-10.39,23.74-27.54,32.63-44.4c8.89-16.87,17.47-34.56,29.73-47.87&#xA;&#x9;&#x9;c12.26-13.32,29.49-21.28,41.41-13.76c8.75,5.52,12.92,18.32,13.13,31.63s-3.03,27.22-6.6,40.78&#xA;&#x9;&#x9;c-8.63,32.8-19.61,65.72-36.46,94.87c-16.85,29.15-40.21,54.4-66.13,65.12s-54.13,4.77-67.94-19.03&#xA;&#x9;&#x9;C427.53,477.84,445.78,444.4,466.83,401.24z"></path>
&#x9;<path class="st51" d="M262.31,272.44c-10.8-8.33-24.14-13.4-37.72-14.52c-11.34-0.93-22.82,0.96-33.02,5.91&#xA;&#x9;&#x9;c-12.64,15.9-25.02,32.11-37.19,48.49c13.66,39.12,41.86,58.01,71.58,55.25c14.18-29.87,28.35-59.75,42.53-89.62&#xA;&#x9;&#x9;C266.54,276,264.5,274.13,262.31,272.44z"></path>
&#x9;<path class="st52" d="M607.25,350.17c-80.05,0-161.14-15.59-237.81-46c-97.83-38.81-184.36-100.12-250.24-177.32l25.7-21.93&#xA;&#x9;&#x9;c62.31,73.03,144.26,131.07,237,167.85c92.73,36.78,192.19,50.69,287.61,40.24l3.68,33.58&#xA;&#x9;&#x9;C651.37,348.98,629.34,350.17,607.25,350.17z"></path>
&#x9;<path class="st53" d="M276.82,258.74c-3.06,6.46-6.13,12.91-9.19,19.37c5.65,2.69,11.17,5.68,16.51,8.94&#xA;&#x9;&#x9;c4.34-5.6,8.73-11.15,13.18-16.66C290.4,266.63,283.57,262.74,276.82,258.74z"></path>
&#x9;<path class="st53" d="M365.12,302.42c-5.24,14.33-10.49,28.66-15.73,42.99c7.72,7.43,15.87,14.37,25.06,20.1&#xA;&#x9;&#x9;c23.95,14.93,59.18,18.9,78.19-0.78c8.01-8.29,11.75-19.18,14.99-30.24c-33.24-7.48-66.1-17.6-98.19-30.33&#xA;&#x9;&#x9;C368,303.6,366.56,303,365.12,302.42z"></path>
&#x9;<path class="st52" d="M276.82,258.74c6.75,4,13.58,7.89,20.5,11.65c6.76-8.36,13.66-16.62,20.71-24.74&#xA;&#x9;&#x9;c0.49-0.56,0.99-1.13,1.48-1.69c-9.54-5.06-18.94-10.35-28.17-15.87c-0.74,1.6-1.49,3.19-2.24,4.77&#xA;&#x9;&#x9;C285.01,241.48,280.91,250.11,276.82,258.74z"></path>
&#x9;<path class="st52" d="M549.99,313.59c-4.93-0.48-9.87-1.02-14.8-1.62c0.27,1.91,0.52,3.83,0.75,5.74&#xA;&#x9;&#x9;C540.57,315.33,545.37,313.85,549.99,313.59z"></path>
&#x9;<path class="st52" d="M365.12,302.42c1.44,0.58,2.88,1.18,4.33,1.75c32.09,12.73,64.95,22.85,98.19,30.33&#xA;&#x9;&#x9;c1.21-4.13,2.35-8.29,3.62-12.34c2.09-6.69,4.97-13.55,8.93-19.48c-33.27-7.19-66.18-17.18-98.28-29.91&#xA;&#x9;&#x9;c-1.87-0.74-3.72-1.5-5.57-2.26c-1.38,5.01-3.17,9.95-4.95,14.82C369.29,291.02,367.2,296.72,365.12,302.42z"></path>
&#x9;<path class="st52" d="M144.9,104.92l-25.7,21.93c30.34,35.56,65.07,67.74,103.27,95.91c7.39-8.59,14.89-17.06,22.52-25.36&#xA;&#x9;&#x9;C207.89,170.32,174.22,139.28,144.9,104.92z"></path>
&#x9;<path class="st54" d="M312.92,308.64c-8.81-8.02-18.48-15.3-28.78-21.59c-22.02,28.42-42.62,57.94-62.47,87.93&#xA;&#x9;&#x9;c24.24,39.01,62.4,56.13,98.26,50.94c9.82-26.84,19.64-53.67,29.46-80.51C336.99,333.48,325.68,320.26,312.92,308.64z"></path>
&#x9;<path class="st51" d="M95.47,390.26c2.19,12,7.37,23.45,14.93,33.02C100.5,416.38,96.42,403.93,95.47,390.26z"></path>
&#x9;<g>
&#x9;&#x9;<path class="st54" d="M535.14,311.63c-1.92-13.48-19.29-28.77-34.98-24.47c-15.7,4.29-24.25,20.1-28.91,35&#xA;&#x9;&#x9;&#x9;c-4.66,14.9-7.6,31.19-18.61,42.58c-19.01,19.68-54.24,15.71-78.19,0.78c-9.19-5.73-17.34-12.67-25.06-20.1&#xA;&#x9;&#x9;&#x9;c7.33-20.03,14.66-40.06,21.98-60.08c3.93-10.73,7.91-21.81,7.44-33.22c-0.47-11.42-6.52-23.39-17.23-27.35&#xA;&#x9;&#x9;&#x9;c-8.06-2.98-17.3-0.91-24.68,3.5s-13.23,10.91-18.87,17.39c-11.7,13.47-22.94,27.32-33.87,41.43&#xA;&#x9;&#x9;&#x9;c-23.51-14.36-50.33-23.52-77.89-24.34c-9.63-0.29-19.31,0.56-28.74,2.45c-0.01-0.01-0.02-0.02-0.04-0.03l-34.87-21.63&#xA;&#x9;&#x9;&#x9;c-10.8-6.7-24.62,1.8-23.5,14.47l3.03,34.33c-6.21,5.65-11.7,12-16.15,19.1c-15.2,31.11-18.95,50.74-16.24,67.87l-24.14,19.43&#xA;&#x9;&#x9;&#x9;c-9.9,7.97-6.46,23.82,5.86,26.97l39.76,10.14c1.56,0.4,3.1,0.52,4.6,0.45c18.47,26.89,45.29,48.49,74.27,65.3&#xA;&#x9;&#x9;&#x9;c52.44,30.43,113.47,46.99,174.32,47.31c38.62,0.21,78.64-6.63,109.27-28.46c31.53-22.47,49.75-58.63,57.42-95.64&#xA;&#x9;&#x9;&#x9;C538.79,387.78,540.51,349.25,535.14,311.63z"></path>
&#x9;</g>
&#x9;<g>
&#x9;&#x9;<path class="st51" d="M501.37,485.6c-24.58,21.07-53.93,35.75-85.19,43.97c-35.72,9.4-73.36,9.89-109.65,3.67&#xA;&#x9;&#x9;&#x9;c-36.41-6.24-71.42-19.47-104.41-35.87c-24.81-12.33-48.54-26.7-71.36-42.39c16.77,18.41,37.45,33.87,59.36,46.58&#xA;&#x9;&#x9;&#x9;c52.44,30.43,113.47,46.99,174.32,47.31c38.62,0.21,78.64-6.63,109.27-28.46c16.9-12.04,29.95-28.05,39.62-45.98&#xA;&#x9;&#x9;&#x9;C509.49,478.32,505.5,482.05,501.37,485.6z"></path>
&#x9;</g>
&#x9;<path class="st51" d="M280.05,298.98c-15.54,20.15-28.76,41.53-39.42,63.76C246.03,340.08,258.34,318.64,280.05,298.98z"></path>
&#x9;<path class="st51" d="M341.35,360c-10.34,23.51-22.9,45.89-37.47,66.74C321.39,409.78,334.46,388.07,341.35,360z"></path>
&#x9;<g>
&#x9;&#x9;<g>
&#x9;&#x9;&#x9;<path class="st61" d="M95.47,386.12c-0.15,0.6-0.26,1.19-0.37,1.79l0.48-0.36C95.55,387.07,95.49,386.6,95.47,386.12z"></path>
&#x9;&#x9;&#x9;<path class="st61" d="M105.17,421.19l-0.55-0.07c0.68,0.97,1.39,1.94,2.12,2.9C106.19,423.09,105.69,422.14,105.17,421.19z"></path>
&#x9;&#x9;&#x9;<path class="st61" d="M95.57,387.55l-0.48,0.36c-2.14,11.43,2.21,22.81,9.53,33.21l0.55,0.07&#xA;&#x9;&#x9;&#x9;&#x9;C99.61,410.96,96.31,399.41,95.57,387.55z"></path>
&#x9;&#x9;</g>
&#x9;&#x9;<path class="st62" d="M95.1,387.91l-17.18,12.9c-6.99,5.25-4.07,16.34,4.6,17.46l22.11,2.85&#xA;&#x9;&#x9;&#x9;C97.31,410.72,92.96,399.34,95.1,387.91z"></path>
&#x9;&#x9;<path class="st63" d="M87.52,393.6c-1.34,9.25,1.19,18.96,7.18,26.24l9.93,1.28c-7.31-10.4-11.66-21.78-9.53-33.21L87.52,393.6z"></path>
&#x9;</g>
&#x9;<g>
&#x9;&#x9;<g>
&#x9;&#x9;&#x9;<path class="st61" d="M163.91,269.29c-0.61-0.04-1.22-0.05-1.82-0.06l0.43,0.41C162.99,269.53,163.44,269.39,163.91,269.29z"></path>
&#x9;&#x9;&#x9;<path class="st61" d="M131.01,284.82l-0.02-0.55c-0.84,0.84-1.68,1.7-2.5,2.58C129.3,286.15,130.16,285.49,131.01,284.82z"></path>
&#x9;&#x9;&#x9;<path class="st61" d="M162.52,269.64l-0.43-0.41c-11.63-0.16-22.1,6.07-31.1,15.04l0.02,0.55&#xA;&#x9;&#x9;&#x9;&#x9;C140.15,277.6,150.96,272.38,162.52,269.64z"></path>
&#x9;&#x9;</g>
&#x9;&#x9;<path class="st64" d="M162.09,269.23l-15.64-14.74c-6.36-6-16.79-1.23-16.42,7.51l0.95,22.27&#xA;&#x9;&#x9;&#x9;C139.99,275.29,150.46,269.07,162.09,269.23z"></path>
&#x9;&#x9;<path class="st63" d="M155.19,262.73c-9.34,0.25-18.49,4.4-24.63,11.54l0.43,10c9-8.97,19.48-15.2,31.1-15.04L155.19,262.73z"></path>
&#x9;</g>
&#x9;<path class="st55" d="M215.93,401.04c-15.2,17.23-40.3,26.49-62.16,19.4s-37.22-32.44-30.02-54.26c3.2-9.67,10.03-17.65,15-26.55&#xA;&#x9;&#x9;c10.35-18.54,13.52-42.39,30.61-55c17.08-12.6,43.2-7.65,57.61,7.94c14.4,15.59,18.03,39.04,13.32,59.73&#xA;&#x9;&#x9;S224.09,391.78,215.93,401.04z"></path>
&#x9;<path class="st67" d="M178.36,301.42c6.75,12.11,18.74,20.73,32.52,22.75c10.14,1.48,20.63-0.74,29.38-5.94&#xA;&#x9;&#x9;c-2.29-9.53-6.62-18.43-13.29-25.64c-13.44-14.55-37.09-19.82-54.07-10.22C173.16,289.04,175.1,295.57,178.36,301.42z"></path>
&#x9;<path class="st67" d="M198.45,398.42c-1.48-8.08-5.04-15.82-10.56-21.94c-5.55-6.17-13.11-10.78-21.14-12.85&#xA;&#x9;&#x9;c-15.88-4.11-33.85,1.02-44.79,13.32c-0.28,18.78,13.47,37.56,31.8,43.5c14.77,4.79,31.02,2.09,44.7-5.47&#xA;&#x9;&#x9;C199.46,409.52,199.46,403.88,198.45,398.42z"></path>
&#x9;<g>
&#x9;&#x9;<circle class="st7" cx="167.62" cy="381.08" r="13.24"></circle>
&#x9;</g>
&#x9;<g>
&#x9;&#x9;<circle class="st57" cx="167.62" cy="379.69" r="8.04"></circle>
&#x9;</g>
&#x9;<g>
&#x9;&#x9;<circle class="st7" cx="204.25" cy="304.47" r="13.24"></circle>
&#x9;</g>
&#x9;<g>
&#x9;&#x9;<circle class="st57" cx="204.25" cy="303.08" r="8.04"></circle>
&#x9;</g>
&#x9;<g>
&#x9;&#x9;<line class="st65" x1="218.48" y1="234.9" x2="223.12" y2="269.63"></line>
&#x9;&#x9;<line class="st65" x1="246.08" y1="241.76" x2="235.15" y2="271.99"></line>
&#x9;&#x9;<line class="st65" x1="262.79" y1="280.33" x2="242.69" y2="288.36"></line>
&#x9;</g>
&#x9;<g>
&#x9;&#x9;<line class="st65" x1="138.95" y1="447.44" x2="156.44" y2="430.09"></line>
&#x9;&#x9;<line class="st65" x1="161.27" y1="473.99" x2="165.92" y2="442.07"></line>
&#x9;&#x9;<line class="st65" x1="188.87" y1="467.68" x2="177.95" y2="439.89"></line>
&#x9;</g>
</g>
<g id="レイヤー_9">
</g>
<g id="レイヤー_7">
</g>
</svg>