<?xml version="1.0" encoding="utf-8"?>
<!-- Generator: Adobe Adobe Illustrator 24.2.0, SVG Export Plug-In . SVG Version: 6.00 Build 0)  -->
<svg version="1.1" xmlns="http://www.w3.org/2000/svg" xmlns:xlink="http://www.w3.org/1999/xlink" x="0px" y="0px"
	 width="719.81px" height="719.81px" viewBox="0 0 719.81 719.81" style="enable-background:new 0 0 719.81 719.81;"
	 xml:space="preserve">
<style type="text/css">
	.st0{display:none;}
	.st1{fill:#CFCFCF;}
	.st2{fill:#F0DAB3;}
	.st3{fill:#F7C8DE;}
	.st4{fill:#F4C9D9;}
	.st5{fill:#BBE6AF;}
	.st6{fill:#97B58D;}
	.st7{fill:#FFFFFF;}
	.st8{fill:#DE985F;}
	.st9{fill:#F8C79C;}
	.st10{fill:#F4C79C;}
	.st11{fill:#F3B380;}
	.st12{fill:#F8F1E0;}
	.st13{fill:#ECD9B3;}
	.st14{fill:#EEDAB3;}
	.st15{fill:#363636;}
	.st16{fill:#FB7C7D;}
	.st17{fill:#F8B7B8;}
	.st18{fill:#F2D994;}
	.st19{fill:#F5D994;}
	.st20{fill:#A8D7A2;}
	.st21{fill:#A7D5A1;}
	.st22{fill:#9DD394;}
	.st23{fill:#35AC53;}
	.st24{fill:#34AB52;}
	.st25{fill:#80CA3B;}
	.st26{fill:#A7D4A1;}
	.st27{fill:#6B9466;}
	.st28{fill:#F9FCEA;}
	.st29{fill:#113B1D;}
	.st30{fill:#F9D6E5;}
	.st31{fill:#EEC0D2;}
	.st32{fill:#EDC0D0;}
	.st33{fill:#F5F6E6;}
	.st34{fill:#F7B280;}
	.st35{fill:#F9F7E6;}
	.st36{fill:#303030;}
	.st37{fill:#F88E91;}
	.st38{fill:none;stroke:#303030;stroke-width:7;stroke-linecap:round;stroke-miterlimit:10;}
	.st39{fill:#DEB781;}
	.st40{fill:#ECC38C;}
	.st41{fill:#E0BC89;}
	.st42{fill:none;stroke:#303030;stroke-width:4;stroke-linecap:round;stroke-miterlimit:10;}
	.st43{fill:#D6D6D6;}
	.st44{fill:#5987B0;}
	.st45{fill:#E8B384;}
	.st46{fill:#4F84B8;}
	.st47{fill:#B4D3E6;}
	.st48{fill:#3A5F82;}
	.st49{fill:#99BDD7;}
	.st50{fill:#464747;}
	.st51{fill:#D6A172;}
	.st52{fill:#94661B;}
	.st53{fill:none;}
	.st54{fill:#F2BD8F;}
	.st55{fill:#F8EDD9;}
	.st56{fill:#BF8667;}
	.st57{fill:#4D4D4D;}
	.st58{fill:none;stroke:#734318;stroke-width:4;stroke-linecap:round;stroke-miterlimit:10;}
	.st59{fill:#8F633D;}
	.st60{fill:#EBB98D;}
	.st61{fill:#BF8654;}
	.st62{fill:#F898B8;}
	.st63{fill:#F1A5BC;}
	.st64{fill:#FBD6E1;}
	.st65{fill:none;stroke:#916137;stroke-width:2;stroke-linecap:round;stroke-miterlimit:10;}
	.st66{fill:#F6D5B0;}
	.st67{fill:#BE8567;}
	.st68{fill:#F2C757;}
	.st69{fill:#F2F6F7;}
	.st70{fill:#EFC657;}
	.st71{fill:#DBDBDB;}
	.st72{fill:#F3F5F5;}
	.st73{fill:none;stroke:#F7C44C;stroke-width:7;stroke-miterlimit:10;}
	.st74{fill:none;stroke:#4A4A4A;stroke-width:7;stroke-miterlimit:10;}
	.st75{fill:#7A3131;}
	.st76{fill:#F97273;}
	.st77{fill:#F8B4B5;}
	.st78{fill:#F57073;}
	.st79{fill:#383838;}
	.st80{fill:#B34B4D;}
	.st81{fill:#595959;}
	.st82{fill:#C9E2EE;}
	.st83{fill:#13162E;}
	.st84{fill:#F3755E;}
	.st85{fill:#3C3F63;}
	.st86{fill:#F8BB5D;}
	.st87{fill:#F1755E;}
	.st88{fill:#F7BB5D;}
	.st89{fill:#F0755E;}
	.st90{fill:#3B4063;}
	.st91{fill:#FABC5E;}
	.st92{fill:#F4755E;}
	.st93{fill:#9E577C;}
	.st94{fill:#C92A0F;}
	.st95{fill:#292929;}
	.st96{fill:#F9AFD6;}
	.st97{fill:none;stroke:#F0755E;stroke-width:15;stroke-miterlimit:10;}
	.st98{fill:#D691B2;}
	.st99{fill:#F9DDE9;}
	.st100{fill:#997485;}
	.st101{fill:none;stroke:#5F3048;stroke-width:8;stroke-linecap:round;stroke-miterlimit:10;}
	.st102{fill:#E3E1E1;}
	.st103{fill:#BFBFBF;}
	.st104{fill:#A19D9E;}
	.st105{fill:#F0F0F0;}
	.st106{fill:#949494;}
	.st107{fill:#5F3048;}
	.st108{fill:#9E9898;}
	.st109{opacity:0.3412;fill:#525252;}
	.st110{fill:#EBEBEB;}
	.st111{fill:#242424;}
	.st112{fill:#3D3D3D;}
	.st113{fill:#525252;}
	.st114{fill:#4D3125;}
	.st115{fill:#F5CE53;}
	.st116{fill:#F1CE54;}
	.st117{fill:#F9F6D9;}
	.st118{fill:none;stroke:#000000;stroke-width:7;stroke-linecap:round;stroke-miterlimit:10;}
	.st119{fill:#EDEDED;}
	.st120{fill:#754A39;}
	.st121{fill:#F7B06E;}
	.st122{fill:#424242;}
	.st123{fill:#10100F;}
	.st124{fill:#DEC5DB;}
	.st125{fill:#594877;}
	.st126{fill:#9F8EBC;}
	.st127{fill:#79679C;}
	.st128{fill:#594878;}
	.st129{fill:#ECE3EE;}
	.st130{fill:#F8ACD4;}
	.st131{fill:#D989B4;}
	.st132{fill:#A4DB9B;}
	.st133{fill:#9E9E9E;}
	.st134{fill:#1C421C;}
	.st135{fill:#19431E;}
	.st136{fill:#13431F;}
	.st137{fill:#F9E8F1;}
	.st138{fill:#D4D4D4;}
	.st139{fill:#EA68B3;}
	.st140{fill:#BF5493;}
	.st141{fill:#F9B9D6;}
	.st142{fill:#D991AE;}
	.st143{fill:#F1B3CC;}
	.st144{fill:#F6B9D2;}
	.st145{fill:#212121;}
	.st146{fill:#F3B3D1;}
	.st147{fill:#BA759B;}
</style>
<g id="背景">
</g>
<g id="ガイド線" class="st0">
</g>
<g id="文字">
</g>
<g id="影">
</g>
<g id="レイヤー_6">
	<g id="レイヤー_8">
	</g>
	<path class="st44" d="M292.3,83.98l-44.32,83.81c-1.09,2.06,0.29,4.56,2.62,4.73l75.93,5.57c2.32,0.17,4.06-2.1,3.28-4.3
		L298.2,84.41C297.26,81.76,293.62,81.49,292.3,83.98z"/>
	<path class="st46" d="M159.86,223.97c16.99,2.6,33.57-7.24,45.73-19.4c12.15-12.16,21.58-26.92,34.43-38.34
		c31.76-28.24,78.42-31.34,120.76-27.71c39.31,3.37,80.9,12.71,108.09,41.3c28.33,29.8,34.85,73.79,37.34,114.83
		c3.89,64.32,1.28,129.03-7.79,192.82c-4.84,34.04-13.47,71.08-41.11,91.53c-20.93,15.48-48.4,18.03-74.35,20.04
		c-61.6,4.78-123.2,9.55-184.79,14.33c-24.18,1.87-48.82,3.72-72.41-1.88c-23.59-5.6-57.78-18.03-56-42.21
		c1.79-24.35-1.75-52.39,20.32-62.42c17.8-8.09,38.41-1.95,57.38,2.77c18.97,4.72,41.48,7.08,55.83-6.2
		c19.68-18.22,16.83-52.39,11.85-78.74c-9.81-51.89-0.3-105.74,35.75-144.33c-20.42,18.51-54.17,20.03-76.18,3.43
		C152.7,267.19,144.9,234.31,159.86,223.97z"/>
	<path class="st47" d="M174.7,283.79c22,16.6,41.8,13.24,43.73,11.02c-15.94,55.87-10.45,75.62-10.45,129.88
		c6.68-2.47,13.29-5.16,19.79-8.08c33.25-14.92,63.93-35.39,90.73-60.06c26.63-24.52,49.37-53.22,67-84.85
		c-6.79-7.72-14.38-14.69-22.65-20.79c-29.79-21.97-68.17-33.5-105.14-28.97c-0.8,0.1-1.55-0.34-1.72-1.15
		c-3.53-16.53-15.08-31.78-29.86-39.96c-6.76,7.99-13.15,16.35-20.54,23.74c-12.15,12.16-28.73,22-45.73,19.4
		C144.9,234.31,152.7,267.19,174.7,283.79z"/>
	<circle class="st46" cx="155.15" cy="229.09" r="17.25"/>
	<path class="st46" d="M377.54,249.49c-21.02,25.74-117.04,129.95-142.33,151.5c-25.29,21.55-55.22,38.73-88,44.16
		c-4.48,0.74-9.12,1.3-13.1,3.48c-8.88,4.84-12.01,16.6-9.9,26.49c2.11,9.89,8.27,18.34,14.28,26.47
		c12.48,16.87,29.37,35.69,50.11,32.47c11.11-1.72,20.13-9.62,28.36-17.27c46.26-42.98,167.96-195.1,208-243.93
		C401.68,261.4,379.81,268.03,377.54,249.49z"/>
	<path class="st48" d="M345.27,380.62c-41.32,41.72-82.65,83.45-123.97,125.17c-9.16,9.25-18.83,18.82-31.24,22.77
		c-12.41,3.95-28.32,0.18-33.77-11.65c5.9,14.22,24.25,19.79,39.21,16.13c14.96-3.65,27.17-14.16,38.47-24.62
		C277.76,467.91,317.43,422.95,345.27,380.62z"/>
	<path class="st46" d="M543.81,148.7l-93.48,15.83c-2.3,0.39-3.44,3.01-2.16,4.95l41.78,63.65c1.28,1.95,4.13,1.94,5.4-0.01
		l51.69-79.48C548.59,151.29,546.59,148.23,543.81,148.7z"/>
	<path class="st49" d="M519.01,163.62l-42.73,7.23c-2.3,0.39-3.44,3.01-2.16,4.95l19.1,29.09c1.28,1.95,4.13,1.94,5.4-0.01
		l23.63-36.33C523.78,166.21,521.78,163.15,519.01,163.62z"/>
	
		<ellipse transform="matrix(0.6225 -0.7826 0.7826 0.6225 -89.5398 265.8286)" class="st50" cx="230.77" cy="225.73" rx="5.29" ry="10.57"/>
	
		<ellipse transform="matrix(0.069 -0.9976 0.9976 0.069 19.9899 520.4077)" class="st50" cx="288.81" cy="249.49" rx="5.29" ry="10.57"/>
	<path class="st48" d="M401.56,598.24c22.94-30.93,34.44-70.15,31.84-108.57C442.86,526.88,433.35,568.4,401.56,598.24z"/>
	<path class="st48" d="M457.87,489.1c0.12-1.32,1.06-2.45,2.35-2.8c37.36-10.21,77.09-11.64,115.08-4.11
		c16.32,3.23,34,9.4,41.74,24.13c5.34,10.16,4.79,22.4,8.7,33.19c6.3,17.38,23.67,28.84,41.66,33.07
		c11.28,2.65,22.87,2.93,34.49,2.32c3.57-0.19,4.68,4.73,1.37,6.07l-14.62,5.9c-2.45,0.99-2.7,4.41-0.4,5.69
		c4.21,2.34,8.67,4.21,13.28,5.59c3.11,0.93,2.91,5.4-0.26,6.09l-17.11,3.71c-3.19,0.69-3.37,5.18-0.23,6.12l9.45,2.82
		c3.19,0.95,2.93,5.55-0.34,6.14c-32.32,5.87-64.94,10.94-97.67,9.13c-37.11-2.05-74.95-13.86-101.62-39.75
		C467.59,567.03,454.6,526.51,457.87,489.1z"/>
	<path class="st48" d="M456.77,177.55c13.01,11.91,22.59,27.53,27.31,44.53C475.24,207.81,465.73,193.96,456.77,177.55z"/>
	<path class="st48" d="M268.82,148.4c12.23-6.43,26.23-9.85,40.02-8.91c-7.59-2.68-16-0.58-23.8,1.4
		C277.24,142.88,269.95,145.14,268.82,148.4z"/>
</g>
<g id="レイヤー_9">
</g>
<g id="レイヤー_7">
</g>
</svg>
