<?xml version="1.0" encoding="UTF-8"?>
<svg xmlns="http://www.w3.org/2000/svg" width="719.81" height="719.81" viewBox="0 0 719.81 719.81">
  <defs>
    <style>
      .cls-1 {
        fill: none;
        stroke: #393f3f;
        stroke-linecap: round;
        stroke-miterlimit: 10;
        stroke-width: 7px;
      }

      .cls-2 {
        fill: #f4c78c;
      }

      .cls-3 {
        fill: #ff7676;
      }

      .cls-4 {
        fill: #393f3f;
      }

      .cls-5 {
        fill: #f9f6e9;
      }

      .cls-6 {
        isolation: isolate;
      }

      .cls-7 {
        fill: #dddee1;
        mix-blend-mode: multiply;
      }

      .cls-8 {
        fill: #f5f4e7;
      }

      .cls-9 {
        fill: #e4c39d;
      }

      .cls-10 {
        fill: #e2c39e;
      }

      .cls-11 {
        fill: #dd9bc1;
      }

      .cls-12 {
        fill: #d6af7f;
      }

      .cls-13 {
        fill: #db943e;
      }

      .cls-14 {
        fill: #ffb8e2;
      }
    </style>
  </defs>
  <g class="cls-6">
    <g id="_レイヤー_6" data-name="レイヤー 6">
      <g>
        <g>
          <path class="cls-13" d="M257.65,335.57c-53.07,66.27-86.24,155.36-90.5,244.19-.3,6.29,3.67,11.27,8.87,10.95l93.03-5.81c5.45-.34,9.79-6.33,9.33-12.83-5.18-72.64-7.04-146.42-5.25-229.7.21-9.85-9.58-14.15-15.47-6.79Z"/>
          <path class="cls-9" d="M259.24,410.34c-10.57-1.42-21.23-2.16-31.89-2.22-5.26-.03-10.52.11-15.77.42.69-1.4,1.38-2.81,2.09-4.2,9.31-.96,18.7-1.17,28.04-.6,10.38.63,20.69,2.25,30.77,4.8,0,1.32.01,2.63.02,3.95-4.4-.83-8.82-1.55-13.25-2.14Z"/>
          <path class="cls-9" d="M256.68,454.18c-12.9-2.86-26.13-4.21-39.34-4.02-8.15.11-16.28.82-24.33,2.1.44-1.21.87-2.43,1.32-3.64,1.62-.25,3.24-.48,4.86-.68,13.87-1.7,27.94-1.74,41.81-.13,10.85,1.26,21.58,3.56,32,6.87.03,1.36.07,2.7.1,4.05-5.39-1.79-10.87-3.31-16.42-4.54Z"/>
          <path class="cls-10" d="M256.28,511.53c-7.74-2.46-15.66-4.37-23.67-5.73-8.02-1.36-16.13-2.17-24.25-2.42-8.11-.24-16.24.07-24.3.97-2.2.24-4.39.54-6.58.87.2-.87.38-1.74.58-2.61.47-.07.95-.16,1.42-.23,8.24-1.23,16.56-1.93,24.89-2.12,8.31-.19,16.64.12,24.91.95,8.36.83,16.67,2.19,24.86,4.06,7.01,1.6,13.93,3.6,20.72,5.95.11,2.55.24,5.08.36,7.62-6.17-2.8-12.49-5.25-18.95-7.3Z"/>
        </g>
        <g>
          <path class="cls-7" d="M278.38,572.06c-5.18-72.64-7.04-146.42-5.25-229.7.21-9.85-9.58-14.15-15.47-6.79-17.24,21.52-32.36,45.46-45.09,71.01-3.51,11.25-6.22,22.75-8.1,34.39-2.43,14.97-3.51,30.16-3.28,45.33.23,15.11,1.75,30.2,4.55,45.05,2.79,14.85,6.85,29.45,12.14,43.61,1.61,4.32,3.36,8.59,5.2,12.82l45.99-2.87c5.45-.34,9.79-6.33,9.33-12.83Z"/>
          <path class="cls-9" d="M272.48,408.53c-10.08-2.55-20.39-4.16-30.77-4.8-9.34-.57-18.73-.36-28.04.6-.37.74-.74,1.48-1.1,2.22-.2.65-.41,1.31-.61,1.96,5.12-.29,10.26-.43,15.39-.4,10.66.06,21.32.8,31.89,2.22,4.44.6,8.85,1.31,13.25,2.14,0-1.32-.01-2.63-.02-3.95Z"/>
          <path class="cls-9" d="M202.39,447.59c-1.07.11-2.13.21-3.19.34-1.63.2-3.25.44-4.87.68-.45,1.21-.88,2.43-1.32,3.64,2.97-.47,5.95-.84,8.93-1.15.14-1.17.29-2.34.45-3.51Z"/>
          <path class="cls-9" d="M273.01,454.67c-10.42-3.3-21.15-5.6-32-6.87-12.44-1.44-25.04-1.55-37.51-.33-.16,1.17-.31,2.34-.45,3.52,4.75-.47,9.52-.76,14.29-.83,13.21-.19,26.45,1.16,39.34,4.02,5.55,1.23,11.03,2.75,16.42,4.54-.03-1.35-.07-2.69-.1-4.05Z"/>
          <path class="cls-10" d="M200.69,500.39c-7.1.29-14.19.94-21.22,1.98-.47.07-.95.16-1.42.23-.2.87-.38,1.74-.58,2.61,2.19-.33,4.38-.62,6.58-.87,5.59-.62,11.22-.94,16.84-1.01-.08-.98-.14-1.96-.2-2.94Z"/>
          <path class="cls-10" d="M274.86,511.21c-6.8-2.35-13.71-4.35-20.72-5.95-8.19-1.87-16.5-3.23-24.86-4.06-8.27-.82-16.6-1.14-24.91-.95-.86.02-1.72.07-2.58.1.07.99.13,1.97.2,2.96,2.12-.01,4.25,0,6.37.07,8.13.25,16.24,1.06,24.25,2.42,8.01,1.36,15.92,3.27,23.67,5.73,6.46,2.05,12.78,4.5,18.95,7.3-.12-2.54-.25-5.07-.36-7.62Z"/>
        </g>
        <path class="cls-2" d="M481.87,345.09c28.11,92.34,25.58,192.91-7.12,283.88-2.15,5.99-8.27,9.95-14.91,9.38-21.21-1.81-44.68-.8-64.17.13-7.11.34-13.43-4.28-14.92-10.9-2.56-11.42-4.51-21.64-4.38-33.78.08-7.66-6.23-13.97-14.29-14.12-5.79-.11-10.64-.37-16.19-.45-7.88-.11-14.35,5.73-14.76,13.21-.67,12.15-3.38,26.22-7.57,40.27-1.58,5.28-6.32,9.17-12.04,9.92-21.26,2.79-42.59,2.64-63.2-.91-4.84-.84-8.89-3.94-10.85-8.23-17.15-37.47-23.2-79.55-24.88-120.7-1.77-43.34.88-86.92-1.25-125.27-.03-.55-.1-1.1-.21-1.64-2.36-12.42-2.31-25.25.11-37.66,1.35-6.89,8.05-11.64,15.41-11.12,40.16,2.82,77.59,31.92,118.33,28.1,33.12-3.11,60.47-27.46,122.39-30.17,6.69-.29,12.63,3.95,14.49,10.06Z"/>
        <path class="cls-12" d="M456.93,358.42c1.78,83.28-.07,157.06-5.25,229.7-.46,6.5,3.88,12.49,9.33,12.83l22.38,1.4c21.36-73.65,23.6-152.28,6.54-226.94-5.57-8.2-11.4-16.15-17.51-23.78-5.9-7.36-15.69-3.06-15.47,6.79Z"/>
        <path class="cls-13" d="M475.98,347.25c53.07,66.27,86.24,155.36,90.5,244.19.3,6.29-3.67,11.27-8.87,10.95l-93.03-5.81c-5.45-.34-9.79-6.33-9.33-12.83,5.18-72.64,7.04-146.42,5.25-229.7-.21-9.85,9.58-14.15,15.47-6.79Z"/>
        <path class="cls-13" d="M461.15,419.15c5.17-1.3,10.39-2.37,15.66-3.16,11.36-1.72,22.89-2.28,34.36-1.69,2.75.14,5.49.35,8.22.63-12.37-24.3-26.94-47.09-43.42-67.67-5.9-7.36-15.68-3.06-15.47,6.79.48,22.34.69,43.98.65,65.11Z"/>
        <path class="cls-9" d="M474.38,422.02c10.57-1.42,21.23-2.16,31.89-2.22,5.26-.03,10.52.11,15.77.42-.69-1.4-1.38-2.81-2.09-4.2-9.31-.96-18.7-1.17-28.04-.6-10.38.63-20.69,2.25-30.77,4.8,0,1.32-.01,2.63-.02,3.95,4.4-.83,8.82-1.55,13.25-2.14Z"/>
        <path class="cls-9" d="M476.94,465.86c12.9-2.86,26.13-4.21,39.34-4.02,8.15.11,16.28.82,24.33,2.1-.44-1.21-.87-2.43-1.32-3.64-1.62-.25-3.24-.48-4.86-.68-13.87-1.7-27.94-1.74-41.81-.13-10.85,1.26-21.58,3.56-32,6.87-.03,1.36-.07,2.7-.1,4.05,5.39-1.79,10.87-3.31,16.42-4.54Z"/>
        <path class="cls-10" d="M477.35,523.21c7.74-2.46,15.66-4.37,23.67-5.73,8.02-1.36,16.13-2.17,24.25-2.42,8.11-.24,16.24.07,24.3.97,2.2.24,4.39.54,6.58.87-.2-.87-.38-1.74-.58-2.61-.47-.07-.95-.16-1.42-.23-8.24-1.23-16.56-1.93-24.89-2.12-8.31-.19-16.64.12-24.91.95-8.36.83-16.67,2.19-24.86,4.06-7.01,1.6-13.93,3.6-20.72,5.95-.11,2.55-.24,5.08-.36,7.62,6.17-2.8,12.49-5.25,18.95-7.3Z"/>
        <g>
          <path class="cls-2" d="M233.5,231.01c-34.48-11.37-57.12-45.51-60.05-80.09-2.92-34.58,11.28-68.89,32.32-97.24,7.19-9.69,18.61-19.89,30.42-16.05,6.7,2.18,10.96,8.3,14.64,14.05,19,29.7,36.46,60.58,47.37,93.76,6.88,20.93,10.94,44.27,1.6,64.33-9.33,20.06-35.59,31.37-66.3,21.25Z"/>
          <path class="cls-14" d="M234.69,210.96c-27.22-8.98-45.1-35.93-47.41-63.23-2.31-27.3,8.9-54.39,25.51-76.77,5.68-7.65,14.69-15.7,24.01-12.67,5.29,1.72,8.65,6.55,11.56,11.09,15,23.45,28.78,47.83,37.39,74.02,5.43,16.53,8.64,34.95,1.27,50.78-7.37,15.83-28.1,24.77-52.34,16.77Z"/>
          <path class="cls-14" d="M210.57,152.99c6.38-6.5,13.78-12.03,21.85-16.27,4.03-2.12,8.23-3.91,12.55-5.35,2.34-.78,4.81-1.26,7.23-1.7,2.44-.45,4.9-.79,7.36-1.04,6.95-.69,13.99-.53,20.92.42-8.47-20.83-19.88-40.56-32.11-59.67-2.91-4.54-6.26-9.37-11.56-11.09-9.32-3.03-18.33,5.02-24.01,12.67-16.61,22.38-27.82,49.47-25.51,76.77.79,9.39,3.43,18.73,7.65,27.32,3.94-8.15,9.3-15.61,15.63-22.07Z"/>
          <path class="cls-11" d="M280.92,130.18c-8.22-1.2-16.62-1.23-24.84-.08-2.45.34-4.89.79-7.3,1.34-2.31.53-4.53,1.24-6.75,2.08-4.21,1.6-8.28,3.55-12.17,5.8-7.81,4.52-14.91,10.27-20.96,16.96-5.39,5.96-9.93,12.69-13.36,19.96,8.13,15.86,21.72,28.98,39.15,34.72,24.24,7.99,44.97-.94,52.34-16.77,7.37-15.83,4.17-34.26-1.27-50.78-1.47-4.46-3.09-8.87-4.84-13.23Z"/>
        </g>
        <g>
          <path class="cls-2" d="M474.8,231.01c34.48-11.37,57.12-45.51,60.05-80.09,2.92-34.58-11.28-68.89-32.32-97.24-7.19-9.69-18.61-19.89-30.42-16.05-6.7,2.18-10.96,8.3-14.64,14.05-19,29.7-36.46,60.58-47.37,93.76-6.88,20.93-10.94,44.27-1.6,64.33,9.33,20.06,35.59,31.37,66.3,21.25Z"/>
          <path class="cls-14" d="M473.61,210.96c27.22-8.98,45.1-35.93,47.41-63.23,2.31-27.3-8.9-54.39-25.51-76.77-5.68-7.65-14.69-15.7-24.01-12.67-5.29,1.72-8.65,6.55-11.56,11.09-15,23.45-28.78,47.83-37.39,74.02-5.43,16.53-8.64,34.95-1.27,50.78,7.37,15.83,28.1,24.77,52.34,16.77Z"/>
          <path class="cls-14" d="M428.67,130.58c8.15.21,16.27,1.23,24.22,3,7.9,1.76,15.63,4.27,23.08,7.43,7.43,3.15,14.57,6.98,21.32,11.4,6.67,4.38,12.95,9.34,18.73,14.84.16.16.32.32.48.48,2.4-6.47,3.94-13.23,4.51-20.01,2.31-27.3-8.9-54.39-25.51-76.77-5.68-7.65-14.69-15.7-24.01-12.67-5.29,1.72-8.65,6.55-11.56,11.09-12.52,19.57-24.18,39.8-32.71,61.18.48,0,.96,0,1.45.02Z"/>
          <path class="cls-11" d="M513.14,166.02c-5.87-5.34-12.22-10.13-18.95-14.33-6.81-4.25-14-7.91-21.46-10.87-7.45-2.97-15.17-5.26-23.04-6.82-7.53-1.49-15.2-2.29-22.88-2.37-1.53,3.89-2.97,7.82-4.27,11.79-5.43,16.53-8.64,34.95-1.27,50.78,7.37,15.83,28.1,24.77,52.34,16.77,20.08-6.62,35.07-23.03,42.48-42.14-.98-.94-1.95-1.89-2.95-2.81Z"/>
        </g>
        <ellipse class="cls-8" cx="356.53" cy="472.2" rx="59.44" ry="70.97"/>
        <path class="cls-2" d="M185.44,381.37c23.18-5.68,46.63-10.21,70.26-13.55,29.09-4.12,58.43-6.5,87.81-7.13,14.82-.32,29.65-.19,44.46.38,14.59.56,29.36,1.2,43.86,3.02,26.28,3.29,52.77,7.08,76.15,20.18,26.37-3.19,41.8-17.18,41.8-56.63,0-91.21-88.75-165.16-198.23-165.16s-198.23,73.94-198.23,165.16c0,32.28,11.9,47.52,32.12,53.73Z"/>
        <path class="cls-5" d="M526.03,381.93c-9.93-4.52-19.53-9.77-28.7-15.68-17.18-11.08-32.88-24.42-46.68-39.49-13.8-15.07-25.73-31.86-35.34-49.89-9.57-17.94-16.85-37.12-21.36-56.95-4.05-17.85-5.81-36.21-5.07-54.49-12.09-1.92-24.57-2.94-37.34-2.94-109.48,0-198.23,73.94-198.23,165.16,0,24.46,6.83,39.13,18.94,47.51-2.79,6-5.24,11.86-7.6,17.67-1.18,2.92,1.04,6.08,4.32,6.15,15.99.35,32.06-3.29,46.18-10.43,3.32-1.68,7.26.98,6.84,4.53l-1.21,10.13c-.32,2.68,1.89,5.03,4.73,5.03,21.71.07,43.32-8.51,58.62-23.13,2.87-2.75,7.88-.9,8.05,2.97.14,3.21-.32,6.45-1.37,9.51-1.23,3.6,2.39,6.97,6.13,5.65,15.36-5.39,33.48-17.77,46.8-29,2.5-.08,5.01-.14,7.52-.18,13.34,11.28,31.58,23.76,47.02,29.18,3.74,1.31,7.36-2.05,6.13-5.65-1.04-3.06-1.51-6.3-1.37-9.51.17-3.87,5.18-5.71,8.05-2.97,15.3,14.62,36.92,23.2,58.63,23.13,2.84,0,5.05-2.35,4.73-5.03l-1.21-10.13c-.43-3.56,3.51-6.21,6.84-4.53,14.12,7.14,30.19,10.78,46.18,10.43,3.29-.07,5.51-3.24,4.32-6.15-1.46-3.6-2.97-7.22-4.56-10.88Z"/>
        <path class="cls-2" d="M169.62,373.15c21.66-3.8,42.67-11.19,62.04-21.59,19.29-10.36,36.99-23.71,52.07-39.58,7.54-7.94,14.43-16.5,20.51-25.61,6.5-9.74,12.45-19.7,17.37-30.34,9.82-21.26,15.88-44.26,17.76-67.6.69-8.53.8-17.1.36-25.64-103.98,5.09-186.41,76.95-186.41,164.86,0,22.62,5.85,36.87,16.31,45.51Z"/>
        <ellipse class="cls-4" cx="305.25" cy="286.84" rx="9.93" ry="9.44"/>
        <ellipse class="cls-4" cx="415.97" cy="288.68" rx="9.93" ry="9.44"/>
        <path class="cls-3" d="M352.08,292.98c-.36,4.74-2.81,9.06-3.73,13.73-.92,4.66.45,10.53,4.95,12.07,2.5.85,5.26.11,7.65-1.01,9.64-4.5,15.88-15.41,14.87-26-4.32-2.72-7.85-6.67-10.07-11.26-4.08,3.78-8.17,7.56-13.66,12.47Z"/>
        <path class="cls-4" d="M360.35,273.17l-1.3,1.51c-3.08,3.58-.54,9.12,4.19,9.12h2.6c4.72,0,7.27-5.54,4.19-9.12l-1.3-1.51c-2.2-2.56-6.17-2.56-8.37,0Z"/>
        <path class="cls-1" d="M347.58,293.95c5.81-4.51,8.73-6.65,16.64-12.33,4.43,4.42,9.44,9.69,13.86,14.12"/>
      </g>
    </g>
  </g>
</svg>