<?xml version="1.0" encoding="utf-8"?>
<!-- Generator: Adobe Adobe Illustrator 24.2.0, SVG Export Plug-In . SVG Version: 6.00 Build 0)  -->
<svg version="1.1" xmlns="http://www.w3.org/2000/svg" xmlns:xlink="http://www.w3.org/1999/xlink" x="0px" y="0px"
	 width="719.81px" height="719.81px" viewBox="0 0 719.81 719.81" style="enable-background:new 0 0 719.81 719.81;"
	 xml:space="preserve">
<style type="text/css">
	.st0{display:none;}
	.st1{fill:#CFCFCF;}
	.st2{fill:#F0DAB3;}
	.st3{fill:#F7C8DE;}
	.st4{fill:#F4C9D9;}
	.st5{fill:#BBE6AF;}
	.st6{fill:#97B58D;}
	.st7{fill:#FFFFFF;}
	.st8{fill:#DE985F;}
	.st9{fill:#F8C79C;}
	.st10{fill:#F4C79C;}
	.st11{fill:#F3B380;}
	.st12{fill:#F8F1E0;}
	.st13{fill:#ECD9B3;}
	.st14{fill:#EEDAB3;}
	.st15{fill:#363636;}
	.st16{fill:#FB7C7D;}
	.st17{fill:#F8B7B8;}
	.st18{fill:#F2D994;}
	.st19{fill:#F5D994;}
	.st20{fill:#A8D7A2;}
	.st21{fill:#A7D5A1;}
	.st22{fill:#9DD394;}
	.st23{fill:#35AC53;}
	.st24{fill:#34AB52;}
	.st25{fill:#80CA3B;}
	.st26{fill:#A7D4A1;}
	.st27{fill:#6B9466;}
	.st28{fill:#F9FCEA;}
	.st29{fill:#113B1D;}
	.st30{fill:#F9D6E5;}
	.st31{fill:#EEC0D2;}
	.st32{fill:#EDC0D0;}
	.st33{fill:#F5F6E6;}
	.st34{fill:#F7B280;}
	.st35{fill:#F9F7E6;}
	.st36{fill:#303030;}
	.st37{fill:#F88E91;}
	.st38{fill:none;stroke:#303030;stroke-width:7;stroke-linecap:round;stroke-miterlimit:10;}
	.st39{fill:#DEB781;}
	.st40{fill:#ECC38C;}
	.st41{fill:#E0BC89;}
	.st42{fill:none;stroke:#303030;stroke-width:4;stroke-linecap:round;stroke-miterlimit:10;}
	.st43{fill:#D6D6D6;}
	.st44{fill:#5987B0;}
	.st45{fill:#E8B384;}
	.st46{fill:#4F84B8;}
	.st47{fill:#B4D3E6;}
	.st48{fill:#3A5F82;}
	.st49{fill:#99BDD7;}
	.st50{fill:#464747;}
	.st51{fill:#D6A172;}
	.st52{fill:#94661B;}
	.st53{fill:none;}
	.st54{fill:#F2BD8F;}
	.st55{fill:#F8EDD9;}
	.st56{fill:#BF8667;}
	.st57{fill:#4D4D4D;}
	.st58{fill:none;stroke:#734318;stroke-width:4;stroke-linecap:round;stroke-miterlimit:10;}
	.st59{fill:#8F633D;}
	.st60{fill:#EBB98D;}
	.st61{fill:#BF8654;}
	.st62{fill:#F898B8;}
	.st63{fill:#F1A5BC;}
	.st64{fill:#FBD6E1;}
	.st65{fill:none;stroke:#916137;stroke-width:2;stroke-linecap:round;stroke-miterlimit:10;}
	.st66{fill:#F6D5B0;}
	.st67{fill:#BE8567;}
	.st68{fill:#F2C757;}
	.st69{fill:#F2F6F7;}
	.st70{fill:#EFC657;}
	.st71{fill:#DBDBDB;}
	.st72{fill:#F3F5F5;}
	.st73{fill:none;stroke:#F7C44C;stroke-width:7;stroke-miterlimit:10;}
	.st74{fill:none;stroke:#4A4A4A;stroke-width:7;stroke-miterlimit:10;}
	.st75{fill:#7A3131;}
	.st76{fill:#F97273;}
	.st77{fill:#F8B4B5;}
	.st78{fill:#F57073;}
	.st79{fill:#383838;}
	.st80{fill:#B34B4D;}
	.st81{fill:#595959;}
	.st82{fill:#C9E2EE;}
	.st83{fill:#13162E;}
	.st84{fill:#F3755E;}
	.st85{fill:#3C3F63;}
	.st86{fill:#F8BB5D;}
	.st87{fill:#F1755E;}
	.st88{fill:#F7BB5D;}
	.st89{fill:#F0755E;}
	.st90{fill:#3B4063;}
	.st91{fill:#FABC5E;}
	.st92{fill:#F4755E;}
	.st93{fill:#9E577C;}
	.st94{fill:#C92A0F;}
	.st95{fill:#292929;}
	.st96{fill:#F9AFD6;}
	.st97{fill:none;stroke:#F0755E;stroke-width:15;stroke-miterlimit:10;}
	.st98{fill:#D691B2;}
	.st99{fill:#F9DDE9;}
	.st100{fill:#997485;}
	.st101{fill:none;stroke:#5F3048;stroke-width:8;stroke-linecap:round;stroke-miterlimit:10;}
	.st102{fill:#E3E1E1;}
	.st103{fill:#BFBFBF;}
	.st104{fill:#A19D9E;}
	.st105{fill:#F0F0F0;}
	.st106{fill:#949494;}
	.st107{fill:#5F3048;}
	.st108{fill:#9E9898;}
	.st109{opacity:0.3412;fill:#525252;}
	.st110{fill:#EBEBEB;}
	.st111{fill:#242424;}
	.st112{fill:#3D3D3D;}
	.st113{fill:#525252;}
	.st114{fill:#4D3125;}
	.st115{fill:#F5CE53;}
	.st116{fill:#F1CE54;}
	.st117{fill:#F9F6D9;}
	.st118{fill:none;stroke:#000000;stroke-width:7;stroke-linecap:round;stroke-miterlimit:10;}
	.st119{fill:#EDEDED;}
	.st120{fill:#754A39;}
	.st121{fill:#F7B06E;}
	.st122{fill:#424242;}
	.st123{fill:#10100F;}
	.st124{fill:#DEC5DB;}
	.st125{fill:#594877;}
	.st126{fill:#9F8EBC;}
	.st127{fill:#79679C;}
	.st128{fill:#594878;}
	.st129{fill:#ECE3EE;}
	.st130{fill:#F8ACD4;}
	.st131{fill:#D989B4;}
	.st132{fill:#A4DB9B;}
	.st133{fill:#9E9E9E;}
	.st134{fill:#1C421C;}
	.st135{fill:#19431E;}
	.st136{fill:#13431F;}
	.st137{fill:#F9E8F1;}
	.st138{fill:#D4D4D4;}
	.st139{fill:#EA68B3;}
	.st140{fill:#BF5493;}
	.st141{fill:#F9B9D6;}
	.st142{fill:#D991AE;}
	.st143{fill:#F1B3CC;}
	.st144{fill:#F6B9D2;}
	.st145{fill:#212121;}
	.st146{fill:#F3B3D1;}
	.st147{fill:#BA759B;}
</style>
<g id="背景">
</g>
<g id="ガイド線" class="st0">
</g>
<g id="文字">
</g>
<g id="影">
</g>
<g id="レイヤー_6">
	<g id="レイヤー_8">
	</g>
	<path class="st111" d="M168.86,381.15c-40.55,61.64-44.45,145.55-9.79,210.68c4.66,8.75,9.88,19.83,3.96,27.79
		c-3.03,4.08-8.75,6.76-9.06,11.83c-0.42,7.03,9.22,9.35,16.26,9.18c22.92-0.56,45.84-1.12,68.7-0.61
		c5.4,0.12,10.39-2.96,12.62-7.88c24.02-52.96,33.67-112.38,27.54-170.22c-1.48-13.96-4.05-28.32-11.94-39.93
		c-9.11-13.4-24.41-21.58-40.17-25.34S194.83,393.04,168.86,381.15z"/>
	<path class="st111" d="M599.25,617.4c-96.23-7.52-194.53-3.43-283.59-40.64c-34.6-14.45-68.74-33.11-92.12-62.42
		s-33.89-71.29-13.93-111.16c58.1-33.65,122.71-56.03,194.04-68.96c42.21-14.17,141.85,54.79,167.01,91.52
		c86.35,7.33,109.75,96.27,74.02,171.22C637.6,611.82,621.5,619.13,599.25,617.4z"/>
	<path class="st112" d="M604.94,592.78c-31.98-8.74-62.63-22.43-90.39-40.56c-13.85-9.04-26.99-19.19-39.19-30.36
		c-12.65-11.57-24.04-24.38-35.66-36.95c-21.66-23.43-46.23-48.53-78.72-55.15c-26.52-5.4-57.92,1.25-71.98,26.48
		c-0.16,0.29-0.55,0.31-0.79,0.1c-5.88-5.36-12.41-9.95-19.41-13.72c-20.66-11.11-45.44-15.42-68.5-10.73
		c-4.88,30.47,5.45,60.12,23.24,82.43c23.38,29.32,57.52,47.97,92.12,62.42c89.07,37.2,187.36,33.12,283.59,40.64
		c20.29,1.58,35.45-4.38,43.34-16.72C629.9,598.8,617.32,596.16,604.94,592.78z"/>
	<ellipse class="st113" cx="88.29" cy="224.41" rx="30" ry="43.43"/>
	<ellipse class="st113" cx="448.46" cy="207.07" rx="30" ry="43.43"/>
	<path class="st111" d="M88.29,279.82c0-94.82,81.72-230.49,185-230.49s189,135.67,189,230.49s-85.72,127.75-189,127.75
		S88.29,374.65,88.29,279.82z"/>
	<path class="st113" d="M170.81,308.49c0-52.98,45.66-128.78,103.36-128.78s105.59,75.8,105.59,128.78s-47.89,71.37-105.59,71.37
		S170.81,361.46,170.81,308.49z"/>
	<ellipse class="st113" cx="275.29" cy="236" rx="124.5" ry="66.8"/>
	<path class="st118" d="M192.9,228.07c49.47,11.75,101.86,10.96,150.95-2.26"/>
	<ellipse cx="231.7" cy="244.08" rx="12.5" ry="13"/>
	<ellipse cx="308.23" cy="244.08" rx="12.5" ry="13"/>
	<path class="st111" d="M332.31,394.45c-40.55,61.64-44.45,145.55-9.79,210.68c4.66,8.75,9.88,19.83,3.96,27.79
		c-3.03,4.08-8.75,6.76-9.06,11.83c-0.42,7.03,9.22,9.35,16.26,9.18c22.92-0.56,45.84-1.12,68.7-0.61
		c5.4,0.12,10.39-2.96,12.62-7.88c24.02-52.96,33.67-112.38,27.54-170.22c-1.48-13.96-4.05-28.32-11.94-39.93
		c-9.11-13.4-24.41-21.58-40.17-25.34C374.67,406.17,358.28,406.34,332.31,394.45z"/>
	<path class="st111" d="M572.23,459.79c-52.39,9.27-62.74,97.92-47.16,158.06c1.77,6.81-3.13,13.9-7.89,14.71
		c-1.75,0.3-3.44,0.94-5.02,2.13c-4.22,3.18-6.82,11.91-3.88,17.38c2.14,3.98,6.03,4.52,9.48,4.74
		c39.56,2.57,79.12,5.14,118.69,7.72c3.57,0.23,6.93-2.73,8.53-7.63c14.12-43.41,19.02-93.25,13.73-140.75
		c-1.96-17.55-5.91-36.2-15.82-46.4c-18.23-18.77-44.06,1.4-61-11.33C578.74,456.05,575.7,459.17,572.23,459.79z"/>
	<path class="st123" d="M533.37,515.85c-15.83,31.09-18.52,68.63-7.27,101.66C509.49,585.32,510.86,544.55,533.37,515.85z"/>
	<path d="M248.82,282.2c-1.54,0-2.85-1.18-2.98-2.74c-0.54-6.11,1.71-12.46,6.16-17.42c4.45-4.96,10.52-7.88,16.65-8.01
		c6.12-0.12,12.31,2.54,16.97,7.31c4.65,4.77,7.16,11.02,6.87,17.15c-0.08,1.66-1.46,2.95-3.14,2.86c-1.66-0.08-2.93-1.48-2.86-3.14
		c0.21-4.47-1.68-9.09-5.17-12.68c-3.42-3.51-7.87-5.5-12.25-5.5c-0.1,0-0.2,0-0.3,0c-4.47,0.09-8.96,2.29-12.3,6.02
		c-3.35,3.73-5.04,8.43-4.65,12.88c0.15,1.65-1.07,3.11-2.72,3.25C249,282.2,248.91,282.2,248.82,282.2z"/>
	<path d="M268.24,306.96c-15.93,0-31.85-3.7-45.8-11.2c-1.46-0.78-2.01-2.6-1.22-4.06c0.78-1.46,2.6-2.01,4.06-1.22
		c28.8,15.47,66.47,13.73,93.72-4.33c1.38-0.92,3.24-0.54,4.16,0.84s0.54,3.24-0.84,4.16C306.48,301.64,287.34,306.96,268.24,306.96
		z"/>
</g>
<g id="レイヤー_9">
</g>
<g id="レイヤー_7">
</g>
</svg>
