<?xml version="1.0" encoding="utf-8"?>
<!-- Generator: Adobe Adobe Illustrator 24.2.0, SVG Export Plug-In . SVG Version: 6.00 Build 0)  -->
<svg version="1.1" xmlns="http://www.w3.org/2000/svg" xmlns:xlink="http://www.w3.org/1999/xlink" x="0px" y="0px"
	 width="719.81px" height="719.81px" viewBox="0 0 719.81 719.81" style="enable-background:new 0 0 719.81 719.81;"
	 xml:space="preserve">
<style type="text/css">
	.st0{display:none;}
	.st1{fill:#CFCFCF;}
	.st2{fill:#F0DAB3;}
	.st3{fill:#F7C8DE;}
	.st4{fill:#F4C9D9;}
	.st5{fill:#BBE6AF;}
	.st6{fill:#97B58D;}
	.st7{fill:#FFFFFF;}
	.st8{fill:#DE985F;}
	.st9{fill:#F8C79C;}
	.st10{fill:#F4C79C;}
	.st11{fill:#F3B380;}
	.st12{fill:#F8F1E0;}
	.st13{fill:#ECD9B3;}
	.st14{fill:#EEDAB3;}
	.st15{fill:#363636;}
	.st16{fill:#FB7C7D;}
	.st17{fill:#F8B7B8;}
	.st18{fill:#F2D994;}
	.st19{fill:#F5D994;}
	.st20{fill:#A8D7A2;}
	.st21{fill:#A7D5A1;}
	.st22{fill:#9DD394;}
	.st23{fill:#35AC53;}
	.st24{fill:#34AB52;}
	.st25{fill:#80CA3B;}
	.st26{fill:#A7D4A1;}
	.st27{fill:#6B9466;}
	.st28{fill:#F9FCEA;}
	.st29{fill:#113B1D;}
	.st30{fill:#F9D6E5;}
	.st31{fill:#EEC0D2;}
	.st32{fill:#EDC0D0;}
	.st33{fill:#F5F6E6;}
	.st34{fill:#F7B280;}
	.st35{fill:#F9F7E6;}
	.st36{fill:#303030;}
	.st37{fill:#F88E91;}
	.st38{fill:none;stroke:#303030;stroke-width:7;stroke-linecap:round;stroke-miterlimit:10;}
	.st39{fill:#DEB781;}
	.st40{fill:#ECC38C;}
	.st41{fill:#E0BC89;}
	.st42{fill:none;stroke:#303030;stroke-width:4;stroke-linecap:round;stroke-miterlimit:10;}
	.st43{fill:#D6D6D6;}
	.st44{fill:#5987B0;}
	.st45{fill:#E8B384;}
	.st46{fill:#4F84B8;}
	.st47{fill:#B4D3E6;}
	.st48{fill:#3A5F82;}
	.st49{fill:#99BDD7;}
	.st50{fill:#464747;}
	.st51{fill:#D6A172;}
	.st52{fill:#94661B;}
	.st53{fill:none;}
	.st54{fill:#F2BD8F;}
	.st55{fill:#F8EDD9;}
	.st56{fill:#BF8667;}
	.st57{fill:#4D4D4D;}
	.st58{fill:none;stroke:#734318;stroke-width:4;stroke-linecap:round;stroke-miterlimit:10;}
	.st59{fill:#8F633D;}
	.st60{fill:#EBB98D;}
	.st61{fill:#BF8654;}
	.st62{fill:#F898B8;}
	.st63{fill:#F1A5BC;}
	.st64{fill:#FBD6E1;}
	.st65{fill:none;stroke:#916137;stroke-width:2;stroke-linecap:round;stroke-miterlimit:10;}
	.st66{fill:#F6D5B0;}
	.st67{fill:#BE8567;}
	.st68{fill:#F2C757;}
	.st69{fill:#F2F6F7;}
	.st70{fill:#EFC657;}
	.st71{fill:#DBDBDB;}
	.st72{fill:#F3F5F5;}
	.st73{fill:none;stroke:#F7C44C;stroke-width:7;stroke-miterlimit:10;}
	.st74{fill:none;stroke:#4A4A4A;stroke-width:7;stroke-miterlimit:10;}
	.st75{fill:#7A3131;}
	.st76{fill:#F97273;}
	.st77{fill:#F8B4B5;}
	.st78{fill:#F57073;}
	.st79{fill:#383838;}
	.st80{fill:#B34B4D;}
	.st81{fill:#595959;}
	.st82{fill:#C9E2EE;}
	.st83{fill:#13162E;}
	.st84{fill:#F3755E;}
	.st85{fill:#3C3F63;}
	.st86{fill:#F8BB5D;}
	.st87{fill:#F1755E;}
	.st88{fill:#F7BB5D;}
	.st89{fill:#F0755E;}
	.st90{fill:#3B4063;}
	.st91{fill:#FABC5E;}
	.st92{fill:#F4755E;}
	.st93{fill:#9E577C;}
	.st94{fill:#C92A0F;}
	.st95{fill:#292929;}
	.st96{fill:#F9AFD6;}
	.st97{fill:none;stroke:#F0755E;stroke-width:15;stroke-miterlimit:10;}
	.st98{fill:#D691B2;}
	.st99{fill:#F9DDE9;}
	.st100{fill:#997485;}
	.st101{fill:none;stroke:#5F3048;stroke-width:8;stroke-linecap:round;stroke-miterlimit:10;}
	.st102{fill:#E3E1E1;}
	.st103{fill:#BFBFBF;}
	.st104{fill:#A19D9E;}
	.st105{fill:#F0F0F0;}
	.st106{fill:#949494;}
	.st107{fill:#5F3048;}
	.st108{fill:#9E9898;}
	.st109{opacity:0.3412;fill:#525252;}
	.st110{fill:#EBEBEB;}
	.st111{fill:#242424;}
	.st112{fill:#3D3D3D;}
	.st113{fill:#525252;}
	.st114{fill:#4D3125;}
	.st115{fill:#F5CE53;}
	.st116{fill:#F1CE54;}
	.st117{fill:#F9F6D9;}
	.st118{fill:none;stroke:#000000;stroke-width:7;stroke-linecap:round;stroke-miterlimit:10;}
	.st119{fill:#EDEDED;}
	.st120{fill:#754A39;}
	.st121{fill:#F7B06E;}
	.st122{fill:#424242;}
	.st123{fill:#10100F;}
	.st124{fill:#DEC5DB;}
	.st125{fill:#594877;}
	.st126{fill:#9F8EBC;}
	.st127{fill:#79679C;}
	.st128{fill:#594878;}
	.st129{fill:#ECE3EE;}
	.st130{fill:#F8ACD4;}
	.st131{fill:#D989B4;}
	.st132{fill:#A4DB9B;}
	.st133{fill:#9E9E9E;}
	.st134{fill:#1C421C;}
	.st135{fill:#19431E;}
	.st136{fill:#13431F;}
	.st137{fill:#F9E8F1;}
	.st138{fill:#D4D4D4;}
	.st139{fill:#EA68B3;}
	.st140{fill:#BF5493;}
	.st141{fill:#F9B9D6;}
	.st142{fill:#D991AE;}
	.st143{fill:#F1B3CC;}
	.st144{fill:#F6B9D2;}
	.st145{fill:#212121;}
	.st146{fill:#F3B3D1;}
	.st147{fill:#BA759B;}
</style>
<g id="背景">
</g>
<g id="ガイド線" class="st0">
</g>
<g id="文字">
</g>
<g id="影">
</g>
<g id="レイヤー_6">
	<g id="レイヤー_8">
	</g>
	<g>
		<polygon class="st102" points="227.19,670.09 200.44,468.72 315.28,468.72 285.14,670.09 		"/>
		<path class="st103" d="M222.38,539.04c15.33,8.54,33.42,10.13,50.53,7.52c11.14-1.7,21.83-5.22,32.16-9.66l10.2-68.18H200.44
			l7.86,59.2C212.33,532.36,217.1,536.1,222.38,539.04z"/>
		<path class="st104" d="M212.31,558.07l2.76,20.76c7.96-3.22,15.8-6.72,23.7-10.07c1.89-0.8,1.7-3.54-0.29-4.05
			C229.77,562.45,221.04,560.25,212.31,558.07z"/>
		<path class="st104" d="M217.42,596.52l2.26,17.05c8.42-2.93,16.92-5.58,25.45-8.13c1.9-0.57,1.75-3.3-0.19-3.67
			C235.77,600.01,226.59,598.26,217.42,596.52z"/>
		<path class="st104" d="M222.17,632.25l2.36,17.77c6.78-3.34,13.79-6.21,20.97-8.56c1.94-0.64,1.84-3.41-0.16-3.87
			C237.62,635.8,229.89,634.04,222.17,632.25z"/>
		<polygon class="st105" points="333.95,670.09 307.2,468.72 422.03,468.72 391.9,670.09 		"/>
		<path class="st104" d="M319.07,558.07l2.76,20.76c7.96-3.22,15.8-6.72,23.7-10.07c1.89-0.8,1.7-3.54-0.29-4.05
			C336.53,562.45,327.8,560.25,319.07,558.07z"/>
		<path class="st104" d="M324.18,596.52l2.26,17.05c8.42-2.93,16.92-5.58,25.45-8.13c1.9-0.57,1.75-3.3-0.19-3.67
			C342.53,600.01,333.35,598.26,324.18,596.52z"/>
		<path class="st104" d="M328.93,632.25l2.36,17.77c6.78-3.34,13.79-6.21,20.97-8.56c1.94-0.64,1.84-3.41-0.16-3.87
			C344.38,635.8,336.65,634.04,328.93,632.25z"/>
		<polygon class="st102" points="452.16,670.09 425.4,468.72 540.24,468.72 510.11,670.09 		"/>
		<path class="st103" d="M453.47,544.68c17,4.81,35.13,5.56,52.49,2.34c8.11-1.51,16.04-3.92,23.63-7.13l10.65-71.18H425.41
			l9.11,68.61C440.59,540.37,446.93,542.84,453.47,544.68z"/>
		<path class="st104" d="M437.28,558.07l2.76,20.76c7.96-3.22,15.8-6.72,23.7-10.07c1.89-0.8,1.7-3.54-0.29-4.05
			C454.73,562.45,446.01,560.25,437.28,558.07z"/>
		<path class="st104" d="M442.38,596.52l2.26,17.05c8.42-2.93,16.92-5.58,25.45-8.13c1.9-0.57,1.75-3.3-0.19-3.67
			C460.73,600.01,451.56,598.26,442.38,596.52z"/>
		<path class="st104" d="M447.13,632.25l2.36,17.77c6.78-3.34,13.79-6.21,20.97-8.56c1.94-0.64,1.84-3.41-0.16-3.87
			C462.58,635.8,454.85,634.04,447.13,632.25z"/>
		<path class="st15" d="M150.86,143.64c11.79-18.39,23.58-36.78,35.36-55.18c20.01,41.91,81.01,48.52,105.31,88.1
			c12.44,20.26,12.86,45.51,20.9,67.88c12.08,33.62,41.28,59.14,74.11,73.25c32.83,14.11,69.15,17.97,105.38,19.18
			c-50.94,27.5-113.95,31.56-168,10.85c-21.8-8.36-42.93-21.32-54.89-41.38c-10.11-16.96-12.69-37.23-19.4-55.8
			C232.38,202.78,189.62,169.66,150.86,143.64z"/>
		<path class="st106" d="M207.17,170.39c5.14-7.4,10.3-14.77,15.46-22.16c3.86-5.53,7.71-11.07,11.54-16.62
			c-9.31-5.34-18.42-10.83-26.43-17.24c-0.97,1.57-1.94,3.15-2.91,4.72c-5.24,8.42-10.53,16.81-15.84,25.18
			c-3.85,6.07-7.72,12.12-11.59,18.18c7.67,5.81,15.23,11.96,22.46,18.51C202.29,177.44,204.73,173.91,207.17,170.39z"/>
		<path class="st106" d="M270.45,280.97c9.56-5.61,19.1-11.26,28.65-16.89c5.76-3.4,11.52-6.78,17.29-10.15
			c-1.47-3.08-2.79-6.24-3.96-9.48c-3.66-10.2-5.75-20.99-8.11-31.64c-1.13,0.84-2.26,1.69-3.4,2.54
			c-10.49,7.81-21,15.61-31.46,23.46c-6.33,4.75-12.64,9.54-18.94,14.35c3.75,11.05,6.25,22.61,9.9,33.65
			C263.77,284.86,267.12,282.93,270.45,280.97z"/>
		<path class="st106" d="M375.37,345.26c4.42-8.89,8.8-17.81,13.15-26.73c-0.66-0.28-1.33-0.55-1.99-0.83
			c-10.49-4.51-20.6-10.19-29.91-16.92c-0.01,0.01-0.01,0.02-0.02,0.04c-5.83,10.87-11.57,21.79-17.27,32.73
			c-2.88,5.53-5.76,11.07-8.62,16.62c12.27,4.18,24.95,7.1,37.8,8.82C370.81,354.41,373.1,349.84,375.37,345.26z"/>
		<g>
			<path class="st105" d="M697.29,441.6c-4.26-37.74-23.91-75.99-58.27-92.15c-20.49-9.63-43.84-10.57-66.46-11.33
				c-58.58-1.99-117.15-3.97-175.73-5.96c-29.84-1.01-61.8-2.74-85.59-20.79c-26.38-20.02-35.86-54.77-43.71-86.95
				c11.99-29.95,23.34-60.6,34.68-91.25c-24.17,1.08-47.88,10.48-66.22,26.25c-35.58-21.02-76.65-26.93-113.66-16.88
				c-14.06-18.28-28.12-36.56-42.18-54.84c-6.57,27.5-8.87,56.02-6.83,84.23c-31.05,25.87-50.53,65.29-51.88,105.72
				c-0.55,16.37,2.3,34.05,13.74,45.78c12.19,12.5,31.12,15.33,48.59,15.47c31.59,0.25,63.21-6.11,92.27-18.5
				c-1.03,23.76-3.97,47.67-3.79,71.46c0.31,40.45-1.72,118.23,33.91,137.38c20.75,11.15,58.68,10.56,82.23,10.59
				c91.72,0.11,181.67,0.23,273.39,0.35c10.95,54.2,18.82,75.56,25.6,134.92c29.63,0,33.01,2.57,68.67,0
				c6.75-42.44,20.17-83.8,28.55-120.84C692.99,517.21,701.55,479.34,697.29,441.6z"/>
		</g>
		<g>
			<path class="st108" d="M127.33,164.64c-0.43,1.09,0.98,1.96,1.77,1.1c0.41-0.45,0.81-0.89,1.22-1.34
				c7.99-8.77,15.94-17.57,23.73-26.52c0.02-0.02,0.03-0.02,0.05-0.04c-5.83,0.18-11.63,0.72-17.36,1.63
				c-0.55,1.52-1.1,3.05-1.65,4.57C132.57,150.94,130.02,157.81,127.33,164.64z"/>
			<path class="st108" d="M149.78,179.42c-0.56,1.27,1.04,2.39,2.05,1.44c2.26-2.13,4.52-4.27,6.78-6.39
				c7.68-7.22,15.39-14.41,23.11-21.59c3.89-3.62,7.8-7.23,11.7-10.84c-8.38-2.05-16.85-3.36-25.31-3.92
				c-1.31,3.03-2.63,6.06-3.96,9.09C159.39,157.95,154.5,168.65,149.78,179.42z"/>
			<path class="st108" d="M188.52,183.26c-0.46,0.86,0.64,1.71,1.36,1.05c2.15-1.97,4.31-3.92,6.5-5.85
				c7.37-6.5,14.92-12.78,22.61-18.89c2.35-1.87,4.72-3.71,7.09-5.54c-5.83-2.91-11.78-5.41-17.8-7.54
				c-1.27,2.33-2.55,4.66-3.81,6.99C199.1,163.39,193.81,173.32,188.52,183.26z"/>
		</g>
		<g>
			<path class="st109" d="M287.33,304c-6.83,13.41-14.75,26.26-23.73,38.34c-6.11,8.21-12.7,16.05-19.76,23.45
				c-1.95,2.05,0.09,5.36,2.78,4.48c10.86-3.54,20.76-8.85,31.01-13.7c12.67-6,24.99-12.74,36.89-20.16
				c6.62-4.12,13.09-8.48,19.44-13.01c-8.1-2.88-15.75-6.75-22.71-12.03c-7.22-5.48-13.16-12.06-18.16-19.38
				C291.26,296.03,289.34,300.04,287.33,304z"/>
			<path class="st109" d="M232.49,481.42c9.49-9.41,18.54-19.27,27.09-29.54c8.58-10.3,16.66-21.02,24.22-32.09
				c2.45-3.58,4.83-7.2,7.16-10.86c2.39-3.75-2.17-8-5.74-5.34c-2.12,1.58-4.27,3.13-6.43,4.65
				c-17.16,12.03-35.57,22.28-54.82,30.56c-16.03,6.89-32.64,12.41-49.62,16.44c2.29,23.41,7.18,46.31,17.82,61.24
				c3.49-2.66,6.95-5.35,10.35-8.12C212.94,499.87,222.94,490.87,232.49,481.42z"/>
			<path class="st109" d="M404.81,477.99c3.42-7.93,6.86-15.85,10.31-23.77c1.35-3.09-2.76-5.6-4.9-3c-1.41,1.71-2.84,3.4-4.28,5.08
				c-14.32,16.71-30.05,32.21-47.01,46.23c-16.87,13.95-34.95,26.43-53.95,37.31c24.59,0.03,49.08,0.06,73.52,0.09
				c1.45-3.48,2.88-6.97,4.34-10.45C390.07,512.28,397.41,495.12,404.81,477.99z"/>
			<path class="st109" d="M526.3,355.29c-6.47,13.26-14.26,25.86-23.22,37.59c-4.72,6.18-9.76,12.11-15.09,17.77
				c-2.36,2.5,0.49,6.38,3.61,4.93c4.98-2.33,9.9-4.79,14.75-7.4c19.69-10.6,38.21-23.41,55.04-38.14
				c10.93-9.56,21.14-19.94,30.5-31.03c-6.45-0.44-12.92-0.68-19.34-0.89c-12.76-0.43-25.52-0.87-38.28-1.3
				C531.89,343.09,529.24,349.26,526.3,355.29z"/>
			<path class="st109" d="M575.78,469.86c3.98-11.57,7.95-23.14,11.91-34.71c1.22-3.57-3.54-6.03-5.76-2.98
				c-2,2.75-4.03,5.48-6.07,8.19c-14.09,18.66-29.2,36.53-45.2,53.58c-15.13,16.12-31.08,31.47-47.64,46.13
				c22.8,0.03,45.66,0.06,68.61,0.09c0.92-2.67,1.83-5.35,2.74-8.02C561.49,511.37,568.64,490.62,575.78,469.86z"/>
			<path class="st109" d="M382.42,377.32c-5.39,7.24-11.3,14.07-17.66,20.45c-2.01,2.02-0.04,5.4,2.71,4.67
				c6.35-1.68,12.6-3.73,18.72-6.13c18.35-7.19,35.48-17.51,50.51-30.25c10.97-9.3,20.8-19.91,29.23-31.55
				c-19.64-0.67-39.29-1.33-58.94-2c-1.31,3.46-2.73,6.88-4.25,10.25C397.25,354.97,390.41,366.58,382.42,377.32z"/>
		</g>
		<g>
			<path class="st104" d="M585,652.74l16.94-10.7c2.18-1.38,1.57-4.69-0.95-5.25c-6.34-1.4-12.81-2.24-19.3-2.44
				c1.01,5.93,1.98,12.21,2.94,18.99C584.65,653.12,584.75,652.9,585,652.74z"/>
			<path class="st104" d="M574.77,599.39c1.34,6.08,2.63,12.13,3.87,18.41c6.02-3.56,12.05-7.12,18.07-10.68
				c2.36-1.4,1.72-4.95-0.98-5.47C588.82,600.32,581.81,599.54,574.77,599.39z"/>
			<path class="st104" d="M566.34,561.8c1.52,6.95,2.98,13.39,4.38,19.55c5.89-4.09,11.86-8.08,17.79-12.13
				c1.63-1.12,1.06-3.66-0.89-3.97C580.52,564.1,573.43,562.94,566.34,561.8z"/>
		</g>
		<path class="st108" d="M43.36,226.87c-3.14-0.7-6.19-1.85-9.07-3.39c-2.59,5.71-4.81,11.58-6.65,17.58
			c5.52-2.98,10.98-6.05,16.42-9.17C46.2,230.66,45.76,227.4,43.36,226.87z"/>
		<path class="st108" d="M158.39,302.22c-3.57,8.1-4.72,17.23-3.66,26.03c6.52-2.05,12.95-4.37,19.26-6.99
			c-4.55-5.78-8.21-12.22-11.06-19.01C162.08,300.26,159.26,300.24,158.39,302.22z"/>
		<path class="st110" d="M145.67,322.91c-5.37-11.96-12.57-23.08-21.2-32.95c-8.6-9.84-18.59-18.47-29.62-25.48
			c-11.01-7-23.04-12.39-35.66-15.72c-10.67-2.81-21.7-4.08-32.72-3.73c-2.93,10.63-4.66,21.58-5.03,32.61
			c-0.55,16.37,2.3,34.05,13.74,45.78c12.19,12.5,31.12,15.33,48.59,15.47c21.88,0.17,43.77-2.84,64.82-8.81
			C147.69,327.66,146.73,325.26,145.67,322.91z"/>
		<circle class="st15" cx="69.37" cy="224.64" r="6.78"/>
		<circle class="st15" cx="148.6" cy="265.5" r="6.78"/>
	</g>
</g>
<g id="レイヤー_9">
</g>
<g id="レイヤー_7">
</g>
</svg>
