<?xml version="1.0" encoding="utf-8"?>
<!-- Generator: Adobe Adobe Illustrator 24.2.0, SVG Export Plug-In . SVG Version: 6.00 Build 0)  -->
<svg version="1.1" xmlns="http://www.w3.org/2000/svg" xmlns:xlink="http://www.w3.org/1999/xlink" x="0px" y="0px"
	 width="719.81px" height="719.81px" viewBox="0 0 719.81 719.81" style="enable-background:new 0 0 719.81 719.81;"
	 xml:space="preserve">
<style type="text/css">
	.st0{display:none;}
	.st1{fill:#CFCFCF;}
	.st2{fill:#F0DAB3;}
	.st3{fill:#F7C8DE;}
	.st4{fill:#F4C9D9;}
	.st5{fill:#BBE6AF;}
	.st6{fill:#97B58D;}
	.st7{fill:#FFFFFF;}
	.st8{fill:#DE985F;}
	.st9{fill:#F8C79C;}
	.st10{fill:#F4C79C;}
	.st11{fill:#F3B380;}
	.st12{fill:#F8F1E0;}
	.st13{fill:#ECD9B3;}
	.st14{fill:#EEDAB3;}
	.st15{fill:#363636;}
	.st16{fill:#FB7C7D;}
	.st17{fill:#F8B7B8;}
	.st18{fill:#F2D994;}
	.st19{fill:#F5D994;}
	.st20{fill:#A8D7A2;}
	.st21{fill:#A7D5A1;}
	.st22{fill:#9DD394;}
	.st23{fill:#35AC53;}
	.st24{fill:#34AB52;}
	.st25{fill:#80CA3B;}
	.st26{fill:#A7D4A1;}
	.st27{fill:#6B9466;}
	.st28{fill:#F9FCEA;}
	.st29{fill:#113B1D;}
	.st30{fill:#F9D6E5;}
	.st31{fill:#EEC0D2;}
	.st32{fill:#EDC0D0;}
	.st33{fill:#F5F6E6;}
	.st34{fill:#F7B280;}
	.st35{fill:#F9F7E6;}
	.st36{fill:#303030;}
	.st37{fill:#F88E91;}
	.st38{fill:none;stroke:#303030;stroke-width:7;stroke-linecap:round;stroke-miterlimit:10;}
	.st39{fill:#DEB781;}
	.st40{fill:#ECC38C;}
	.st41{fill:#E0BC89;}
	.st42{fill:none;stroke:#303030;stroke-width:4;stroke-linecap:round;stroke-miterlimit:10;}
	.st43{fill:#D6D6D6;}
	.st44{fill:#5987B0;}
	.st45{fill:#E8B384;}
	.st46{fill:#4F84B8;}
	.st47{fill:#B4D3E6;}
	.st48{fill:#3A5F82;}
	.st49{fill:#99BDD7;}
	.st50{fill:#464747;}
	.st51{fill:#D6A172;}
	.st52{fill:#94661B;}
	.st53{fill:none;}
	.st54{fill:#F2BD8F;}
	.st55{fill:#F8EDD9;}
	.st56{fill:#BF8667;}
	.st57{fill:#4D4D4D;}
	.st58{fill:none;stroke:#734318;stroke-width:4;stroke-linecap:round;stroke-miterlimit:10;}
	.st59{fill:#8F633D;}
	.st60{fill:#EBB98D;}
	.st61{fill:#BF8654;}
	.st62{fill:#F898B8;}
	.st63{fill:#F1A5BC;}
	.st64{fill:#FBD6E1;}
	.st65{fill:none;stroke:#916137;stroke-width:2;stroke-linecap:round;stroke-miterlimit:10;}
	.st66{fill:#F6D5B0;}
	.st67{fill:#BE8567;}
	.st68{fill:#F2C757;}
	.st69{fill:#F2F6F7;}
	.st70{fill:#EFC657;}
	.st71{fill:#DBDBDB;}
	.st72{fill:#F3F5F5;}
	.st73{fill:none;stroke:#F7C44C;stroke-width:7;stroke-miterlimit:10;}
	.st74{fill:none;stroke:#4A4A4A;stroke-width:7;stroke-miterlimit:10;}
	.st75{fill:#7A3131;}
	.st76{fill:#F97273;}
	.st77{fill:#F8B4B5;}
	.st78{fill:#F57073;}
	.st79{fill:#383838;}
	.st80{fill:#B34B4D;}
	.st81{fill:#595959;}
	.st82{fill:#C9E2EE;}
	.st83{fill:#13162E;}
	.st84{fill:#F3755E;}
	.st85{fill:#3C3F63;}
	.st86{fill:#F8BB5D;}
	.st87{fill:#F1755E;}
	.st88{fill:#F7BB5D;}
	.st89{fill:#F0755E;}
	.st90{fill:#3B4063;}
	.st91{fill:#FABC5E;}
	.st92{fill:#F4755E;}
	.st93{fill:#9E577C;}
	.st94{fill:#C92A0F;}
	.st95{fill:#292929;}
	.st96{fill:#F9AFD6;}
	.st97{fill:none;stroke:#F0755E;stroke-width:15;stroke-miterlimit:10;}
	.st98{fill:#D691B2;}
	.st99{fill:#F9DDE9;}
	.st100{fill:#997485;}
	.st101{fill:none;stroke:#5F3048;stroke-width:8;stroke-linecap:round;stroke-miterlimit:10;}
	.st102{fill:#E3E1E1;}
	.st103{fill:#BFBFBF;}
	.st104{fill:#A19D9E;}
	.st105{fill:#F0F0F0;}
	.st106{fill:#949494;}
	.st107{fill:#5F3048;}
	.st108{fill:#9E9898;}
	.st109{opacity:0.3412;fill:#525252;}
	.st110{fill:#EBEBEB;}
	.st111{fill:#242424;}
	.st112{fill:#3D3D3D;}
	.st113{fill:#525252;}
	.st114{fill:#4D3125;}
	.st115{fill:#F5CE53;}
	.st116{fill:#F1CE54;}
	.st117{fill:#F9F6D9;}
	.st118{fill:none;stroke:#000000;stroke-width:7;stroke-linecap:round;stroke-miterlimit:10;}
	.st119{fill:#EDEDED;}
	.st120{fill:#754A39;}
	.st121{fill:#F7B06E;}
	.st122{fill:#424242;}
	.st123{fill:#10100F;}
	.st124{fill:#DEC5DB;}
	.st125{fill:#594877;}
	.st126{fill:#9F8EBC;}
	.st127{fill:#79679C;}
	.st128{fill:#594878;}
	.st129{fill:#ECE3EE;}
	.st130{fill:#F8ACD4;}
	.st131{fill:#D989B4;}
	.st132{fill:#A4DB9B;}
	.st133{fill:#9E9E9E;}
	.st134{fill:#1C421C;}
	.st135{fill:#19431E;}
	.st136{fill:#13431F;}
	.st137{fill:#F9E8F1;}
	.st138{fill:#D4D4D4;}
	.st139{fill:#EA68B3;}
	.st140{fill:#BF5493;}
	.st141{fill:#F9B9D6;}
	.st142{fill:#D991AE;}
	.st143{fill:#F1B3CC;}
	.st144{fill:#F6B9D2;}
	.st145{fill:#212121;}
	.st146{fill:#F3B3D1;}
	.st147{fill:#BA759B;}
</style>
<g id="背景">
</g>
<g id="ガイド線" class="st0">
</g>
<g id="文字">
</g>
<g id="影">
</g>
<g id="レイヤー_6">
	<g id="レイヤー_8">
	</g>
</g>
<g id="レイヤー_9">
	<g>
		<path class="st126" d="M211.51,672.88l0.97-212.86c0.02-4.34,2.41-7.8,5.57-8.09l22.04-1.98c3.25-0.29,6.27,2.85,6.97,7.26
			l33.46,209.77c0.8,5.04-1.71,9.68-5.43,10.01l-56.47,5.06C214.83,682.4,211.48,678.09,211.51,672.88z"/>
		<path class="st127" d="M220.15,503.55c3.27,4.3,7.3,7.78,11.93,10.55c7.55,4.52,16.34,6.94,25.12,6.63l-0.46-2.86
			c-3.48-1.81-6.88-3.78-10.17-5.93c-9.37-6.13-17.91-13.54-25.25-22c-3.23-3.72-6.2-7.66-8.93-11.76l-0.04,9.73
			c0.16,0.55,0.32,1.09,0.5,1.63C214.47,494.57,216.95,499.34,220.15,503.55z"/>
		<path class="st126" d="M213.24,477.57c6.18,9.26,13.71,17.61,22.22,24.78c6.5,5.47,13.57,10.23,21.07,14.22l-9.47-59.35
			c-0.7-4.41-3.72-7.55-6.97-7.26l-22.04,1.98c-3.17,0.28-5.55,3.75-5.57,8.09l-0.07,16.23
			C212.68,476.69,212.95,477.13,213.24,477.57z"/>
		<path class="st128" d="M211.77,615.37l-0.26,57.51c-0.02,5.21,3.32,9.52,7.12,9.18l56.47-5.06c3.71-0.33,6.23-4.97,5.43-10.01
			l-8.34-52.26C252.05,614.96,231.91,615.3,211.77,615.37z"/>
		<path class="st126" d="M414.95,682.88l-4.57-212.82c-0.09-4.34,2.2-7.86,5.36-8.23l21.98-2.55c3.24-0.38,6.34,2.69,7.16,7.08
			l38.9,208.83c0.93,5.01-1.46,9.72-5.16,10.15l-56.32,6.53C418.52,692.31,415.06,688.09,414.95,682.88z"/>
		<path class="st127" d="M419.25,530.64c7.64,1.9,15.74,1.68,23.3-0.51c4.57-1.32,8.92-3.39,12.86-6.13l-10.52-59.24
			c-0.82-4.6-3.92-7.82-7.16-7.42l-21.98,2.67c-3.16,0.38-5.45,4.08-5.36,8.63l1.21,59.25
			C414.06,529.05,416.61,529.99,419.25,530.64z"/>
		<path class="st125" d="M413.72,625.39l1.23,57.49c0.11,5.21,3.57,9.43,7.36,8.99l56.32-6.53c3.7-0.43,6.1-5.13,5.16-10.15
			l-9.69-52.03C453.97,623.92,433.85,624.79,413.72,625.39z"/>
		<g>
			<path class="st126" d="M213.85,326.18c3.15,31.11-7.15,71.95-9.64,103.1c-2.5,31.15,5.54,66.62,34.56,83.55
				c15.44,9,34.4,11.28,52.7,12.74c46.39,3.7,93.11,3.6,139.55,0.56c20.44-1.34,41.34-3.38,59.71-11.59
				c34.65-15.5,54.62-64.82,45.73-98.84c-8.89-34.02-45.75-49.36-84.4-49.2c-19.75,0.08-35.52,4.75-57.31,6.94
				c-22.73,2.28-33.84,2.43-53.59,2.79c-19.74,0.35-38.06-2.72-48.88-17.66c-11.52-15.91-13.39-36.77-8.86-55.34
				C260.56,306.83,235.08,309.24,213.85,326.18z"/>
			<path class="st126" d="M171.2,246.52c6.99-43,19.4-78.57,87.4-65.71c64.06,12.12,69.08,47,62.1,90
				c-6.99,43-46.12,72.41-87.4,65.71C192.01,329.81,164.21,289.52,171.2,246.52z"/>
		</g>
		<path class="st129" d="M447.75,518.68c-29.34-2.9-58.61-8.82-85.99-19.98c-24.54-10-47.58-24.07-66.4-42.85
			c-19.49-19.46-33.78-43.69-41.17-70.24c-6.97-25.01-7.81-51.74-1.76-77.01c-13.39,3.13-26.66,8.06-38.59,17.58
			c3.15,31.11-7.15,71.95-9.64,103.1s5.54,66.62,34.56,83.55c15.44,9,34.4,11.28,52.7,12.74c46.39,3.7,93.11,3.61,139.55,0.56
			c14.12-0.93,28.45-2.24,42.03-5.64C464.61,520.1,456.18,519.52,447.75,518.68z"/>
		<path class="st126" d="M305.56,678.74l19.98-211.92c0.41-4.32,3.09-7.56,6.27-7.56h22.13c3.26,0,5.99,3.4,6.3,7.85l14.59,211.92
			c0.35,5.09-2.57,9.48-6.3,9.48h-56.69C308.02,688.52,305.07,683.92,305.56,678.74z"/>
		<path class="st125" d="M310.96,621.48l-5.4,57.25c-0.49,5.19,2.46,9.78,6.27,9.78h56.69c3.73,0,6.65-4.4,6.3-9.48l-3.64-52.8
			C351.11,624.67,331.03,623.21,310.96,621.48z"/>
		<path class="st126" d="M507.39,683.93l-34.18-210.1c-0.7-4.29,1.08-8.09,4.16-8.9l21.41-5.59c3.16-0.82,6.66,1.78,8.08,6.01
			l67.63,201.37c1.62,4.83-0.09,9.83-3.7,10.77l-54.86,14.31C512.24,692.77,508.23,689.07,507.39,683.93z"/>
		<path class="st125" d="M498.16,627.17l9.23,56.76c0.84,5.14,4.85,8.84,8.54,7.88l54.86-14.31c3.61-0.94,5.32-5.93,3.7-10.77
			l-16.85-50.17C537.82,620.11,518.02,623.78,498.16,627.17z"/>
		<g>
			<path class="st126" d="M153.75,213.1c-22.16-8.58-34.67-28.98-38-35.07c-0.56-1.03-0.11-2.02,1.1-2.37
				c7.1-2.06,31.82-8.05,53.98,0.53s34.67,28.98,38,35.07c0.56,1.03,0.11,2.02-1.1,2.37C200.62,215.68,175.91,221.68,153.75,213.1z"
				/>
			<path class="st130" d="M146.4,202.58c-12.12-5.97-18.06-18.2-19.6-21.83c-0.26-0.62,0.06-1.16,0.76-1.3
				c4.17-0.82,18.59-3.03,30.72,2.93s18.06,18.2,19.6,21.83c0.26,0.62-0.06,1.16-0.76,1.3C172.95,206.34,158.53,208.55,146.4,202.58
				z"/>
			<path class="st131" d="M173.55,205.08c-9.1-2.35-17.87-5.78-26.01-10.18c-7.56-4.08-14.57-9.01-20.81-14.65
				c-0.02,0.16,0,0.32,0.07,0.5c1.54,3.63,7.48,15.86,19.6,21.83c11.31,5.57,24.63,4.02,29.74,3.11
				C175.28,205.49,174.41,205.3,173.55,205.08z"/>
		</g>
		<g>
			<path class="st126" d="M348.42,237.6c25.43-0.95,46.07-16.07,51.84-20.71c0.98-0.79,0.92-1.86-0.13-2.57
				c-6.21-4.2-28.29-17.71-53.72-16.76s-46.07,16.07-51.84,20.71c-0.98,0.79-0.92,1.86,0.13,2.57
				C300.92,225.04,322.99,238.56,348.42,237.6z"/>
			<path class="st130" d="M359.95,230.1c14.43-1.72,25.25-11.28,28.25-14.19c0.51-0.49,0.41-1.1-0.23-1.46
				c-3.8-2.1-17.2-8.78-31.63-7.07c-14.43,1.72-25.25,11.28-28.25,14.19c-0.51,0.49-0.41,1.1,0.23,1.46
				C332.12,225.13,345.53,231.81,359.95,230.1z"/>
			<path class="st131" d="M332.03,223.76c9.97,0.71,20.05,0.29,29.9-1.22c9.14-1.41,18.08-3.78,26.55-7.08
				c-0.05,0.15-0.13,0.31-0.28,0.45c-3,2.91-13.82,12.47-28.25,14.19c-13.46,1.6-26.03-4.11-30.74-6.59
				C330.15,223.6,331.09,223.69,332.03,223.76z"/>
		</g>
		<path class="st132" d="M212.76,199.41c0.52,3.77-2.6,6.97-5.33,5.36c-13.03-7.67-23.76-28.76-32.39-45
			c-10.42-19.6-16.51-43.45-14.9-67.5c1.61-24.05,11.51-48.08,27.67-61.88c8.91-7.6,19.67-11.98,30.14-10.96
			c12.93,1.26,25.21,11.27,29.02,27.26c1.43,6.02,0.69,12.84-2.49,17.97c-7.87,12.73-22.17,5.4-33.67,9.27
			c-10.85,3.65-18.29,17.69-19.78,31.61c-1.49,13.92,1.87,27.66,5.3,40.59c1.07-11.96,4.15-24.48,12-32.18
			c4.5-4.41,10.28-6.52,15.65-4.9c10.2,3.07,12.56,16.79,9.97,27.89c-2.01,8.62-6.44,16.08-10.71,23.38
			c-4.27,7.3-8.57,14.94-10.22,23.66C212.02,189.38,212.15,195,212.76,199.41z"/>
		<path class="st132" d="M292.71,205.84c-1.97,3.07-0.47,7.57,2.6,7.59c14.63,0.09,32.56-12.94,46.69-22.79
			c17.06-11.89,31.98-29.83,40.12-52.05c8.15-22.22,8.94-48.8,0.07-69.63c-4.88-11.47-12.69-21.07-22.4-25.71
			c-11.99-5.73-26.88-3.36-36.63,8.82c-3.67,4.59-5.73,11.04-4.95,17.28c1.92,15.48,17.54,16.54,26.21,26.08
			c8.18,9,9.2,25.41,4.97,38.56s-12.68,23.58-20.88,33.24c3.82-11.19,6.07-23.94,2.16-34.94c-2.24-6.3-6.53-11.24-11.95-12.65
			c-10.28-2.68-17.84,8.25-19.97,19.49c-1.65,8.72-0.68,17.69,0.2,26.44s1.66,17.81-0.35,26.43
			C297.36,197.33,295.01,202.25,292.71,205.84z"/>
		<path class="st133" d="M219.96,333.34c17.14,6.17,37.15,5.69,53.41-1.99c-7.9,5.7-17.5,8.92-27.9,8.92
			C235.07,340.26,224.46,336.58,219.96,333.34z"/>
		<path class="st129" d="M245.65,260.78c-24.69-5.41-50.27-6.88-75.39-4c-1.42,38.97,25.07,73.57,63.04,79.74
			c35.41,5.75,69.22-15.09,82.53-48.27C294.08,275.46,270.3,266.19,245.65,260.78z"/>
		<g>
			<circle class="st134" cx="196.87" cy="238.63" r="6.91"/>
			<circle class="st135" cx="294.07" cy="257.81" r="6.91"/>
			<path class="st136" d="M240.28,250.2l-7.93,2.9c-5.41,1.98-4.86,9.8,0.77,11.01l13.96,3c5.63,1.21,9.34-5.69,5.22-9.72l-6.04-5.9
				C244.68,249.94,242.35,249.44,240.28,250.2z"/>
		</g>
		<path class="st126" d="M523.57,394.22c20.71-12.28,35.94-33.46,41.21-56.94c0.69-3.07,4.81-3.68,6.27-0.9
			c6.67,12.71,11.56,26.35,14.47,40.41c1.62,7.81,2.57,16.24-0.64,23.54c-5.24,11.9-20.28,16.87-33.1,14.69
			c-11.22-1.91-21.15-8.02-28.85-15.44C521.32,398.01,521.64,395.36,523.57,394.22z"/>
		<path class="st127" d="M190.21,196.82c-4.71,5.11-8.18,11.34-10.05,18.03C180.66,207.78,184.48,201.03,190.21,196.82z"/>
		<path class="st127" d="M315.48,209.7c3.62,5.93,5.8,12.72,6.33,19.64C322.69,222.32,320.27,214.95,315.48,209.7z"/>
		<g>
			<path class="st132" d="M334.62,391.23c2.54,4.92,9.56,7.62,16.58,7.79c7.02,0.17,14.04-1.79,20.65-4.1
				c-5.2,5.63-14.38,9.01-22.91,8.43C340.41,402.76,332.92,398.24,334.62,391.23z"/>
			<path class="st132" d="M363.18,388.86c5.25-3.11,12-4.59,18.25-3.98c6.25,0.6,11.93,3.27,15.33,7.22
				c1.19-3.68-1.51-7.42-5.56-9.22c-4.05-1.79-9.14-1.93-13.97-1.34C371.45,382.25,365.76,383.97,363.18,388.86z"/>
			<path class="st132" d="M380.93,391.69c2.54,4.92,9.56,7.62,16.58,7.79s14.04-1.79,20.65-4.1c-5.2,5.63-14.38,9.01-22.91,8.43
				C386.72,403.22,379.23,398.69,380.93,391.69z"/>
			<path class="st132" d="M409.49,389.32c5.25-3.11,12-4.59,18.25-3.98s11.93,3.27,15.33,7.22c1.19-3.68-1.51-7.42-5.56-9.22
				c-4.05-1.79-9.14-1.93-13.97-1.34C417.75,382.71,412.06,384.42,409.49,389.32z"/>
			<path class="st132" d="M422.56,394.23c2.54,4.92,9.56,7.62,16.58,7.79s14.04-1.79,20.65-4.1c-5.2,5.63-14.38,9.01-22.91,8.43
				S420.86,401.24,422.56,394.23z"/>
			<path class="st132" d="M472.36,395.82c2.54,4.92,9.56,7.62,16.58,7.79c7.02,0.17,14.04-1.79,20.65-4.1
				c-5.2,5.63-14.38,9.01-22.91,8.43C478.15,407.35,470.66,402.83,472.36,395.82z"/>
			<path class="st132" d="M455.18,390.36c5.25-3.11,12-4.59,18.25-3.98s11.93,3.27,15.33,7.22c1.19-3.68-1.51-7.42-5.56-9.22
				c-4.05-1.79-9.14-1.93-13.97-1.34C463.45,383.75,457.76,385.47,455.18,390.36z"/>
			<ellipse class="st136" cx="355.26" cy="390.31" rx="2.86" ry="2.97"/>
			<ellipse class="st136" cx="375.54" cy="403.29" rx="2.86" ry="2.97"/>
			<ellipse class="st136" cx="402.32" cy="390.31" rx="2.86" ry="2.97"/>
			<ellipse class="st136" cx="417.09" cy="403.29" rx="2.86" ry="2.97"/>
			<ellipse class="st136" cx="449.27" cy="392.55" rx="2.86" ry="2.97"/>
			<ellipse class="st136" cx="465.95" cy="403.87" rx="2.86" ry="2.97"/>
			<ellipse class="st136" cx="496.62" cy="394.23" rx="2.86" ry="2.97"/>
		</g>
	</g>
</g>
<g id="レイヤー_7">
</g>
</svg>
