<?xml version="1.0" encoding="utf-8"?>
<!-- Generator: Adobe Adobe Illustrator 24.2.0, SVG Export Plug-In . SVG Version: 6.00 Build 0)  -->
<svg version="1.1" xmlns="http://www.w3.org/2000/svg" xmlns:xlink="http://www.w3.org/1999/xlink" x="0px" y="0px"
	 width="719.81px" height="719.81px" viewBox="0 0 719.81 719.81" style="enable-background:new 0 0 719.81 719.81;"
	 xml:space="preserve">
<style type="text/css">
	.st0{display:none;}
	.st1{fill:#CFCFCF;}
	.st2{fill:#F0DAB3;}
	.st3{fill:#F7C8DE;}
	.st4{fill:#F4C9D9;}
	.st5{fill:#BBE6AF;}
	.st6{fill:#97B58D;}
	.st7{fill:#FFFFFF;}
	.st8{fill:#DE985F;}
	.st9{fill:#F8C79C;}
	.st10{fill:#F4C79C;}
	.st11{fill:#F3B380;}
	.st12{fill:#F8F1E0;}
	.st13{fill:#ECD9B3;}
	.st14{fill:#EEDAB3;}
	.st15{fill:#363636;}
	.st16{fill:#FB7C7D;}
	.st17{fill:#F8B7B8;}
	.st18{fill:#F2D994;}
	.st19{fill:#F5D994;}
	.st20{fill:#A8D7A2;}
	.st21{fill:#A7D5A1;}
	.st22{fill:#9DD394;}
	.st23{fill:#35AC53;}
	.st24{fill:#34AB52;}
	.st25{fill:#80CA3B;}
	.st26{fill:#A7D4A1;}
	.st27{fill:#6B9466;}
	.st28{fill:#F9FCEA;}
	.st29{fill:#113B1D;}
	.st30{fill:#F9D6E5;}
	.st31{fill:#EEC0D2;}
	.st32{fill:#EDC0D0;}
	.st33{fill:#F5F6E6;}
	.st34{fill:#F7B280;}
	.st35{fill:#F9F7E6;}
	.st36{fill:#303030;}
	.st37{fill:#F88E91;}
	.st38{fill:none;stroke:#303030;stroke-width:7;stroke-linecap:round;stroke-miterlimit:10;}
	.st39{fill:#DEB781;}
	.st40{fill:#ECC38C;}
	.st41{fill:#E0BC89;}
	.st42{fill:none;stroke:#303030;stroke-width:4;stroke-linecap:round;stroke-miterlimit:10;}
	.st43{fill:#D6D6D6;}
	.st44{fill:#5987B0;}
	.st45{fill:#E8B384;}
	.st46{fill:#4F84B8;}
	.st47{fill:#B4D3E6;}
	.st48{fill:#3A5F82;}
	.st49{fill:#99BDD7;}
	.st50{fill:#464747;}
	.st51{fill:#D6A172;}
	.st52{fill:#94661B;}
	.st53{fill:none;}
	.st54{fill:#F2BD8F;}
	.st55{fill:#F8EDD9;}
	.st56{fill:#BF8667;}
	.st57{fill:#4D4D4D;}
	.st58{fill:none;stroke:#734318;stroke-width:4;stroke-linecap:round;stroke-miterlimit:10;}
	.st59{fill:#8F633D;}
	.st60{fill:#EBB98D;}
	.st61{fill:#BF8654;}
	.st62{fill:#F898B8;}
	.st63{fill:#F1A5BC;}
	.st64{fill:#FBD6E1;}
	.st65{fill:none;stroke:#916137;stroke-width:2;stroke-linecap:round;stroke-miterlimit:10;}
	.st66{fill:#F6D5B0;}
	.st67{fill:#BE8567;}
	.st68{fill:#F2C757;}
	.st69{fill:#F2F6F7;}
	.st70{fill:#EFC657;}
	.st71{fill:#DBDBDB;}
	.st72{fill:#F3F5F5;}
	.st73{fill:none;stroke:#F7C44C;stroke-width:7;stroke-miterlimit:10;}
	.st74{fill:none;stroke:#4A4A4A;stroke-width:7;stroke-miterlimit:10;}
	.st75{fill:#7A3131;}
	.st76{fill:#F97273;}
	.st77{fill:#F8B4B5;}
	.st78{fill:#F57073;}
	.st79{fill:#383838;}
	.st80{fill:#B34B4D;}
	.st81{fill:#595959;}
	.st82{fill:#C9E2EE;}
	.st83{fill:#13162E;}
	.st84{fill:#F3755E;}
	.st85{fill:#3C3F63;}
	.st86{fill:#F8BB5D;}
	.st87{fill:#F1755E;}
	.st88{fill:#F7BB5D;}
	.st89{fill:#F0755E;}
	.st90{fill:#3B4063;}
	.st91{fill:#FABC5E;}
	.st92{fill:#F4755E;}
	.st93{fill:#9E577C;}
	.st94{fill:#C92A0F;}
	.st95{fill:#292929;}
	.st96{fill:#F9AFD6;}
	.st97{fill:none;stroke:#F0755E;stroke-width:15;stroke-miterlimit:10;}
	.st98{fill:#D691B2;}
	.st99{fill:#F9DDE9;}
	.st100{fill:#997485;}
	.st101{fill:none;stroke:#5F3048;stroke-width:8;stroke-linecap:round;stroke-miterlimit:10;}
	.st102{fill:#E3E1E1;}
	.st103{fill:#BFBFBF;}
	.st104{fill:#A19D9E;}
	.st105{fill:#F0F0F0;}
	.st106{fill:#949494;}
	.st107{fill:#5F3048;}
	.st108{fill:#9E9898;}
	.st109{opacity:0.3412;fill:#525252;}
	.st110{fill:#EBEBEB;}
	.st111{fill:#242424;}
	.st112{fill:#3D3D3D;}
	.st113{fill:#525252;}
	.st114{fill:#4D3125;}
	.st115{fill:#F5CE53;}
	.st116{fill:#F1CE54;}
	.st117{fill:#F9F6D9;}
	.st118{fill:none;stroke:#000000;stroke-width:7;stroke-linecap:round;stroke-miterlimit:10;}
	.st119{fill:#EDEDED;}
	.st120{fill:#754A39;}
	.st121{fill:#F7B06E;}
	.st122{fill:#424242;}
	.st123{fill:#10100F;}
	.st124{fill:#DEC5DB;}
	.st125{fill:#594877;}
	.st126{fill:#9F8EBC;}
	.st127{fill:#79679C;}
	.st128{fill:#594878;}
	.st129{fill:#ECE3EE;}
	.st130{fill:#F8ACD4;}
	.st131{fill:#D989B4;}
	.st132{fill:#A4DB9B;}
	.st133{fill:#9E9E9E;}
	.st134{fill:#1C421C;}
	.st135{fill:#19431E;}
	.st136{fill:#13431F;}
	.st137{fill:#F9E8F1;}
	.st138{fill:#D4D4D4;}
	.st139{fill:#EA68B3;}
	.st140{fill:#BF5493;}
	.st141{fill:#F9B9D6;}
	.st142{fill:#D991AE;}
	.st143{fill:#F1B3CC;}
	.st144{fill:#F6B9D2;}
	.st145{fill:#212121;}
	.st146{fill:#F3B3D1;}
	.st147{fill:#BA759B;}
</style>
<g id="背景">
</g>
<g id="ガイド線" class="st0">
</g>
<g id="文字">
</g>
<g id="影">
</g>
<g id="レイヤー_6">
	<g id="レイヤー_8">
	</g>
	<g>
		<path class="st46" d="M422.13,390.63c-0.87,20.2-0.86,42.76,13.9,57.52c8.45,8.45,20.4,12.84,31.29,18.32
			c23.27,11.71,43.71,30.64,50.3,54.58c6.59,23.94-3.94,52.68-25.37,62.46c-16.49-5.55-32.98-11.11-51.46-20.69
			c8.06-5.84,16.37-11.95,21.03-20.43c4.66-8.48,4.56-20.05-3.01-26.44c-6.08-5.14-14.98-5.63-23.1-6.65
			c-30.4-3.81-58.99-19.01-78.05-41.5c-19.06-22.49-28.37-52-25.41-80.57"/>
		<ellipse class="st46" cx="539.32" cy="249.69" rx="111.52" ry="162.6"/>
		<ellipse class="st46" cx="172.12" cy="249.69" rx="111.52" ry="162.6"/>
		<ellipse class="st68" cx="190.88" cy="256.36" rx="77.48" ry="112.97"/>
		<ellipse class="st68" cx="526.26" cy="256.36" rx="77.48" ry="112.97"/>
		<ellipse class="st69" cx="373.1" cy="271.66" rx="191.52" ry="165.66"/>
		<path class="st69" d="M121.93,516.95c44.05-8.97,90.33-8.15,135.98,3.83c12.57,25.79,21.81,53.01,30.58,81.16
			c-39.09,30.25-93.39,42.47-142.91,32.15c-8-1.67-16.57-4.35-20.96-10.83c-3.84-5.67-3.54-12.87-3.05-19.56
			C123.52,577.42,126.56,551.21,121.93,516.95z"/>
		<g>
			<path class="st69" d="M615.86,518.98c-44.05-8.97-90.33-8.15-135.98,3.83c-12.57,25.79-21.81,53.01-30.58,81.16
				c39.09,30.25,93.39,42.47,142.91,32.15c8-1.67,16.57-4.35,20.96-10.83c3.84-5.67,3.54-12.87,3.05-19.56
				C614.27,579.45,611.23,553.23,615.86,518.98z"/>
			
				<ellipse transform="matrix(0.3024 -0.9532 0.9532 0.3024 -135.4618 971.282)" class="st70" cx="595.86" cy="578.19" rx="61.55" ry="48.25"/>
		</g>
		<path class="st69" d="M261.71,371.25c-46.77,40.81-70.88,103.23-62.8,162.59c3.21,23.54,12.85,48.53,34.74,60.51
			c14.48,7.93,31.99,8.89,48.75,9.66c46.14,2.1,92.28,4.21,138.43,6.31c16.19,0.74,32.89,1.41,48.12-3.79
			c29.29-10,46.03-39.27,52.82-67.75c15.5-65.01-9.81-137.11-63.48-180.85C396.03,381.07,324.78,382.21,261.71,371.25z"/>
		<path class="st71" d="M266.11,402.54c62.85,12.28,128.22,13.16,191.42,2.57C393.05,431.32,316.71,424.4,266.11,402.54z"/>
		<g>
			<path class="st72" d="M264.19,500.07c-9.63-1.66-18.63,4.69-18.6,13.1c0.12,31.16,3.7,62.3,10.67,92.88
				c1.41,6.18,3.3,12.83,9.02,16.78c5.84,4.04,14.04,4.12,21.55,3.95c16.77-0.38,33.52-1.08,50.25-2.1
				c8.43-0.51,14.71-6.8,14.23-14.03c-1.9-28.79-2.59-57.64-2.06-86.48c0.12-6.65-5.45-12.36-13.12-13.35
				C315.16,508.1,293.01,505.04,264.19,500.07z"/>
			<path class="st71" d="M251.69,506.02c1.59,25.5,3.19,51,4.78,76.5C246.88,557.23,244.38,529.99,251.69,506.02z"/>
			<path class="st71" d="M340.17,506.02c1.59,25.5,3.19,51,4.78,76.5C335.37,557.23,332.86,529.99,340.17,506.02z"/>
		</g>
		<g>
			<path class="st70" d="M277.22,607.39c15.45,1.56,31.11,1.22,46.48-1.04c9.13-1.34,18.16-3.38,26.99-6.06
				c-0.12-2.25-0.24-4.51-0.36-6.76c-0.96,0.24-1.91,0.49-2.87,0.71c-16.12,3.75-32.65,5.76-49.19,6.04
				c-14.72,0.26-29.44-0.86-43.96-3.29c0.47,2.31,0.98,4.61,1.49,6.91C262.86,605.48,270.02,606.66,277.22,607.39z"/>
			<path class="st71" d="M251.69,506.02c1.59,25.5,3.19,51,4.78,76.5C246.88,557.23,244.38,529.99,251.69,506.02z"/>
			<path class="st71" d="M340.17,506.02c1.59,25.5,3.19,51,4.78,76.5C335.37,557.23,332.86,529.99,340.17,506.02z"/>
		</g>
		<g>
			<path class="st72" d="M468.1,500.07c9.63-1.66,18.63,4.69,18.6,13.1c-0.12,31.16-3.7,62.3-10.67,92.88
				c-1.41,6.18-3.3,12.83-9.02,16.78c-5.84,4.04-14.04,4.12-21.55,3.95c-16.77-0.38-33.52-1.08-50.25-2.1
				c-8.43-0.51-14.71-6.8-14.23-14.03c1.9-28.79,2.59-57.64,2.06-86.48c-0.12-6.65,5.45-12.36,13.12-13.35
				C417.13,508.1,439.28,505.04,468.1,500.07z"/>
			<path class="st71" d="M480.6,506.02c-1.59,25.5-3.19,51-4.78,76.5C485.41,557.23,487.91,529.99,480.6,506.02z"/>
			<path class="st71" d="M392.12,506.02c-1.59,25.5-3.19,51-4.78,76.5C396.92,557.23,399.43,529.99,392.12,506.02z"/>
		</g>
		<g>
			<path class="st70" d="M455.07,607.39c-15.45,1.56-31.11,1.22-46.48-1.04c-9.13-1.34-18.16-3.38-26.99-6.06
				c0.12-2.25,0.24-4.51,0.36-6.76c0.96,0.24,1.91,0.49,2.87,0.71c16.12,3.75,32.65,5.76,49.19,6.04
				c14.72,0.26,29.44-0.86,43.96-3.29c-0.47,2.31-0.98,4.61-1.49,6.91C469.42,605.48,462.27,606.66,455.07,607.39z"/>
			<path class="st71" d="M480.6,506.02c-1.59,25.5-3.19,51-4.78,76.5C485.41,557.23,487.91,529.99,480.6,506.02z"/>
			<path class="st71" d="M392.12,506.02c-1.59,25.5-3.19,51-4.78,76.5C396.92,557.23,399.43,529.99,392.12,506.02z"/>
		</g>
		
			<ellipse transform="matrix(0.9532 -0.3024 0.3024 0.9532 -167.6081 69.9072)" class="st70" cx="141.93" cy="576.16" rx="48.25" ry="61.55"/>
		<circle class="st73" cx="290.81" cy="316.9" r="40.9"/>
		<circle class="st73" cx="466.54" cy="320.3" r="40.9"/>
		<path class="st72" d="M405.56,326.65c-7.37,16.7,3.77,36.07,17.79,47.76s31.36,19.6,43,33.66c19.48,23.52,16.37,62.41-7.53,87.6
			c-14.22-5.63-28.44-11.27-41.13-15.49c5.72-5.71,11.55-11.59,14.95-18.93c3.4-7.34,3.91-16.55-0.81-23.12
			c-7.21-10.04-21.88-9.47-34.16-10.93c-20.87-2.48-40.47-14.22-52.51-31.45c-12.04-17.23-16.34-39.66-11.51-60.12
			C357.23,332.22,380.82,328.81,405.56,326.65z"/>
		<path class="st71" d="M345.63,342.63c-5.57,13.93-0.12,30.23,9.37,41.85c9.49,11.61,22.5,19.69,34.71,28.41
			c12.21,8.72,24.25,18.79,30.31,32.51c8.09,18.3,3.21,41.51-11.56,55c5.59-20.79,8.8-45.06-4.41-62.07
			c-8.51-10.96-22.11-16.44-33.27-24.7C347.86,396.66,335.66,366.32,345.63,342.63z"/>
		<path class="st71" d="M414.62,339.97c-5.57,13.93-0.12,30.23,9.37,41.85c9.49,11.61,22.5,19.69,34.71,28.41
			c12.21,8.72,24.25,18.79,30.31,32.51c8.09,18.3,3.21,41.51-11.56,55c5.59-20.79,8.8-45.06-4.41-62.07
			c-8.51-10.96-22.11-16.44-33.27-24.7C416.85,394,404.65,363.65,414.62,339.97z"/>
		<path class="st74" d="M283.27,331.06c2.19-6.5,9.02-11.11,15.86-10.71c6.84,0.4,13.09,5.77,14.52,12.47"/>
		<path class="st74" d="M444.78,331.06c2.19-6.5,9.02-11.11,15.86-10.71s13.09,5.77,14.52,12.47"/>
		<path class="st73" d="M329.2,329.37c30.29-11.47,68.18-12.28,98.6-1.17"/>
	</g>
</g>
<g id="レイヤー_9">
</g>
<g id="レイヤー_7">
</g>
</svg>
