<?xml version="1.0" encoding="utf-8"?>
<!-- Generator: Adobe Adobe Illustrator 24.2.0, SVG Export Plug-In . SVG Version: 6.00 Build 0)  -->
<svg version="1.1" xmlns="http://www.w3.org/2000/svg" xmlns:xlink="http://www.w3.org/1999/xlink" x="0px" y="0px"
	 width="719.81px" height="719.81px" viewBox="0 0 719.81 719.81" style="enable-background:new 0 0 719.81 719.81;"
	 xml:space="preserve">
<style type="text/css">
	.st0{display:none;}
	.st1{fill:#CFCFCF;}
	.st2{fill:#F0DAB3;}
	.st3{fill:#F7C8DE;}
	.st4{fill:#F4C9D9;}
	.st5{fill:#BBE6AF;}
	.st6{fill:#97B58D;}
	.st7{fill:#FFFFFF;}
	.st8{fill:#DE985F;}
	.st9{fill:#F8C79C;}
	.st10{fill:#F4C79C;}
	.st11{fill:#F3B380;}
	.st12{fill:#F8F1E0;}
	.st13{fill:#ECD9B3;}
	.st14{fill:#EEDAB3;}
	.st15{fill:#363636;}
	.st16{fill:#FB7C7D;}
	.st17{fill:#F8B7B8;}
	.st18{fill:#F2D994;}
	.st19{fill:#F5D994;}
	.st20{fill:#A8D7A2;}
	.st21{fill:#A7D5A1;}
	.st22{fill:#9DD394;}
	.st23{fill:#35AC53;}
	.st24{fill:#34AB52;}
	.st25{fill:#80CA3B;}
	.st26{fill:#A7D4A1;}
	.st27{fill:#6B9466;}
	.st28{fill:#F9FCEA;}
	.st29{fill:#113B1D;}
	.st30{fill:#F9D6E5;}
	.st31{fill:#EEC0D2;}
	.st32{fill:#EDC0D0;}
	.st33{fill:#F5F6E6;}
	.st34{fill:#F7B280;}
	.st35{fill:#F9F7E6;}
	.st36{fill:#303030;}
	.st37{fill:#F88E91;}
	.st38{fill:none;stroke:#303030;stroke-width:7;stroke-linecap:round;stroke-miterlimit:10;}
	.st39{fill:#DEB781;}
	.st40{fill:#ECC38C;}
	.st41{fill:#E0BC89;}
	.st42{fill:none;stroke:#303030;stroke-width:4;stroke-linecap:round;stroke-miterlimit:10;}
	.st43{fill:#D6D6D6;}
	.st44{fill:#5987B0;}
	.st45{fill:#E8B384;}
	.st46{fill:#4F84B8;}
	.st47{fill:#B4D3E6;}
	.st48{fill:#3A5F82;}
	.st49{fill:#99BDD7;}
	.st50{fill:#464747;}
	.st51{fill:#D6A172;}
	.st52{fill:#94661B;}
	.st53{fill:none;}
	.st54{fill:#F2BD8F;}
	.st55{fill:#F8EDD9;}
	.st56{fill:#BF8667;}
	.st57{fill:#4D4D4D;}
	.st58{fill:none;stroke:#734318;stroke-width:4;stroke-linecap:round;stroke-miterlimit:10;}
	.st59{fill:#8F633D;}
	.st60{fill:#EBB98D;}
	.st61{fill:#BF8654;}
	.st62{fill:#F898B8;}
	.st63{fill:#F1A5BC;}
	.st64{fill:#FBD6E1;}
	.st65{fill:none;stroke:#916137;stroke-width:2;stroke-linecap:round;stroke-miterlimit:10;}
	.st66{fill:#F6D5B0;}
	.st67{fill:#BE8567;}
	.st68{fill:#F2C757;}
	.st69{fill:#F2F6F7;}
	.st70{fill:#EFC657;}
	.st71{fill:#DBDBDB;}
	.st72{fill:#F3F5F5;}
	.st73{fill:none;stroke:#F7C44C;stroke-width:7;stroke-miterlimit:10;}
	.st74{fill:none;stroke:#4A4A4A;stroke-width:7;stroke-miterlimit:10;}
	.st75{fill:#7A3131;}
	.st76{fill:#F97273;}
	.st77{fill:#F8B4B5;}
	.st78{fill:#F57073;}
	.st79{fill:#383838;}
	.st80{fill:#B34B4D;}
	.st81{fill:#595959;}
	.st82{fill:#C9E2EE;}
	.st83{fill:#13162E;}
	.st84{fill:#F3755E;}
	.st85{fill:#3C3F63;}
	.st86{fill:#F8BB5D;}
	.st87{fill:#F1755E;}
	.st88{fill:#F7BB5D;}
	.st89{fill:#F0755E;}
	.st90{fill:#3B4063;}
	.st91{fill:#FABC5E;}
	.st92{fill:#F4755E;}
	.st93{fill:#9E577C;}
	.st94{fill:#C92A0F;}
	.st95{fill:#292929;}
	.st96{fill:#F9AFD6;}
	.st97{fill:none;stroke:#F0755E;stroke-width:15;stroke-miterlimit:10;}
	.st98{fill:#D691B2;}
	.st99{fill:#F9DDE9;}
	.st100{fill:#997485;}
	.st101{fill:none;stroke:#5F3048;stroke-width:8;stroke-linecap:round;stroke-miterlimit:10;}
	.st102{fill:#E3E1E1;}
	.st103{fill:#BFBFBF;}
	.st104{fill:#A19D9E;}
	.st105{fill:#F0F0F0;}
	.st106{fill:#949494;}
	.st107{fill:#5F3048;}
	.st108{fill:#9E9898;}
	.st109{opacity:0.3412;fill:#525252;}
	.st110{fill:#EBEBEB;}
	.st111{fill:#242424;}
	.st112{fill:#3D3D3D;}
	.st113{fill:#525252;}
	.st114{fill:#4D3125;}
	.st115{fill:#F5CE53;}
	.st116{fill:#F1CE54;}
	.st117{fill:#F9F6D9;}
	.st118{fill:none;stroke:#000000;stroke-width:7;stroke-linecap:round;stroke-miterlimit:10;}
	.st119{fill:#EDEDED;}
	.st120{fill:#754A39;}
	.st121{fill:#F7B06E;}
	.st122{fill:#424242;}
	.st123{fill:#10100F;}
	.st124{fill:#DEC5DB;}
	.st125{fill:#594877;}
	.st126{fill:#9F8EBC;}
	.st127{fill:#79679C;}
	.st128{fill:#594878;}
	.st129{fill:#ECE3EE;}
	.st130{fill:#F8ACD4;}
	.st131{fill:#D989B4;}
	.st132{fill:#A4DB9B;}
	.st133{fill:#9E9E9E;}
	.st134{fill:#1C421C;}
	.st135{fill:#19431E;}
	.st136{fill:#13431F;}
	.st137{fill:#F9E8F1;}
	.st138{fill:#D4D4D4;}
	.st139{fill:#EA68B3;}
	.st140{fill:#BF5493;}
	.st141{fill:#F9B9D6;}
	.st142{fill:#D991AE;}
	.st143{fill:#F1B3CC;}
	.st144{fill:#F6B9D2;}
	.st145{fill:#212121;}
	.st146{fill:#F3B3D1;}
	.st147{fill:#BA759B;}
</style>
<g id="背景">
</g>
<g id="ガイド線" class="st0">
</g>
<g id="文字">
</g>
<g id="影">
</g>
<g id="レイヤー_6">
	<g id="レイヤー_8">
	</g>
	<path class="st84" d="M579.01,472.42c30.03,0,60.06-7.9,85.83-23.73c18.71-11.49,24.56-35.97,13.06-54.68
		c-11.49-18.71-35.97-24.56-54.68-13.06c-26.61,16.35-63.57,16.01-89.88-0.82c-26.31-16.83-42.1-50.25-38.41-81.26
		c2.6-21.8-12.97-41.58-34.78-44.18c-21.81-2.6-41.58,12.97-44.18,34.78c-7.28,61.12,22.66,124.47,74.51,157.64
		C516.85,463.96,547.93,472.41,579.01,472.42z"/>
	<path class="st87" d="M596.11,565.24c3.64,0,6.84-0.16,9.56-0.39c21.88-1.84,38.12-21.07,36.28-42.95
		c-1.84-21.88-21.08-38.12-42.95-36.28c-1.16,0.1-2.36,0.15-3.6,0.15c-31.19,0-86.67-30.21-102.22-56.46
		c-15.92-26.87-14.98-63.82,2.27-89.86c12.13-18.3,7.13-42.97-11.17-55.1c-18.3-12.13-42.97-7.13-55.1,11.17
		c-34,51.3-35.78,121.35-4.41,174.3c14.97,25.27,43.67,50.47,78.74,69.12C544.55,560.77,576.69,565.24,596.11,565.24z"/>
	<path class="st89" d="M254.09,626.1c-16.65,0-32.16-10.54-37.71-27.2c-6.94-20.83,4.32-43.34,25.16-50.28
		c30.05-10.01,54.37-40.8,59.13-74.88c4.83-34.56-10.35-72.21-36.92-91.56c-17.75-12.93-21.66-37.79-8.73-55.54
		c12.93-17.75,37.79-21.66,55.54-8.73c24.78,18.05,44.41,43.56,56.78,73.77c12.24,29.89,16.41,62.07,12.07,93.07
		c-8.93,63.83-54.24,119.81-112.75,139.3C262.49,625.44,258.25,626.1,254.09,626.1z"/>
	<path class="st89" d="M483.37,631.67c16.65,0,32.16-10.54,37.71-27.2c6.94-20.83-4.32-43.34-25.16-50.28
		c-30.05-10.01-54.37-40.8-59.13-74.88c-4.83-34.56,10.35-72.21,36.92-91.56c17.75-12.93,21.66-37.79,8.73-55.54
		c-12.93-17.75-37.79-21.66-55.54-8.73c-24.78,18.05-44.41,43.56-56.78,73.77c-12.24,29.89-16.41,62.07-12.07,93.07
		c8.93,63.83,54.24,119.81,112.75,139.3C474.97,631.01,479.2,631.67,483.37,631.67z"/>
	<path class="st92" d="M210.9,410.61c-56.3,0-111.61-32.53-141.04-84.28c-11.43-20.09-5.5-46.31,13.25-58.56
		c18.75-12.25,43.21-5.89,54.64,14.2c16.26,28.58,49.32,46.29,80.41,43.05c31.09-3.23,60.36-27.42,71.18-58.82
		c7.61-22.07,30.47-33.36,51.07-25.2c20.6,8.16,31.12,32.66,23.51,54.74c-21.33,61.88-76.82,107.74-138.08,114.11
		C220.86,410.36,215.87,410.61,210.9,410.61z"/>
	<path class="st84" d="M158.45,466.85c-30.03,0-60.06-7.9-85.83-23.73c-18.71-11.49-24.56-35.97-13.06-54.68
		c11.49-18.71,35.97-24.56,54.68-13.06c26.61,16.35,63.57,16.01,89.88-0.82c26.31-16.83,42.1-50.25,38.41-81.26
		c-2.6-21.8,12.97-41.58,34.78-44.18c21.81-2.6,41.58,12.97,44.18,34.78c7.28,61.12-22.66,124.47-74.51,157.64
		C220.61,458.39,189.53,466.85,158.45,466.85z"/>
	<path class="st87" d="M141.35,559.68c-3.64,0-6.84-0.16-9.56-0.39c-21.88-1.84-38.12-21.07-36.28-42.95
		c1.84-21.88,21.08-38.12,42.95-36.28c1.16,0.1,2.36,0.15,3.6,0.15c31.19,0,86.67-30.21,102.22-56.46
		c15.92-26.87,14.98-63.82-2.27-89.86c-12.13-18.3-7.13-42.97,11.17-55.1c18.3-12.13,42.97-7.13,55.1,11.17
		c34,51.3,35.78,121.35,4.41,174.3c-14.97,25.27-43.67,50.47-78.74,69.12C192.91,555.21,160.77,559.68,141.35,559.68z"/>
	<path class="st92" d="M526.56,416.18c56.3,0,111.61-32.53,141.04-84.28c11.43-20.09,5.5-46.31-13.25-58.56
		c-18.75-12.25-43.21-5.89-54.64,14.2c-16.26,28.58-49.32,46.29-80.41,43.05c-31.09-3.23-60.36-27.42-71.18-58.82
		c-7.61-22.07-30.47-33.36-51.07-25.2c-20.6,8.16-31.12,32.66-23.51,54.74c21.33,61.88,76.82,107.74,138.08,114.11
		C516.6,415.93,521.59,416.18,526.56,416.18z"/>
	<g>
		<path class="st94" d="M600.05,553.48c3.64,0,6.84-0.16,9.56-0.39c21.88-1.84,38.12-21.07,36.28-42.95
			c-1.84-21.88-21.08-38.12-42.95-36.28c-1.16,0.1-2.36,0.15-3.6,0.15c-31.19,0-86.67-30.21-102.22-56.46
			c-15.92-26.87-14.98-63.82,2.27-89.86c12.13-18.3,7.13-42.97-11.17-55.1c-18.3-12.13-42.97-7.13-55.1,11.17
			c-34,51.3-35.78,121.35-4.41,174.3c14.97,25.27,43.67,50.47,78.74,69.12C548.49,549.02,580.63,553.48,600.05,553.48z"/>
		<path class="st94" d="M491.93,621.86c16.65,0,32.16-10.54,37.71-27.2c6.94-20.83-4.32-43.34-25.16-50.28
			c-30.05-10.01-54.37-40.8-59.13-74.88c-4.83-34.56,10.35-72.21,36.92-91.56c17.75-12.93,21.66-37.79,8.73-55.54
			c-12.93-17.75-37.79-21.66-55.54-8.73c-24.78,18.05-44.41,43.56-56.78,73.77c-12.24,29.89-16.41,62.07-12.07,93.07
			c8.93,63.83,54.24,119.81,112.75,139.3C483.53,621.2,487.77,621.86,491.93,621.86z"/>
		<path class="st94" d="M221.54,398.46c-56.3,0-111.61-30.35-141.04-78.64c-11.43-18.75-5.5-43.21,13.25-54.64
			c18.75-11.43,43.21-5.5,54.64,13.25c16.26,26.67,49.32,43.19,80.41,40.17c31.09-3.02,60.36-25.59,71.18-54.88
			c7.61-20.6,30.47-31.12,51.07-23.51c20.6,7.61,31.12,30.47,23.51,51.07c-21.33,57.73-76.82,100.52-138.08,106.46
			C231.51,398.22,226.52,398.46,221.54,398.46z"/>
		<path class="st94" d="M158.45,455.09c-30.03,0-60.06-7.9-85.83-23.73c-18.71-11.49-24.56-35.97-13.06-54.68
			c11.49-18.71,35.97-24.56,54.68-13.06c26.61,16.35,63.57,16.01,89.88-0.82c26.31-16.83,42.1-50.25,38.41-81.26
			c-2.6-21.8,12.97-41.58,34.78-44.18c21.81-2.6,41.58,12.97,44.18,34.78c7.28,61.12-22.66,124.47-74.51,157.64
			C220.61,446.63,189.53,455.09,158.45,455.09z"/>
		<path class="st94" d="M245.52,616.3c-16.65,0-32.16-10.54-37.71-27.2c-6.94-20.83,4.32-43.34,25.16-50.28
			c30.05-10.01,54.37-40.8,59.13-74.88c4.83-34.56-10.35-72.21-36.92-91.56c-17.75-12.93-21.66-37.79-8.73-55.54
			c12.93-17.75,37.79-21.66,55.54-8.73c24.78,18.05,44.41,43.56,56.78,73.77c12.24,29.89,16.41,62.07,12.07,93.07
			c-8.93,63.83-54.24,119.81-112.75,139.3C253.93,615.64,249.69,616.3,245.52,616.3z"/>
		<path class="st94" d="M137.41,547.92c-3.64,0-6.84-0.16-9.56-0.39c-21.88-1.84-38.12-21.07-36.28-42.95
			c1.84-21.88,21.08-38.12,42.95-36.28c1.16,0.1,2.36,0.15,3.6,0.15c31.19,0,86.67-30.21,102.22-56.46
			c15.92-26.87,14.98-63.82-2.27-89.86c-12.13-18.3-7.13-42.97,11.17-55.1c18.3-12.13,42.97-7.13,55.1,11.17
			c34,51.3,35.78,121.35,4.41,174.3c-14.97,25.27-43.67,50.47-78.74,69.12C188.97,543.45,156.83,547.92,137.41,547.92z"/>
		<path class="st94" d="M515.92,404.02c56.3,0,111.61-30.35,141.04-78.64c11.43-18.75,5.5-43.21-13.25-54.64
			c-18.75-11.43-43.21-5.5-54.64,13.25c-16.26,26.67-49.32,43.19-80.41,40.17c-31.09-3.02-60.36-25.59-71.18-54.88
			c-7.61-20.6-30.47-31.12-51.07-23.51c-20.6,7.61-31.12,30.47-23.51,51.07c21.33,57.73,76.82,100.52,138.08,106.46
			C505.95,403.79,510.94,404.02,515.92,404.02z"/>
		<path class="st94" d="M579.01,460.66c30.03,0,60.06-7.9,85.83-23.73c18.71-11.49,24.56-35.97,13.06-54.68
			c-11.49-18.71-35.97-24.56-54.68-13.06c-26.61,16.35-63.57,16.01-89.88-0.82c-26.31-16.83-42.1-50.25-38.41-81.26
			c2.6-21.8-12.97-41.58-34.78-44.18c-21.81-2.6-41.58,12.97-44.18,34.78c-7.28,61.12,22.66,124.47,74.51,157.64
			C516.85,452.2,547.93,460.66,579.01,460.66z"/>
		<ellipse class="st94" cx="370.76" cy="242.63" rx="171.78" ry="154.49"/>
		<ellipse class="st94" cx="370.76" cy="373.42" rx="171.78" ry="84.97"/>
	</g>
	<circle class="st95" cx="300.37" cy="294.81" r="11.24"/>
	<circle class="st95" cx="437.67" cy="294.81" r="11.24"/>
	<circle class="st97" cx="368.73" cy="300.48" r="21.66"/>
</g>
<g id="レイヤー_9">
</g>
<g id="レイヤー_7">
</g>
</svg>
