<?xml version="1.0" encoding="UTF-8"?>
<svg id="_レイヤー_6" data-name="レイヤー 6" xmlns="http://www.w3.org/2000/svg" width="719.81" height="719.81" viewBox="0 0 719.81 719.81">
  <defs>
    <style>
      .cls-1 {
        fill: #543c21;
      }

      .cls-2 {
        fill: #7d5c2d;
      }

      .cls-3 {
        fill: #fff;
      }

      .cls-4 {
        fill: #c6746d;
      }

      .cls-5 {
        fill: #9f7135;
      }

      .cls-6 {
        fill: #f2b370;
      }

      .cls-7 {
        fill: #978067;
      }

      .cls-8 {
        fill: #7c5b2e;
      }

      .cls-9 {
        fill: #bbbfc4;
        opacity: .4;
      }

      .cls-10 {
        fill: #9f7136;
      }

      .cls-11 {
        fill: #996a00;
      }

      .cls-12 {
        fill: #f0e0c8;
      }
    </style>
  </defs>
  <g>
    <path class="cls-11" d="M252.08,532.55c-.49-1.93-1.48-3.75-2.99-5.26l-1.22-1.22c-.32-5.84-4.98-10.5-10.82-10.82l-4.29-4.29c-4.48-4.48-11.74-4.48-16.22,0l-4.31,4.31c-5.44.53-9.77,4.86-10.3,10.3l-34.26,34.26c-4.48,4.48-4.48,11.74,0,16.22l16.32,16.32c4.48,4.48,11.74,4.48,16.22,0l1.65-1.65v5.08c0,6.34,5.14,11.47,11.47,11.47h23.09c6.34,0,11.47-5.14,11.47-11.47v-2.34l3.59,3.59c4.48,4.48,11.74,4.48,16.22,0l16.32-16.32c4.48-4.48,4.48-11.74,0-16.22l-31.96-31.96Z"/>
    <path class="cls-2" d="M197.12,563.63c7.09,5.37,15.17,9.43,23.75,11.81,4.34,1.2,8.73,1.86,13.2,2.29,4.53.44,9.1.38,13.62-.13,9.08-1.02,17.94-3.88,25.96-8.24,3.24-1.76,6.33-3.77,9.25-6.01l-30.81-30.81c-.49-1.93-1.48-3.75-2.99-5.26l-1.22-1.22c-.32-5.84-4.98-10.5-10.82-10.82l-4.29-4.29c-4.48-4.48-11.74-4.48-16.22,0l-4.31,4.31c-5.44.53-9.77,4.86-10.3,10.3l-20.9,20.9c4.33,6.58,9.81,12.4,16.09,17.16Z"/>
    <path class="cls-11" d="M584.52,572.2l-31.96-31.96c-.49-1.93-1.48-3.75-2.99-5.26l-1.22-1.22c-.32-5.84-4.98-10.5-10.82-10.82l-4.29-4.29c-4.48-4.48-11.74-4.48-16.22,0l-4.31,4.31c-5.44.53-9.77,4.86-10.3,10.3l-34.26,34.26c-4.48,4.48-4.48,11.74,0,16.22l16.32,16.32c4.48,4.48,11.74,4.48,16.22,0l1.65-1.65v5.08c0,6.34,5.14,11.47,11.47,11.47h23.09c6.34,0,11.47-5.14,11.47-11.47v-2.34l3.59,3.59c4.48,4.48,11.74,4.48,16.22,0l16.32-16.32c4.48-4.48,4.48-11.74,0-16.22Z"/>
    <path class="cls-2" d="M493.19,573.09c8.33,2.06,17,2.72,25.53,1.83,4.16-.43,8.29-1.26,12.33-2.35,3.8-1.03,7.51-2.38,11.08-4.04,7.18-3.33,13.8-7.84,19.57-13.25,1.01-.95,1.99-1.94,2.95-2.94l-12.1-12.1c-.49-1.93-1.48-3.75-2.99-5.26l-1.22-1.22c-.32-5.84-4.98-10.5-10.82-10.82l-4.29-4.29c-4.48-4.48-11.74-4.48-16.22,0l-4.31,4.31c-5.44.53-9.77,4.86-10.3,10.3l-30.82,30.82c6.68,4.09,13.99,7.13,21.6,9.01Z"/>
    <path class="cls-4" d="M157.77,460.52c0-167.35,73.35-303.02,215.08-303.02s215.08,135.67,215.08,303.02-137.58,88.82-213.62,88.82c-76.04,0-216.54,78.53-216.54-88.82Z"/>
    <path class="cls-6" d="M157.77,460.52c0-167.35,73.35-303.02,215.08-303.02s215.08,135.67,215.08,303.02-137.58,88.82-213.62,88.82c-76.04,0-216.54,78.53-216.54-88.82Z"/>
    <path class="cls-12" d="M374.31,549.35c27.15,0,62.15,10.01,95.93,15.27v-38.79c0-48.89-39.63-88.52-88.52-88.52h-19.18c-48.89,0-88.52,39.63-88.52,88.52v39.31c35.34-5.08,72.21-15.79,100.29-15.79Z"/>
    <path class="cls-6" d="M261.61,204.33c-25.51.57-51.01,1.14-76.52,1.71-7.35.16-15.29.54-21.02,5.32-9.2,7.68-7.7,23.93.7,32.54,8.4,8.61,21.2,10.84,32.97,9.97,32.45-2.38,62.4-26.74,63.87-49.54Z"/>
    <path class="cls-6" d="M476.68,204.33c25.51.57,51.01,1.14,76.52,1.71,7.35.16,15.29.54,21.02,5.32,9.2,7.68,7.7,23.93-.7,32.54-8.4,8.61-21.2,10.84-32.97,9.97-32.45-2.38-62.4-26.74-63.87-49.54Z"/>
    <path class="cls-11" d="M181.95,517.97l-11.28-11.28c-.18-.67-.51-1.31-1.04-1.84l-.44-.44c-.12-2.04-1.74-3.67-3.79-3.79l-1.52-1.52c-1.58-1.58-4.14-1.58-5.72,0l-1.54,1.54c-1.9.2-3.39,1.69-3.58,3.58l-12.09,12.09c-1.58,1.58-1.58,4.14,0,5.72l5.75,5.75c1.58,1.58,4.14,1.58,5.72,0l.58-.58v1.79c0,2.23,1.81,4.04,4.04,4.04h8.13c2.23,0,4.04-1.81,4.04-4.04v-.82l1.27,1.27c1.58,1.58,4.14,1.58,5.72,0l5.75-5.75c1.58-1.58,1.58-4.14,0-5.72Z"/>
    <path class="cls-2" d="M153.74,506.19c3.77,2.75,8.4,4.28,13.05,4.49,2.39.11,4.8-.14,7.1-.75l-3.23-3.23c-.18-.67-.51-1.31-1.04-1.84l-.44-.44c-.12-2.04-1.74-3.67-3.79-3.79l-1.52-1.52c-1.58-1.58-4.14-1.58-5.72,0l-1.54,1.54c-1.9.2-3.39,1.69-3.58,3.58l-.76.76c.47.42.96.82,1.47,1.19Z"/>
    <path class="cls-11" d="M610.27,510.47l-14.85-8.49c-.69-1.78-2.52-2.83-4.4-2.52l-1.89-1.08c-1.94-1.11-4.41-.44-5.52,1.5l-1.07,1.87c-1.94.65-3.08,2.65-2.66,4.65l-.31.54c-.37.65-.52,1.35-.52,2.04l-7.92,13.85c-1.11,1.94-.44,4.41,1.5,5.52l7.06,4.04c1.94,1.11,4.41.44,5.52-1.5l.89-1.55.22.8c.59,2.15,2.81,3.42,4.96,2.84l7.85-2.14c2.15-.59,3.42-2.81,2.84-4.96l-.47-1.73.72.41c1.94,1.11,4.41.44,5.52-1.5l4.04-7.06c1.11-1.94.44-4.41-1.5-5.52Z"/>
    <path class="cls-8" d="M581.38,512.88c7.35,1.24,15.19-1.83,19.7-7.67l-5.65-3.23c-.69-1.78-2.52-2.83-4.4-2.52l-1.89-1.08c-1.94-1.11-4.41-.44-5.52,1.5l-1.07,1.87c-1.94.65-3.08,2.65-2.66,4.65l-.31.54c-.37.65-.52,1.35-.52,2.04l-1.6,2.8c1.26.49,2.57.86,3.92,1.09Z"/>
    <path class="cls-6" d="M239.14,458.64c-.23,1.34-.48,2.67-.74,4-14.83,74.5-127.64,55.25-116.93-19.95.19-1.34.4-2.68.63-4.02,9.27-54.33,47.93-95.98,68.58-114.84,6.76-6.18,17.52-4.34,21.85,3.73,13.22,24.64,35.88,76.76,26.61,131.09Z"/>
    <path class="cls-6" d="M516.18,460.62c.23,1.34.48,2.67.74,4,14.83,74.5,127.64,55.25,116.93-19.95-.19-1.34-.4-2.68-.63-4.02-9.27-54.33-47.93-95.98-68.58-114.84-6.76-6.18-17.52-4.34-21.85,3.73-13.22,24.64-35.88,76.76-26.61,131.09Z"/>
    <circle class="cls-1" cx="280.57" cy="348.11" r="11.77"/>
    <circle class="cls-1" cx="465.02" cy="348.58" r="11.77"/>
    <path class="cls-3" d="M370.16,377.06h16.68v25.48h-16.68c-7.03,0-12.74-5.71-12.74-12.74h0c0-7.03,5.71-12.74,12.74-12.74Z"/>
    <path class="cls-9" d="M362.51,394.59c-3.19-5.21-3.79-11.91-1.36-17.53h-3.73v12.21c0,7.33,5.94,13.27,13.27,13.27h2.33c-4.31-1.27-8.11-4.03-10.51-7.96Z"/>
    <ellipse class="cls-1" cx="372.85" cy="322.12" rx="28.16" ry="20.18"/>
    <path class="cls-1" d="M372.9,380.83h-.09c-17.63-.03-35.31-8.69-46.13-22.61-1.28-1.64-.98-4.01.66-5.29,1.65-1.28,4.02-.98,5.29.66,9.43,12.13,24.82,19.68,40.18,19.7h.08c15.33,0,30.72-7.49,40.17-19.57,1.28-1.64,3.65-1.93,5.29-.65s1.93,3.65.65,5.29c-10.85,13.86-28.51,22.46-46.11,22.46Z"/>
    <path class="cls-1" d="M372.13,376.09c-2.08,0-3.77-1.69-3.77-3.77v-48.4c0-2.08,1.69-3.77,3.77-3.77s3.77,1.69,3.77,3.77v48.4c0,2.08-1.69,3.77-3.77,3.77Z"/>
    <rect class="cls-1" x="261.61" y="291.23" width="30.73" height="11.29" rx="5.64" ry="5.64"/>
    <rect class="cls-1" x="451.66" y="291.23" width="30.73" height="11.29" rx="5.64" ry="5.64"/>
    <path class="cls-10" d="M197.38,504.72c15.3-9.02,25.83-24.63,32.08-41.26,6.26-16.62,8.67-34.4,11.04-52,.25,18.79-.56,38.03-7.47,55.5-6.9,17.48-20.93,33.09-35.66,37.76Z"/>
    <path class="cls-10" d="M567.81,509.75c-16.25-7.16-28.54-21.42-36.71-37.19-8.17-15.77-12.66-33.14-17.09-50.34,1.96,18.69,5.03,37.7,13.95,54.24,8.91,16.54,24.68,30.4,39.86,33.3Z"/>
    <path class="cls-5" d="M242.84,213.12c-11.63,8.18-21.15,19.35-27.38,32.13,3.8-15.29,15.55-28.36,27.38-32.13Z"/>
    <path class="cls-5" d="M504.37,213.61c11.92,7.77,21.82,18.59,28.5,31.15-4.34-15.14-16.54-27.79-28.5-31.15Z"/>
    <circle class="cls-7" cx="357.42" cy="320.14" r="5.52"/>
  </g>
  <g>
    <path class="cls-11" d="M252.08,532.55c-.49-1.93-1.48-3.75-2.99-5.26l-1.22-1.22c-.32-5.84-4.98-10.5-10.82-10.82l-4.29-4.29c-4.48-4.48-11.74-4.48-16.22,0l-4.31,4.31c-5.44.53-9.77,4.86-10.3,10.3l-34.26,34.26c-4.48,4.48-4.48,11.74,0,16.22l16.32,16.32c4.48,4.48,11.74,4.48,16.22,0l1.65-1.65v5.08c0,6.34,5.14,11.47,11.47,11.47h23.09c6.34,0,11.47-5.14,11.47-11.47v-2.34l3.59,3.59c4.48,4.48,11.74,4.48,16.22,0l16.32-16.32c4.48-4.48,4.48-11.74,0-16.22l-31.96-31.96Z"/>
    <path class="cls-2" d="M197.12,563.63c7.09,5.37,15.17,9.43,23.75,11.81,4.34,1.2,8.73,1.86,13.2,2.29,4.53.44,9.1.38,13.62-.13,9.08-1.02,17.94-3.88,25.96-8.24,3.24-1.76,6.33-3.77,9.25-6.01l-30.81-30.81c-.49-1.93-1.48-3.75-2.99-5.26l-1.22-1.22c-.32-5.84-4.98-10.5-10.82-10.82l-4.29-4.29c-4.48-4.48-11.74-4.48-16.22,0l-4.31,4.31c-5.44.53-9.77,4.86-10.3,10.3l-20.9,20.9c4.33,6.58,9.81,12.4,16.09,17.16Z"/>
    <path class="cls-11" d="M584.52,572.2l-31.96-31.96c-.49-1.93-1.48-3.75-2.99-5.26l-1.22-1.22c-.32-5.84-4.98-10.5-10.82-10.82l-4.29-4.29c-4.48-4.48-11.74-4.48-16.22,0l-4.31,4.31c-5.44.53-9.77,4.86-10.3,10.3l-34.26,34.26c-4.48,4.48-4.48,11.74,0,16.22l16.32,16.32c4.48,4.48,11.74,4.48,16.22,0l1.65-1.65v5.08c0,6.34,5.14,11.47,11.47,11.47h23.09c6.34,0,11.47-5.14,11.47-11.47v-2.34l3.59,3.59c4.48,4.48,11.74,4.48,16.22,0l16.32-16.32c4.48-4.48,4.48-11.74,0-16.22Z"/>
    <path class="cls-2" d="M493.19,573.09c8.33,2.06,17,2.72,25.53,1.83,4.16-.43,8.29-1.26,12.33-2.35,3.8-1.03,7.51-2.38,11.08-4.04,7.18-3.33,13.8-7.84,19.57-13.25,1.01-.95,1.99-1.94,2.95-2.94l-12.1-12.1c-.49-1.93-1.48-3.75-2.99-5.26l-1.22-1.22c-.32-5.84-4.98-10.5-10.82-10.82l-4.29-4.29c-4.48-4.48-11.74-4.48-16.22,0l-4.31,4.31c-5.44.53-9.77,4.86-10.3,10.3l-30.82,30.82c6.68,4.09,13.99,7.13,21.6,9.01Z"/>
    <path class="cls-4" d="M157.77,460.52c0-167.35,73.35-303.02,215.08-303.02s215.08,135.67,215.08,303.02-137.58,88.82-213.62,88.82c-76.04,0-216.54,78.53-216.54-88.82Z"/>
    <path class="cls-6" d="M157.77,460.52c0-167.35,73.35-303.02,215.08-303.02s215.08,135.67,215.08,303.02-137.58,88.82-213.62,88.82c-76.04,0-216.54,78.53-216.54-88.82Z"/>
    <path class="cls-12" d="M374.31,549.35c27.15,0,62.15,10.01,95.93,15.27v-38.79c0-48.89-39.63-88.52-88.52-88.52h-19.18c-48.89,0-88.52,39.63-88.52,88.52v39.31c35.34-5.08,72.21-15.79,100.29-15.79Z"/>
    <path class="cls-6" d="M261.61,204.33c-25.51.57-51.01,1.14-76.52,1.71-7.35.16-15.29.54-21.02,5.32-9.2,7.68-7.7,23.93.7,32.54,8.4,8.61,21.2,10.84,32.97,9.97,32.45-2.38,62.4-26.74,63.87-49.54Z"/>
    <path class="cls-6" d="M476.68,204.33c25.51.57,51.01,1.14,76.52,1.71,7.35.16,15.29.54,21.02,5.32,9.2,7.68,7.7,23.93-.7,32.54-8.4,8.61-21.2,10.84-32.97,9.97-32.45-2.38-62.4-26.74-63.87-49.54Z"/>
    <path class="cls-11" d="M181.95,517.97l-11.28-11.28c-.18-.67-.51-1.31-1.04-1.84l-.44-.44c-.12-2.04-1.74-3.67-3.79-3.79l-1.52-1.52c-1.58-1.58-4.14-1.58-5.72,0l-1.54,1.54c-1.9.2-3.39,1.69-3.58,3.58l-12.09,12.09c-1.58,1.58-1.58,4.14,0,5.72l5.75,5.75c1.58,1.58,4.14,1.58,5.72,0l.58-.58v1.79c0,2.23,1.81,4.04,4.04,4.04h8.13c2.23,0,4.04-1.81,4.04-4.04v-.82l1.27,1.27c1.58,1.58,4.14,1.58,5.72,0l5.75-5.75c1.58-1.58,1.58-4.14,0-5.72Z"/>
    <path class="cls-2" d="M153.74,506.19c3.77,2.75,8.4,4.28,13.05,4.49,2.39.11,4.8-.14,7.1-.75l-3.23-3.23c-.18-.67-.51-1.31-1.04-1.84l-.44-.44c-.12-2.04-1.74-3.67-3.79-3.79l-1.52-1.52c-1.58-1.58-4.14-1.58-5.72,0l-1.54,1.54c-1.9.2-3.39,1.69-3.58,3.58l-.76.76c.47.42.96.82,1.47,1.19Z"/>
    <path class="cls-11" d="M610.27,510.47l-14.85-8.49c-.69-1.78-2.52-2.83-4.4-2.52l-1.89-1.08c-1.94-1.11-4.41-.44-5.52,1.5l-1.07,1.87c-1.94.65-3.08,2.65-2.66,4.65l-.31.54c-.37.65-.52,1.35-.52,2.04l-7.92,13.85c-1.11,1.94-.44,4.41,1.5,5.52l7.06,4.04c1.94,1.11,4.41.44,5.52-1.5l.89-1.55.22.8c.59,2.15,2.81,3.42,4.96,2.84l7.85-2.14c2.15-.59,3.42-2.81,2.84-4.96l-.47-1.73.72.41c1.94,1.11,4.41.44,5.52-1.5l4.04-7.06c1.11-1.94.44-4.41-1.5-5.52Z"/>
    <path class="cls-8" d="M581.38,512.88c7.35,1.24,15.19-1.83,19.7-7.67l-5.65-3.23c-.69-1.78-2.52-2.83-4.4-2.52l-1.89-1.08c-1.94-1.11-4.41-.44-5.52,1.5l-1.07,1.87c-1.94.65-3.08,2.65-2.66,4.65l-.31.54c-.37.65-.52,1.35-.52,2.04l-1.6,2.8c1.26.49,2.57.86,3.92,1.09Z"/>
    <path class="cls-6" d="M239.14,458.64c-.23,1.34-.48,2.67-.74,4-14.83,74.5-127.64,55.25-116.93-19.95.19-1.34.4-2.68.63-4.02,9.27-54.33,47.93-95.98,68.58-114.84,6.76-6.18,17.52-4.34,21.85,3.73,13.22,24.64,35.88,76.76,26.61,131.09Z"/>
    <path class="cls-6" d="M516.18,460.62c.23,1.34.48,2.67.74,4,14.83,74.5,127.64,55.25,116.93-19.95-.19-1.34-.4-2.68-.63-4.02-9.27-54.33-47.93-95.98-68.58-114.84-6.76-6.18-17.52-4.34-21.85,3.73-13.22,24.64-35.88,76.76-26.61,131.09Z"/>
    <circle class="cls-1" cx="280.57" cy="348.11" r="11.77"/>
    <circle class="cls-1" cx="465.02" cy="348.58" r="11.77"/>
    <path class="cls-3" d="M370.16,377.06h16.68v25.48h-16.68c-7.03,0-12.74-5.71-12.74-12.74h0c0-7.03,5.71-12.74,12.74-12.74Z"/>
    <path class="cls-9" d="M362.51,394.59c-3.19-5.21-3.79-11.91-1.36-17.53h-3.73v12.21c0,7.33,5.94,13.27,13.27,13.27h2.33c-4.31-1.27-8.11-4.03-10.51-7.96Z"/>
    <ellipse class="cls-1" cx="372.85" cy="322.12" rx="28.16" ry="20.18"/>
    <path class="cls-1" d="M372.9,380.83h-.09c-17.63-.03-35.31-8.69-46.13-22.61-1.28-1.64-.98-4.01.66-5.29,1.65-1.28,4.02-.98,5.29.66,9.43,12.13,24.82,19.68,40.18,19.7h.08c15.33,0,30.72-7.49,40.17-19.57,1.28-1.64,3.65-1.93,5.29-.65s1.93,3.65.65,5.29c-10.85,13.86-28.51,22.46-46.11,22.46Z"/>
    <path class="cls-1" d="M372.13,376.09c-2.08,0-3.77-1.69-3.77-3.77v-48.4c0-2.08,1.69-3.77,3.77-3.77s3.77,1.69,3.77,3.77v48.4c0,2.08-1.69,3.77-3.77,3.77Z"/>
    <rect class="cls-1" x="261.61" y="291.23" width="30.73" height="11.29" rx="5.64" ry="5.64"/>
    <rect class="cls-1" x="451.66" y="291.23" width="30.73" height="11.29" rx="5.64" ry="5.64"/>
    <path class="cls-10" d="M197.38,504.72c15.3-9.02,25.83-24.63,32.08-41.26,6.26-16.62,8.67-34.4,11.04-52,.25,18.79-.56,38.03-7.47,55.5-6.9,17.48-20.93,33.09-35.66,37.76Z"/>
    <path class="cls-10" d="M567.81,509.75c-16.25-7.16-28.54-21.42-36.71-37.19-8.17-15.77-12.66-33.14-17.09-50.34,1.96,18.69,5.03,37.7,13.95,54.24,8.91,16.54,24.68,30.4,39.86,33.3Z"/>
    <path class="cls-5" d="M242.84,213.12c-11.63,8.18-21.15,19.35-27.38,32.13,3.8-15.29,15.55-28.36,27.38-32.13Z"/>
    <path class="cls-5" d="M504.37,213.61c11.92,7.77,21.82,18.59,28.5,31.15-4.34-15.14-16.54-27.79-28.5-31.15Z"/>
    <circle class="cls-7" cx="357.42" cy="320.14" r="5.52"/>
  </g>
  <path class="cls-11" d="M252.08,532.55c-.49-1.93-1.48-3.75-2.99-5.26l-1.22-1.22c-.32-5.84-4.98-10.5-10.82-10.82l-4.29-4.29c-4.48-4.48-11.74-4.48-16.22,0l-4.31,4.31c-5.44.53-9.77,4.86-10.3,10.3l-34.26,34.26c-4.48,4.48-4.48,11.74,0,16.22l16.32,16.32c4.48,4.48,11.74,4.48,16.22,0l1.65-1.65v5.08c0,6.34,5.14,11.47,11.47,11.47h23.09c6.34,0,11.47-5.14,11.47-11.47v-2.34l3.59,3.59c4.48,4.48,11.74,4.48,16.22,0l16.32-16.32c4.48-4.48,4.48-11.74,0-16.22l-31.96-31.96Z"/>
  <path class="cls-2" d="M197.12,563.63c7.09,5.37,15.17,9.43,23.75,11.81,4.34,1.2,8.73,1.86,13.2,2.29,4.53.44,9.1.38,13.62-.13,9.08-1.02,17.94-3.88,25.96-8.24,3.24-1.76,6.33-3.77,9.25-6.01l-30.81-30.81c-.49-1.93-1.48-3.75-2.99-5.26l-1.22-1.22c-.32-5.84-4.98-10.5-10.82-10.82l-4.29-4.29c-4.48-4.48-11.74-4.48-16.22,0l-4.31,4.31c-5.44.53-9.77,4.86-10.3,10.3l-20.9,20.9c4.33,6.58,9.81,12.4,16.09,17.16Z"/>
  <path class="cls-11" d="M584.52,572.2l-31.96-31.96c-.49-1.93-1.48-3.75-2.99-5.26l-1.22-1.22c-.32-5.84-4.98-10.5-10.82-10.82l-4.29-4.29c-4.48-4.48-11.74-4.48-16.22,0l-4.31,4.31c-5.44.53-9.77,4.86-10.3,10.3l-34.26,34.26c-4.48,4.48-4.48,11.74,0,16.22l16.32,16.32c4.48,4.48,11.74,4.48,16.22,0l1.65-1.65v5.08c0,6.34,5.14,11.47,11.47,11.47h23.09c6.34,0,11.47-5.14,11.47-11.47v-2.34l3.59,3.59c4.48,4.48,11.74,4.48,16.22,0l16.32-16.32c4.48-4.48,4.48-11.74,0-16.22Z"/>
  <path class="cls-2" d="M493.19,573.09c8.33,2.06,17,2.72,25.53,1.83,4.16-.43,8.29-1.26,12.33-2.35,3.8-1.03,7.51-2.38,11.08-4.04,7.18-3.33,13.8-7.84,19.57-13.25,1.01-.95,1.99-1.94,2.95-2.94l-12.1-12.1c-.49-1.93-1.48-3.75-2.99-5.26l-1.22-1.22c-.32-5.84-4.98-10.5-10.82-10.82l-4.29-4.29c-4.48-4.48-11.74-4.48-16.22,0l-4.31,4.31c-5.44.53-9.77,4.86-10.3,10.3l-30.82,30.82c6.68,4.09,13.99,7.13,21.6,9.01Z"/>
  <path class="cls-4" d="M157.77,460.52c0-167.35,73.35-303.02,215.08-303.02s215.08,135.67,215.08,303.02-137.58,88.82-213.62,88.82c-76.04,0-216.54,78.53-216.54-88.82Z"/>
  <path class="cls-6" d="M157.77,460.52c0-167.35,73.35-303.02,215.08-303.02s215.08,135.67,215.08,303.02-137.58,88.82-213.62,88.82c-76.04,0-216.54,78.53-216.54-88.82Z"/>
  <path class="cls-12" d="M374.31,549.35c27.15,0,62.15,10.01,95.93,15.27v-38.79c0-48.89-39.63-88.52-88.52-88.52h-19.18c-48.89,0-88.52,39.63-88.52,88.52v39.31c35.34-5.08,72.21-15.79,100.29-15.79Z"/>
  <path class="cls-6" d="M261.61,204.33c-25.51.57-51.01,1.14-76.52,1.71-7.35.16-15.29.54-21.02,5.32-9.2,7.68-7.7,23.93.7,32.54,8.4,8.61,21.2,10.84,32.97,9.97,32.45-2.38,62.4-26.74,63.87-49.54Z"/>
  <path class="cls-6" d="M476.68,204.33c25.51.57,51.01,1.14,76.52,1.71,7.35.16,15.29.54,21.02,5.32,9.2,7.68,7.7,23.93-.7,32.54-8.4,8.61-21.2,10.84-32.97,9.97-32.45-2.38-62.4-26.74-63.87-49.54Z"/>
  <path class="cls-11" d="M181.95,517.97l-11.28-11.28c-.18-.67-.51-1.31-1.04-1.84l-.44-.44c-.12-2.04-1.74-3.67-3.79-3.79l-1.52-1.52c-1.58-1.58-4.14-1.58-5.72,0l-1.54,1.54c-1.9.2-3.39,1.69-3.58,3.58l-12.09,12.09c-1.58,1.58-1.58,4.14,0,5.72l5.75,5.75c1.58,1.58,4.14,1.58,5.72,0l.58-.58v1.79c0,2.23,1.81,4.04,4.04,4.04h8.13c2.23,0,4.04-1.81,4.04-4.04v-.82l1.27,1.27c1.58,1.58,4.14,1.58,5.72,0l5.75-5.75c1.58-1.58,1.58-4.14,0-5.72Z"/>
  <path class="cls-2" d="M153.74,506.19c3.77,2.75,8.4,4.28,13.05,4.49,2.39.11,4.8-.14,7.1-.75l-3.23-3.23c-.18-.67-.51-1.31-1.04-1.84l-.44-.44c-.12-2.04-1.74-3.67-3.79-3.79l-1.52-1.52c-1.58-1.58-4.14-1.58-5.72,0l-1.54,1.54c-1.9.2-3.39,1.69-3.58,3.58l-.76.76c.47.42.96.82,1.47,1.19Z"/>
  <path class="cls-11" d="M610.27,510.47l-14.85-8.49c-.69-1.78-2.52-2.83-4.4-2.52l-1.89-1.08c-1.94-1.11-4.41-.44-5.52,1.5l-1.07,1.87c-1.94.65-3.08,2.65-2.66,4.65l-.31.54c-.37.65-.52,1.35-.52,2.04l-7.92,13.85c-1.11,1.94-.44,4.41,1.5,5.52l7.06,4.04c1.94,1.11,4.41.44,5.52-1.5l.89-1.55.22.8c.59,2.15,2.81,3.42,4.96,2.84l7.85-2.14c2.15-.59,3.42-2.81,2.84-4.96l-.47-1.73.72.41c1.94,1.11,4.41.44,5.52-1.5l4.04-7.06c1.11-1.94.44-4.41-1.5-5.52Z"/>
  <path class="cls-8" d="M581.38,512.88c7.35,1.24,15.19-1.83,19.7-7.67l-5.65-3.23c-.69-1.78-2.52-2.83-4.4-2.52l-1.89-1.08c-1.94-1.11-4.41-.44-5.52,1.5l-1.07,1.87c-1.94.65-3.08,2.65-2.66,4.65l-.31.54c-.37.65-.52,1.35-.52,2.04l-1.6,2.8c1.26.49,2.57.86,3.92,1.09Z"/>
  <path class="cls-6" d="M239.14,458.64c-.23,1.34-.48,2.67-.74,4-14.83,74.5-127.64,55.25-116.93-19.95.19-1.34.4-2.68.63-4.02,9.27-54.33,47.93-95.98,68.58-114.84,6.76-6.18,17.52-4.34,21.85,3.73,13.22,24.64,35.88,76.76,26.61,131.09Z"/>
  <path class="cls-6" d="M516.18,460.62c.23,1.34.48,2.67.74,4,14.83,74.5,127.64,55.25,116.93-19.95-.19-1.34-.4-2.68-.63-4.02-9.27-54.33-47.93-95.98-68.58-114.84-6.76-6.18-17.52-4.34-21.85,3.73-13.22,24.64-35.88,76.76-26.61,131.09Z"/>
  <circle class="cls-1" cx="280.57" cy="348.11" r="11.77"/>
  <circle class="cls-1" cx="465.02" cy="348.58" r="11.77"/>
  <ellipse class="cls-1" cx="372.85" cy="322.12" rx="28.16" ry="20.18"/>
  <path class="cls-1" d="M372.13,376.09c-2.08,0-3.77-1.69-3.77-3.77v-48.4c0-2.08,1.69-3.77,3.77-3.77s3.77,1.69,3.77,3.77v48.4c0,2.08-1.69,3.77-3.77,3.77Z"/>
  <rect class="cls-1" x="261.61" y="291.23" width="30.73" height="11.29" rx="5.64" ry="5.64"/>
  <rect class="cls-1" x="451.66" y="291.23" width="30.73" height="11.29" rx="5.64" ry="5.64"/>
  <path class="cls-3" d="M384.26,374.86h-24.26c-1.03,0-1.87.84-1.87,1.87v14.13c0,7.73,6.27,14,14,14s14-6.27,14-14v-14.13c0-1.03-.84-1.87-1.87-1.87Z"/>
  <path class="cls-10" d="M197.38,504.72c15.3-9.02,25.83-24.63,32.08-41.26,6.26-16.62,8.67-34.4,11.04-52,.25,18.79-.56,38.03-7.47,55.5-6.9,17.48-20.93,33.09-35.66,37.76Z"/>
  <path class="cls-10" d="M567.81,509.75c-16.25-7.16-28.54-21.42-36.71-37.19-8.17-15.77-12.66-33.14-17.09-50.34,1.96,18.69,5.03,37.7,13.95,54.24,8.91,16.54,24.68,30.4,39.86,33.3Z"/>
  <path class="cls-1" d="M372.9,380.83h-.09c-17.63-.03-35.31-8.69-46.13-22.61-1.28-1.64-.98-4.01.66-5.29,1.65-1.28,4.02-.98,5.29.66,9.43,12.13,24.82,19.68,40.18,19.7h.08c15.33,0,30.72-7.49,40.17-19.57,1.28-1.64,3.65-1.93,5.29-.65s1.93,3.65.65,5.29c-10.85,13.86-28.51,22.46-46.11,22.46Z"/>
  <path class="cls-5" d="M242.84,213.12c-11.63,8.18-21.15,19.35-27.38,32.13,3.8-15.29,15.55-28.36,27.38-32.13Z"/>
  <path class="cls-5" d="M504.37,213.61c11.92,7.77,21.82,18.59,28.5,31.15-4.34-15.14-16.54-27.79-28.5-31.15Z"/>
  <circle class="cls-7" cx="357.42" cy="320.14" r="5.52"/>
</svg>