<?xml version="1.0" encoding="utf-8"?>
<!-- Generator: Adobe Adobe Illustrator 24.2.0, SVG Export Plug-In . SVG Version: 6.00 Build 0)  -->
<svg version="1.1" xmlns="http://www.w3.org/2000/svg" xmlns:xlink="http://www.w3.org/1999/xlink" x="0px" y="0px"
	 width="719.81px" height="719.81px" viewBox="0 0 719.81 719.81" style="enable-background:new 0 0 719.81 719.81;"
	 xml:space="preserve">
<style type="text/css">
	.st0{display:none;}
	.st1{fill:#CFCFCF;}
	.st2{fill:#F0DAB3;}
	.st3{fill:#F7C8DE;}
	.st4{fill:#F4C9D9;}
	.st5{fill:#BBE6AF;}
	.st6{fill:#97B58D;}
	.st7{fill:#FFFFFF;}
	.st8{fill:#DE985F;}
	.st9{fill:#F8C79C;}
	.st10{fill:#F4C79C;}
	.st11{fill:#F3B380;}
	.st12{fill:#F8F1E0;}
	.st13{fill:#ECD9B3;}
	.st14{fill:#EEDAB3;}
	.st15{fill:#363636;}
	.st16{fill:#FB7C7D;}
	.st17{fill:#F8B7B8;}
	.st18{fill:#F2D994;}
	.st19{fill:#F5D994;}
	.st20{fill:#A8D7A2;}
	.st21{fill:#A7D5A1;}
	.st22{fill:#9DD394;}
	.st23{fill:#35AC53;}
	.st24{fill:#34AB52;}
	.st25{fill:#80CA3B;}
	.st26{fill:#A7D4A1;}
	.st27{fill:#6B9466;}
	.st28{fill:#F9FCEA;}
	.st29{fill:#113B1D;}
	.st30{fill:#F9D6E5;}
	.st31{fill:#EEC0D2;}
	.st32{fill:#EDC0D0;}
	.st33{fill:#F5F6E6;}
	.st34{fill:#F7B280;}
	.st35{fill:#F9F7E6;}
	.st36{fill:#303030;}
	.st37{fill:#F88E91;}
	.st38{fill:none;stroke:#303030;stroke-width:7;stroke-linecap:round;stroke-miterlimit:10;}
	.st39{fill:#DEB781;}
	.st40{fill:#ECC38C;}
	.st41{fill:#E0BC89;}
	.st42{fill:none;stroke:#303030;stroke-width:4;stroke-linecap:round;stroke-miterlimit:10;}
	.st43{fill:#D6D6D6;}
	.st44{fill:#5987B0;}
	.st45{fill:#E8B384;}
	.st46{fill:#4F84B8;}
	.st47{fill:#B4D3E6;}
	.st48{fill:#3A5F82;}
	.st49{fill:#99BDD7;}
	.st50{fill:#464747;}
	.st51{fill:#D6A172;}
	.st52{fill:#94661B;}
	.st53{fill:none;}
	.st54{fill:#F2BD8F;}
	.st55{fill:#F8EDD9;}
	.st56{fill:#BF8667;}
	.st57{fill:#4D4D4D;}
	.st58{fill:none;stroke:#734318;stroke-width:4;stroke-linecap:round;stroke-miterlimit:10;}
	.st59{fill:#8F633D;}
	.st60{fill:#EBB98D;}
	.st61{fill:#BF8654;}
	.st62{fill:#F898B8;}
	.st63{fill:#F1A5BC;}
	.st64{fill:#FBD6E1;}
	.st65{fill:none;stroke:#916137;stroke-width:2;stroke-linecap:round;stroke-miterlimit:10;}
	.st66{fill:#F6D5B0;}
	.st67{fill:#BE8567;}
	.st68{fill:#F2C757;}
	.st69{fill:#F2F6F7;}
	.st70{fill:#EFC657;}
	.st71{fill:#DBDBDB;}
	.st72{fill:#F3F5F5;}
	.st73{fill:none;stroke:#F7C44C;stroke-width:7;stroke-miterlimit:10;}
	.st74{fill:none;stroke:#4A4A4A;stroke-width:7;stroke-miterlimit:10;}
	.st75{fill:#7A3131;}
	.st76{fill:#F97273;}
	.st77{fill:#F8B4B5;}
	.st78{fill:#F57073;}
	.st79{fill:#383838;}
	.st80{fill:#B34B4D;}
	.st81{fill:#595959;}
	.st82{fill:#C9E2EE;}
	.st83{fill:#13162E;}
	.st84{fill:#F3755E;}
	.st85{fill:#3C3F63;}
	.st86{fill:#F8BB5D;}
	.st87{fill:#F1755E;}
	.st88{fill:#F7BB5D;}
	.st89{fill:#F0755E;}
	.st90{fill:#3B4063;}
	.st91{fill:#FABC5E;}
	.st92{fill:#F4755E;}
	.st93{fill:#9E577C;}
	.st94{fill:#C92A0F;}
	.st95{fill:#292929;}
	.st96{fill:#F9AFD6;}
	.st97{fill:none;stroke:#F0755E;stroke-width:15;stroke-miterlimit:10;}
	.st98{fill:#D691B2;}
	.st99{fill:#F9DDE9;}
	.st100{fill:#997485;}
	.st101{fill:none;stroke:#5F3048;stroke-width:8;stroke-linecap:round;stroke-miterlimit:10;}
	.st102{fill:#E3E1E1;}
	.st103{fill:#BFBFBF;}
	.st104{fill:#A19D9E;}
	.st105{fill:#F0F0F0;}
	.st106{fill:#949494;}
	.st107{fill:#5F3048;}
	.st108{fill:#9E9898;}
	.st109{opacity:0.3412;fill:#525252;}
	.st110{fill:#EBEBEB;}
	.st111{fill:#242424;}
	.st112{fill:#3D3D3D;}
	.st113{fill:#525252;}
	.st114{fill:#4D3125;}
	.st115{fill:#F5CE53;}
	.st116{fill:#F1CE54;}
	.st117{fill:#F9F6D9;}
	.st118{fill:none;stroke:#000000;stroke-width:7;stroke-linecap:round;stroke-miterlimit:10;}
	.st119{fill:#EDEDED;}
	.st120{fill:#754A39;}
	.st121{fill:#F7B06E;}
	.st122{fill:#424242;}
	.st123{fill:#10100F;}
	.st124{fill:#DEC5DB;}
	.st125{fill:#594877;}
	.st126{fill:#9F8EBC;}
	.st127{fill:#79679C;}
	.st128{fill:#594878;}
	.st129{fill:#ECE3EE;}
	.st130{fill:#F8ACD4;}
	.st131{fill:#D989B4;}
	.st132{fill:#A4DB9B;}
	.st133{fill:#9E9E9E;}
	.st134{fill:#1C421C;}
	.st135{fill:#19431E;}
	.st136{fill:#13431F;}
	.st137{fill:#F9E8F1;}
	.st138{fill:#D4D4D4;}
	.st139{fill:#EA68B3;}
	.st140{fill:#BF5493;}
	.st141{fill:#F9B9D6;}
	.st142{fill:#D991AE;}
	.st143{fill:#F1B3CC;}
	.st144{fill:#F6B9D2;}
	.st145{fill:#212121;}
	.st146{fill:#F3B3D1;}
	.st147{fill:#BA759B;}
</style>
<g id="背景">
</g>
<g id="ガイド線" class="st0">
</g>
<g id="文字">
</g>
<g id="影">
</g>
<g id="レイヤー_6">
	<g id="レイヤー_8">
	</g>
	<g>
		<path class="st75" d="M197.22,550.82l58.31,58.31c5.35,5.35,5.35,14.01,0,19.36l-19.48,19.48c-5.35,5.35-14.01,5.35-19.36,0
			l-58.31-58.31c-5.35-5.35-5.35-14.01,0-19.36l19.48-19.48C183.21,545.47,191.87,545.47,197.22,550.82z"/>
		<path class="st75" d="M212.41,564v82.47c0,7.56-6.13,13.69-13.69,13.69h-27.55c-7.56,0-13.69-6.13-13.69-13.69V564
			c0-7.56,6.13-13.69,13.69-13.69h27.55C206.28,550.32,212.41,556.44,212.41,564z"/>
		<path class="st75" d="M213.83,584.07l-58.31,58.31c-5.35,5.35-14.01,5.35-19.36,0l-19.48-19.48c-5.35-5.35-5.35-14.01,0-19.36
			l58.31-58.31c5.35-5.35,14.01-5.35,19.36,0l19.48,19.48C219.17,570.06,219.17,578.73,213.83,584.07z"/>
	</g>
	<g>
		<path class="st75" d="M555.27,550.82l58.31,58.31c5.35,5.35,5.35,14.01,0,19.36l-19.48,19.48c-5.35,5.35-14.01,5.35-19.36,0
			l-58.31-58.31c-5.35-5.35-5.35-14.01,0-19.36l19.48-19.48C541.26,545.47,549.93,545.47,555.27,550.82z"/>
		<path class="st75" d="M570.46,564v82.47c0,7.56-6.13,13.69-13.69,13.69h-27.55c-7.56,0-13.69-6.13-13.69-13.69V564
			c0-7.56,6.13-13.69,13.69-13.69h27.55C564.34,550.32,570.46,556.44,570.46,564z"/>
		<path class="st75" d="M571.88,584.07l-58.31,58.31c-5.35,5.35-14.01,5.35-19.36,0l-19.48-19.48c-5.35-5.35-5.35-14.01,0-19.36
			l58.31-58.31c5.35-5.35,14.01-5.35,19.36,0l19.48,19.48C577.23,570.06,577.23,578.73,571.88,584.07z"/>
	</g>
	<path class="st76" d="M104.48,459.84c0-199.69,87.52-361.56,256.64-361.56c161.61,0,256.64,161.88,256.64,361.56
		S453.6,565.82,362.86,565.82S104.48,659.52,104.48,459.84z"/>
	<path class="st76" d="M104.48,459.84c0-199.69,87.52-361.56,256.64-361.56c161.61,0,256.64,161.88,256.64,361.56
		S453.6,565.82,362.86,565.82S104.48,659.52,104.48,459.84z"/>
	<path class="st77" d="M243.2,594.31v-56.55c0-58.33,47.29-105.62,105.62-105.62h22.88c58.33,0,105.62,47.29,105.62,105.62v56.55
		H243.2z"/>
	<path class="st76" d="M228.39,154.15c-30.43,0.68-60.87,1.36-91.3,2.04c-8.77,0.2-18.25,0.65-25.09,6.35
		c-10.98,9.16-9.19,28.56,0.83,38.83c10.03,10.27,25.29,12.93,39.34,11.9C190.9,210.42,226.63,181.35,228.39,154.15z"/>
	<path class="st76" d="M485.01,154.15c30.43,0.68,60.87,1.36,91.3,2.04c8.77,0.2,18.25,0.65,25.09,6.35
		c10.98,9.16,9.19,28.56-0.83,38.83c-10.03,10.27-25.29,12.93-39.34,11.9C522.5,210.42,486.77,181.35,485.01,154.15z"/>
	<g>
		<path class="st75" d="M112.79,507.84l20.55,20.55c1.88,1.88,1.88,4.94,0,6.82l-6.86,6.86c-1.88,1.88-4.94,1.88-6.82,0L99.1,521.53
			c-1.88-1.88-1.88-4.94,0-6.82l6.86-6.86C107.85,505.96,110.9,505.96,112.79,507.84z"/>
		<path class="st75" d="M118.14,512.49v29.06c0,2.66-2.16,4.82-4.82,4.82h-9.71c-2.66,0-4.82-2.16-4.82-4.82v-29.06
			c0-2.66,2.16-4.82,4.82-4.82h9.71C115.98,507.67,118.14,509.82,118.14,512.49z"/>
		<path class="st75" d="M118.64,519.56l-20.55,20.55c-1.88,1.88-4.94,1.88-6.82,0l-6.86-6.86c-1.88-1.88-1.88-4.94,0-6.82
			l20.55-20.55c1.88-1.88,4.94-1.88,6.82,0l6.86,6.86C120.52,514.62,120.52,517.68,118.64,519.56z"/>
	</g>
	<path class="st78" d="M201.01,458.88c-0.27,1.6-0.57,3.19-0.88,4.77c-17.7,88.9-152.3,65.93-139.52-23.81
		c0.23-1.6,0.48-3.19,0.75-4.79c11.06-64.83,57.19-114.52,81.83-137.03c8.07-7.37,20.9-5.18,26.07,4.45
		C185.03,331.87,212.07,394.06,201.01,458.88z"/>
	<g>
		<path class="st75" d="M618.15,509.99l-14.42,25.23c-1.32,2.31-0.52,5.26,1.79,6.58l8.43,4.82c2.31,1.32,5.26,0.52,6.58-1.79
			l14.42-25.23c1.32-2.31,0.52-5.26-1.79-6.58l-8.43-4.82C622.42,506.87,619.48,507.68,618.15,509.99z"/>
		<path class="st75" d="M614.21,515.88l7.64,28.04c0.7,2.57,3.35,4.09,5.92,3.39l9.36-2.55c2.57-0.7,4.09-3.35,3.39-5.92
			l-7.64-28.04c-0.7-2.57-3.35-4.09-5.92-3.39l-9.36,2.55C615.03,510.66,613.51,513.31,614.21,515.88z"/>
		<path class="st75" d="M615.59,522.83l25.23,14.42c2.31,1.32,5.26,0.52,6.58-1.79l4.82-8.43c1.32-2.31,0.52-5.26-1.79-6.58
			l-25.23-14.42c-2.31-1.32-5.26-0.52-6.58,1.79l-4.82,8.43C612.47,518.57,613.27,521.51,615.59,522.83z"/>
	</g>
	<path class="st78" d="M532.14,459.95c0.27,1.6,0.57,3.19,0.88,4.77c17.7,88.9,152.3,65.93,139.52-23.81
		c-0.23-1.6-0.48-3.19-0.75-4.79c-11.06-64.83-57.19-114.52-81.83-137.03c-8.07-7.37-20.9-5.18-26.07,4.45
		C548.12,332.94,521.08,395.13,532.14,459.95z"/>
	<circle class="st79" cx="251.01" cy="325.71" r="14.04"/>
	<circle class="st79" cx="471.1" cy="326.27" r="14.04"/>
	<path class="st7" d="M342.71,374.82v-14.57h35.11v14.57c0,8.75-7.09,15.84-15.84,15.84h-3.43
		C349.8,390.66,342.71,383.57,342.71,374.82z"/>
	<ellipse class="st79" cx="361.12" cy="294.7" rx="33.6" ry="24.07"/>
	<path class="st79" d="M361.18,364.75c-0.04,0-0.07,0-0.1,0c-21.04-0.03-42.13-10.37-55.04-26.98c-1.53-1.96-1.17-4.79,0.79-6.31
		c1.96-1.52,4.79-1.17,6.31,0.79c11.25,14.47,29.62,23.48,47.95,23.51c0.03,0,0.06,0,0.09,0c18.3,0,36.65-8.94,47.93-23.35
		c1.53-1.96,4.36-2.3,6.32-0.77s2.3,4.36,0.77,6.32C403.25,354.48,382.18,364.75,361.18,364.75z"/>
	<path class="st79" d="M360.26,359.09c-2.49,0-4.5-2.01-4.5-4.5v-57.75c0-2.49,2.01-4.5,4.5-4.5s4.5,2.01,4.5,4.5v57.75
		C364.76,357.07,362.75,359.09,360.26,359.09z"/>
	<path class="st79" d="M228.39,265.23v-1.32c0-3.36,2.72-6.08,6.08-6.08h24.52c3.36,0,6.08,2.72,6.08,6.08v1.32
		c0,3.36-2.72,6.08-6.08,6.08h-24.52C231.11,271.31,228.39,268.59,228.39,265.23z"/>
	<path class="st79" d="M455.16,265.23v-1.32c0-3.36,2.72-6.08,6.08-6.08h24.52c3.36,0,6.08,2.72,6.08,6.08v1.32
		c0,3.36-2.72,6.08-6.08,6.08h-24.52C457.88,271.31,455.16,268.59,455.16,265.23z"/>
	<path class="st80" d="M177.9,497.45c16.06-13.83,25.12-34.39,28.95-55.23c3.83-20.84,2.91-42.23,1.97-63.4
		c4.27,22.01,7.38,44.77,2.97,66.75S194.21,488.86,177.9,497.45z"/>
	<path class="st80" d="M562.28,497.45c-16.06-13.83-25.12-34.39-28.95-55.23c-3.83-20.84-2.91-42.23-1.97-63.4
		c-4.27,22.01-7.38,44.77-2.97,66.75C532.8,467.55,545.96,488.86,562.28,497.45z"/>
</g>
<g id="レイヤー_9">
</g>
<g id="レイヤー_7">
</g>
</svg>
