<?xml version="1.0" encoding="utf-8"?>
<!-- Generator: Adobe Adobe Illustrator 24.2.0, SVG Export Plug-In . SVG Version: 6.00 Build 0)  -->
<svg version="1.1" xmlns="http://www.w3.org/2000/svg" xmlns:xlink="http://www.w3.org/1999/xlink" x="0px" y="0px"
	 width="719.81px" height="719.81px" viewBox="0 0 719.81 719.81" style="enable-background:new 0 0 719.81 719.81;"
	 xml:space="preserve">
<style type="text/css">
	.st0{display:none;}
	.st1{fill:#CFCFCF;}
	.st2{fill:#F0DAB3;}
	.st3{fill:#F7C8DE;}
	.st4{fill:#F4C9D9;}
	.st5{fill:#BBE6AF;}
	.st6{fill:#97B58D;}
	.st7{fill:#FFFFFF;}
	.st8{fill:#DE985F;}
	.st9{fill:#F8C79C;}
	.st10{fill:#F4C79C;}
	.st11{fill:#F3B380;}
	.st12{fill:#F8F1E0;}
	.st13{fill:#ECD9B3;}
	.st14{fill:#EEDAB3;}
	.st15{fill:#363636;}
	.st16{fill:#FB7C7D;}
	.st17{fill:#F8B7B8;}
	.st18{fill:#F2D994;}
	.st19{fill:#F5D994;}
	.st20{fill:#A8D7A2;}
	.st21{fill:#A7D5A1;}
	.st22{fill:#9DD394;}
	.st23{fill:#35AC53;}
	.st24{fill:#34AB52;}
	.st25{fill:#80CA3B;}
	.st26{fill:#A7D4A1;}
	.st27{fill:#6B9466;}
	.st28{fill:#F9FCEA;}
	.st29{fill:#113B1D;}
	.st30{fill:#F9D6E5;}
	.st31{fill:#EEC0D2;}
	.st32{fill:#EDC0D0;}
	.st33{fill:#F5F6E6;}
	.st34{fill:#F7B280;}
	.st35{fill:#F9F7E6;}
	.st36{fill:#303030;}
	.st37{fill:#F88E91;}
	.st38{fill:none;stroke:#303030;stroke-width:7;stroke-linecap:round;stroke-miterlimit:10;}
	.st39{fill:#DEB781;}
	.st40{fill:#ECC38C;}
	.st41{fill:#E0BC89;}
	.st42{fill:none;stroke:#303030;stroke-width:4;stroke-linecap:round;stroke-miterlimit:10;}
	.st43{fill:#D6D6D6;}
	.st44{fill:#5987B0;}
	.st45{fill:#E8B384;}
	.st46{fill:#4F84B8;}
	.st47{fill:#B4D3E6;}
	.st48{fill:#3A5F82;}
	.st49{fill:#99BDD7;}
	.st50{fill:#464747;}
	.st51{fill:#D6A172;}
	.st52{fill:#94661B;}
	.st53{fill:none;}
	.st54{fill:#F2BD8F;}
	.st55{fill:#F8EDD9;}
	.st56{fill:#BF8667;}
	.st57{fill:#4D4D4D;}
	.st58{fill:none;stroke:#734318;stroke-width:4;stroke-linecap:round;stroke-miterlimit:10;}
	.st59{fill:#8F633D;}
	.st60{fill:#EBB98D;}
	.st61{fill:#BF8654;}
	.st62{fill:#F898B8;}
	.st63{fill:#F1A5BC;}
	.st64{fill:#FBD6E1;}
	.st65{fill:none;stroke:#916137;stroke-width:2;stroke-linecap:round;stroke-miterlimit:10;}
	.st66{fill:#F6D5B0;}
	.st67{fill:#BE8567;}
	.st68{fill:#F2C757;}
	.st69{fill:#F2F6F7;}
	.st70{fill:#EFC657;}
	.st71{fill:#DBDBDB;}
	.st72{fill:#F3F5F5;}
	.st73{fill:none;stroke:#F7C44C;stroke-width:7;stroke-miterlimit:10;}
	.st74{fill:none;stroke:#4A4A4A;stroke-width:7;stroke-miterlimit:10;}
	.st75{fill:#7A3131;}
	.st76{fill:#F97273;}
	.st77{fill:#F8B4B5;}
	.st78{fill:#F57073;}
	.st79{fill:#383838;}
	.st80{fill:#B34B4D;}
	.st81{fill:#595959;}
	.st82{fill:#C9E2EE;}
	.st83{fill:#13162E;}
	.st84{fill:#F3755E;}
	.st85{fill:#3C3F63;}
	.st86{fill:#F8BB5D;}
	.st87{fill:#F1755E;}
	.st88{fill:#F7BB5D;}
	.st89{fill:#F0755E;}
	.st90{fill:#3B4063;}
	.st91{fill:#FABC5E;}
	.st92{fill:#F4755E;}
	.st93{fill:#9E577C;}
	.st94{fill:#C92A0F;}
	.st95{fill:#292929;}
	.st96{fill:#F9AFD6;}
	.st97{fill:none;stroke:#F0755E;stroke-width:15;stroke-miterlimit:10;}
	.st98{fill:#D691B2;}
	.st99{fill:#F9DDE9;}
	.st100{fill:#997485;}
	.st101{fill:none;stroke:#5F3048;stroke-width:8;stroke-linecap:round;stroke-miterlimit:10;}
	.st102{fill:#E3E1E1;}
	.st103{fill:#BFBFBF;}
	.st104{fill:#A19D9E;}
	.st105{fill:#F0F0F0;}
	.st106{fill:#949494;}
	.st107{fill:#5F3048;}
	.st108{fill:#9E9898;}
	.st109{opacity:0.3412;fill:#525252;}
	.st110{fill:#EBEBEB;}
	.st111{fill:#242424;}
	.st112{fill:#3D3D3D;}
	.st113{fill:#525252;}
	.st114{fill:#4D3125;}
	.st115{fill:#F5CE53;}
	.st116{fill:#F1CE54;}
	.st117{fill:#F9F6D9;}
	.st118{fill:none;stroke:#000000;stroke-width:7;stroke-linecap:round;stroke-miterlimit:10;}
	.st119{fill:#EDEDED;}
	.st120{fill:#754A39;}
	.st121{fill:#F7B06E;}
	.st122{fill:#424242;}
	.st123{fill:#10100F;}
	.st124{fill:#DEC5DB;}
	.st125{fill:#594877;}
	.st126{fill:#9F8EBC;}
	.st127{fill:#79679C;}
	.st128{fill:#594878;}
	.st129{fill:#ECE3EE;}
	.st130{fill:#F8ACD4;}
	.st131{fill:#D989B4;}
	.st132{fill:#A4DB9B;}
	.st133{fill:#9E9E9E;}
	.st134{fill:#1C421C;}
	.st135{fill:#19431E;}
	.st136{fill:#13431F;}
	.st137{fill:#F9E8F1;}
	.st138{fill:#D4D4D4;}
	.st139{fill:#EA68B3;}
	.st140{fill:#BF5493;}
	.st141{fill:#F9B9D6;}
	.st142{fill:#D991AE;}
	.st143{fill:#F1B3CC;}
	.st144{fill:#F6B9D2;}
	.st145{fill:#212121;}
	.st146{fill:#F3B3D1;}
	.st147{fill:#BA759B;}
</style>
<g id="背景">
</g>
<g id="ガイド線" class="st0">
</g>
<g id="文字">
</g>
<g id="影">
</g>
<g id="レイヤー_6">
	<g id="レイヤー_8">
	</g>
	
		<rect x="391" y="377.45" transform="matrix(0.9705 0.2409 -0.2409 0.9705 139.8248 -79.7717)" class="st93" width="10.3" height="309.02"/>
	<g>
		<rect x="339.5" y="327.56" class="st93" width="13.2" height="206.01"/>
		
			<rect x="420" y="484.13" transform="matrix(0.5895 -0.8078 0.8078 0.5895 -299.153 585.6118)" class="st93" width="13.2" height="206.01"/>
	</g>
	<path class="st96" d="M338.56,316.04c3.54-13.08-6.25-25.73-15.66-35.49c-29.5-30.6-63.05-58.84-103.14-72.97
		s-87.84-12.01-121.48,13.97c11.3,49.14,47.22,91.97,93.64,111.67S294.09,348.99,338.56,316.04z"/>
	<path class="st96" d="M339.19,251.55c-10.14,3.35-19.94-6.51-16.15-16.49c0.76-1.99,1.67-3.92,2.72-5.72
		c4.74-8.21,11.73-14.63,18.07-21.52c18.1-19.66,31.7-44.55,35.88-71.72s-1.72-56.58-18.28-77.95s-44.17-33.43-69.59-27.77
		c-25.42,5.66-46.61,30.27-47.12,57.81c-0.51,27.55,21.78,54.3,47.79,54.77c7.77,0.14,15.49-1.81,23.24-1.24
		c7.75,0.57,16.14,4.57,18.7,12.35c3.58,10.87-5.6,21.25-13.7,28.83c-29.23,27.35-56.49,59.45-67.88,99.03
		c-11.39,39.58-3.17,87.95,28.1,113.09c23.7,19.05,55.25,21.72,84.87,23.34c35.38,1.94,71.12,3.43,105.94-3.17
		c17.6-3.33,35.36-9.01,49.15-21.01c29.3-25.52,32.14-75.87,11.33-109.78c-20.81-33.91-60.09-51.71-98.14-52.51
		C401.75,231.21,370.17,241.33,339.19,251.55z"/>
	<path class="st98" d="M252.86,281.93c-1.17,4.06-2.12,8.21-2.87,12.42c2.97-8.21,6.39-16.27,10.24-24.11
		c6.72-13.65,14.74-26.66,23.92-38.8c9.3-12.3,19.79-23.61,31.37-33.78c11.3-9.93,24.42-22.5,22.52-39.04
		c-0.77-6.69-4.43-12.76-10.63-15.62c-3.3-1.52-7.06-2.01-10.49-1.16c7.41,0.87,15.08,4.84,17.52,12.24
		c3.58,10.87-5.6,21.25-13.7,28.83C291.51,210.25,264.25,242.35,252.86,281.93z"/>
	<g>
		<path class="st99" d="M287.38,76.99c-4.98-11-14.88-19.65-26.44-23.13s-24.59-1.72-34.81,4.7c-2.33,1.46-4.68,3.41-5.13,6.12
			c-0.45,2.76,1.2,5.37,2.77,7.68c5.21,7.62,10.52,15.36,17.71,21.14s16.65,9.45,25.7,7.61C276.23,99.26,284.1,90.76,287.38,76.99z"
			/>
		<path class="st99" d="M287.38,76.99c-1.16-12.02-14.88-19.65-26.44-23.13c-0.82-0.25-1.65-0.46-2.48-0.65
			c0.82,2.04,1.36,4.2,1.61,6.44c1.05,9.71-2.97,19.41-9.58,26.4c-2.7,2.85-5.72,5.32-8.93,7.51c7.18,5.76,16.62,9.4,25.64,7.56
			C276.23,99.26,288.74,91.08,287.38,76.99z"/>
		<path class="st100" d="M239.9,92.13c7.45-4.98,13.93-11.5,16.75-20.21c2.02-6.24,2.14-13.32-0.62-19.21
			c-10.23-1.75-21.1,0.31-29.9,5.84c-2.33,1.46-4.68,3.41-5.13,6.12c-0.45,2.76,1.2,5.37,2.77,7.68
			C228.59,79.4,233.51,86.52,239.9,92.13z"/>
	</g>
	<path class="st96" d="M359.11,279.91c-4.38-13.49,4.22-27.17,12.64-37.82c26.42-33.4,56.95-64.52,94.82-81.22
		s84.35-16.82,118.84,8.68c-7.45,51.87-39.21,98.35-82.83,121.17C458.96,313.55,404.6,312.16,359.11,279.91z"/>
	<path class="st101" d="M300.49,75.49c1.25-3,2.99-5.89,5.57-7.86c2.58-1.98,6.12-2.9,9.17-1.79c2.87,1.05,4.93,3.77,5.75,6.71
		s0.55,6.1-0.14,9.08"/>
	<circle class="st93" cx="344.99" cy="524.23" r="15.72"/>
	<circle class="st93" cx="390.94" cy="547.29" r="15.72"/>
	<ellipse class="st107" cx="341.85" cy="681.81" rx="22.41" ry="9.01"/>
	
		<ellipse transform="matrix(0.7071 -0.7071 0.7071 0.7071 -316.4216 542.468)" class="st107" cx="496.61" cy="653.19" rx="22.41" ry="9.01"/>
</g>
<g id="レイヤー_9">
</g>
<g id="レイヤー_7">
</g>
</svg>
