<?xml version="1.0" encoding="utf-8"?>
<!-- Generator: Adobe Adobe Illustrator 24.2.0, SVG Export Plug-In . SVG Version: 6.00 Build 0)  -->
<svg version="1.1" xmlns="http://www.w3.org/2000/svg" xmlns:xlink="http://www.w3.org/1999/xlink" x="0px" y="0px"
	 width="719.81px" height="719.81px" viewBox="0 0 719.81 719.81" style="enable-background:new 0 0 719.81 719.81;"
	 xml:space="preserve">
<style type="text/css">
	.st0{display:none;}
	.st1{fill:#CFCFCF;}
	.st2{fill:#F0DAB3;}
	.st3{fill:#F7C8DE;}
	.st4{fill:#F4C9D9;}
	.st5{fill:#BBE6AF;}
	.st6{fill:#97B58D;}
	.st7{fill:#FFFFFF;}
	.st8{fill:#DE985F;}
	.st9{fill:#F8C79C;}
	.st10{fill:#F4C79C;}
	.st11{fill:#F3B380;}
	.st12{fill:#F8F1E0;}
	.st13{fill:#ECD9B3;}
	.st14{fill:#EEDAB3;}
	.st15{fill:#363636;}
	.st16{fill:#FB7C7D;}
	.st17{fill:#F8B7B8;}
	.st18{fill:#F2D994;}
	.st19{fill:#F5D994;}
	.st20{fill:#A8D7A2;}
	.st21{fill:#A7D5A1;}
	.st22{fill:#9DD394;}
	.st23{fill:#35AC53;}
	.st24{fill:#34AB52;}
	.st25{fill:#80CA3B;}
	.st26{fill:#A7D4A1;}
	.st27{fill:#6B9466;}
	.st28{fill:#F9FCEA;}
	.st29{fill:#113B1D;}
	.st30{fill:#F9D6E5;}
	.st31{fill:#EEC0D2;}
	.st32{fill:#EDC0D0;}
	.st33{fill:#F5F6E6;}
	.st34{fill:#F7B280;}
	.st35{fill:#F9F7E6;}
	.st36{fill:#303030;}
	.st37{fill:#F88E91;}
	.st38{fill:none;stroke:#303030;stroke-width:7;stroke-linecap:round;stroke-miterlimit:10;}
	.st39{fill:#DEB781;}
	.st40{fill:#ECC38C;}
	.st41{fill:#E0BC89;}
	.st42{fill:none;stroke:#303030;stroke-width:4;stroke-linecap:round;stroke-miterlimit:10;}
	.st43{fill:#D6D6D6;}
	.st44{fill:#5987B0;}
	.st45{fill:#E8B384;}
	.st46{fill:#4F84B8;}
	.st47{fill:#B4D3E6;}
	.st48{fill:#3A5F82;}
	.st49{fill:#99BDD7;}
	.st50{fill:#464747;}
	.st51{fill:#D6A172;}
	.st52{fill:#94661B;}
	.st53{fill:none;}
	.st54{fill:#F2BD8F;}
	.st55{fill:#F8EDD9;}
	.st56{fill:#BF8667;}
	.st57{fill:#4D4D4D;}
	.st58{fill:none;stroke:#734318;stroke-width:4;stroke-linecap:round;stroke-miterlimit:10;}
	.st59{fill:#8F633D;}
	.st60{fill:#EBB98D;}
	.st61{fill:#BF8654;}
	.st62{fill:#F898B8;}
	.st63{fill:#F1A5BC;}
	.st64{fill:#FBD6E1;}
	.st65{fill:none;stroke:#916137;stroke-width:2;stroke-linecap:round;stroke-miterlimit:10;}
	.st66{fill:#F6D5B0;}
	.st67{fill:#BE8567;}
	.st68{fill:#F2C757;}
	.st69{fill:#F2F6F7;}
	.st70{fill:#EFC657;}
	.st71{fill:#DBDBDB;}
	.st72{fill:#F3F5F5;}
	.st73{fill:none;stroke:#F7C44C;stroke-width:7;stroke-miterlimit:10;}
	.st74{fill:none;stroke:#4A4A4A;stroke-width:7;stroke-miterlimit:10;}
	.st75{fill:#7A3131;}
	.st76{fill:#F97273;}
	.st77{fill:#F8B4B5;}
	.st78{fill:#F57073;}
	.st79{fill:#383838;}
	.st80{fill:#B34B4D;}
	.st81{fill:#595959;}
	.st82{fill:#C9E2EE;}
	.st83{fill:#13162E;}
	.st84{fill:#F3755E;}
	.st85{fill:#3C3F63;}
	.st86{fill:#F8BB5D;}
	.st87{fill:#F1755E;}
	.st88{fill:#F7BB5D;}
	.st89{fill:#F0755E;}
	.st90{fill:#3B4063;}
	.st91{fill:#FABC5E;}
	.st92{fill:#F4755E;}
	.st93{fill:#9E577C;}
	.st94{fill:#C92A0F;}
	.st95{fill:#292929;}
	.st96{fill:#F9AFD6;}
	.st97{fill:none;stroke:#F0755E;stroke-width:15;stroke-miterlimit:10;}
	.st98{fill:#D691B2;}
	.st99{fill:#F9DDE9;}
	.st100{fill:#997485;}
	.st101{fill:none;stroke:#5F3048;stroke-width:8;stroke-linecap:round;stroke-miterlimit:10;}
	.st102{fill:#E3E1E1;}
	.st103{fill:#BFBFBF;}
	.st104{fill:#A19D9E;}
	.st105{fill:#F0F0F0;}
	.st106{fill:#949494;}
	.st107{fill:#5F3048;}
	.st108{fill:#9E9898;}
	.st109{opacity:0.3412;fill:#525252;}
	.st110{fill:#EBEBEB;}
	.st111{fill:#242424;}
	.st112{fill:#3D3D3D;}
	.st113{fill:#525252;}
	.st114{fill:#4D3125;}
	.st115{fill:#F5CE53;}
	.st116{fill:#F1CE54;}
	.st117{fill:#F9F6D9;}
	.st118{fill:none;stroke:#000000;stroke-width:7;stroke-linecap:round;stroke-miterlimit:10;}
	.st119{fill:#EDEDED;}
	.st120{fill:#754A39;}
	.st121{fill:#F7B06E;}
	.st122{fill:#424242;}
	.st123{fill:#10100F;}
	.st124{fill:#DEC5DB;}
	.st125{fill:#594877;}
	.st126{fill:#9F8EBC;}
	.st127{fill:#79679C;}
	.st128{fill:#594878;}
	.st129{fill:#ECE3EE;}
	.st130{fill:#F8ACD4;}
	.st131{fill:#D989B4;}
	.st132{fill:#A4DB9B;}
	.st133{fill:#9E9E9E;}
	.st134{fill:#1C421C;}
	.st135{fill:#19431E;}
	.st136{fill:#13431F;}
	.st137{fill:#F9E8F1;}
	.st138{fill:#D4D4D4;}
	.st139{fill:#EA68B3;}
	.st140{fill:#BF5493;}
	.st141{fill:#F9B9D6;}
	.st142{fill:#D991AE;}
	.st143{fill:#F1B3CC;}
	.st144{fill:#F6B9D2;}
	.st145{fill:#212121;}
	.st146{fill:#F3B3D1;}
	.st147{fill:#BA759B;}
</style>
<g id="背景">
</g>
<g id="ガイド線" class="st0">
</g>
<g id="文字">
</g>
<g id="影">
</g>
<g id="レイヤー_6">
	<g id="レイヤー_8">
	</g>
	<g>
		<path class="st82" d="M530.88,354.13c-17.84-63.66-46.67-123.68-77.69-182.06c-12.21-22.98-24.54-54.45-42.42-73.36
			c-17.88-18.91-41.45-37.07-67.41-38.88c-31.73-2.22-66.96,12-80.76,54.77c-5.24,16.22-5.28,28.52-2.89,39.39
			c-16.88,6.31-28.57,18.66-29.36,33.43c-0.68,12.78,6.96,24.62,19.47,32.81c-2.21,3.56-4.68,6.98-7.47,10.2
			c-48.05,55.45-58.83,155.36-62.51,233.07c-1.31,27.66-0.41,55.83,7.87,82.26c8.28,26.42,24.63,51.14,48.6,65
			c26.86,15.53,59.54,15.88,90.57,15.82c36.84-0.08,73.68-0.15,110.52-0.23c25.28-0.05,52.58-0.76,72.62-16.18
			c18.24-14.04,26.47-37.41,31.31-59.91C555.24,485.6,548.72,417.79,530.88,354.13z"/>
	</g>
	<path class="st83" d="M468.65,234.68c-25.67,10.52-53.96,14.6-81.56,11.71c-1.47-0.15-2.72,1.14-2.42,2.59
		c3.44,16.71,19.07,29.53,22.3,46.53c2.1,11.03-1.33,22.37-0.66,33.58c0.92,15.36,10.25,29.87,23.59,37.45
		c1.79,1.02,3.89-0.81,3.13-2.73c-11.46-29.05,1.06-64.05-7.17-94.7c-0.37-1.37,0.64-2.7,2.06-2.76
		c15.69-0.62,31.09-9.53,43.39-28.4C472.5,236.14,470.66,233.85,468.65,234.68z"/>
	<g>
		<path class="st85" d="M477.56,226.3c-18.54,19.53-45.58,29.94-72.35,28.97c-1.95-0.07-3.04,2.29-1.66,3.67
			c0.01,0.01,0.02,0.02,0.03,0.03c7.84,7.72,11.01,17.34,12.8,27.96c2.15,12.75,1.53,25.64,1.01,38.49
			c-0.31,7.6-0.55,15.23,0.05,22.83c0.59,7.38,1.81,15.22,5.33,21.82c5.93,11.12,15,20.07,24.83,27.79
			c10.25,8.04,21.36,14.88,32.09,22.24c10.14,6.96,19.38,14.97,27.51,24.22c16.16,18.36,27.82,40.55,34.45,64.06
			c1.63,5.77,2.94,11.63,3.95,17.53c7.83-57.16,0.89-116.06-14.73-171.77c-12.61-44.99-30.72-88.16-51.2-130.23
			C478.97,224.7,478.3,225.52,477.56,226.3z"/>
	</g>
	<g>
		<path class="st86" d="M247.63,223.57c-0.02,0.03-0.04,0.05-0.05,0.08c-1.51,2.19-0.59,3.34,1.93,4.21c1,0.35,3.89,0.86,4.94,0.99
			c11.43,1.33,21.24,1.36,34.82,2.1c6.3,0.34,10.97,0.33,20.84,0.33c7.39,0,12.36-0.09,20.85-1.21c15.72-2.06,32.7-6.04,49.27-8.21
			c10.48-1.38,21.08-2.07,31.62-1.57c3.63,0.17,5.67-4.22,3.11-6.81c-3.53-3.59-6.69-7.55-9.42-11.79
			c-5.1-7.94-8.72-16.9-10.37-26.2c-0.82-4.61-1.24-9.33-0.87-14c0.38-4.73,1.2-9.43,2.44-14.01c3.59-13.25,10.71-25.6,20.57-35.15
			c1.46-1.41,1.61-3.7,0.39-5.33c-2.22-2.96-4.53-5.74-6.94-8.29c-17.88-18.91-41.45-37.07-67.41-38.88
			c-31.73-2.22-66.96,12-80.76,54.77c-4.74,14.68-5.23,26.15-3.51,36.24c0.31,1.81-0.65,3.6-2.33,4.33
			c-15.28,6.6-25.67,18.35-26.41,32.24c-0.62,11.68,5.71,22.59,16.37,30.62C248.46,219.33,248.86,221.77,247.63,223.57z"/>
	</g>
	<g>
		<path class="st85" d="M248.6,219.36c7.72,0.71,15.46,1.26,23.21,1.6c20.73,0.91,41.54,0.46,62.19-1.6
			c20.1-2.01,40.04-5.59,59.52-10.94c-5.93-8.07-9.56-17.72-11.02-27.6c-1.37-9.32-0.96-18.93,1.47-28.05
			c2.35-8.79,6.68-16.82,12.76-23.59c6.64-7.4,15.13-13.38,24.44-17.32c-3.27-4.79-6.71-9.25-10.4-13.16
			c-17.88-18.91-41.45-37.07-67.41-38.88c-31.73-2.22-66.96,12-80.76,54.77c-5.24,16.22-5.28,28.52-2.89,39.39
			c-16.88,6.31-28.57,18.66-29.36,33.43C229.7,199.75,236.83,211.22,248.6,219.36z"/>
	</g>
	<g>
		<path class="st88" d="M194.51,648.92l54.97-2.09c4.34-0.17,7.02-4.8,5-8.65l-10.8-20.56c-1.51-2.87-5.04-3.99-7.92-2.51
			l-44.17,22.65C185.96,640.64,188.19,649.16,194.51,648.92z"/>
		<path class="st88" d="M233.34,673.9l33.54-33.65c3.29-3.3,1.64-8.93-2.91-9.94l-32.51-7.17c-3.63-0.8-7.08,1.91-7.18,5.62
			l-1.02,40.81C223.12,674.92,229.58,677.68,233.34,673.9z"/>
		<path class="st88" d="M294.44,672.34l-7.18-40.23c-0.62-3.48-4.14-5.64-7.53-4.61l-31.02,9.41c-4.54,1.38-5.69,7.27-1.99,10.25
			l38.2,30.82C289.17,681.41,295.4,677.72,294.44,672.34z"/>
	</g>
	<g>
		<path class="st88" d="M518.54,658.72l-54.48-6.58c-4.49-0.54-6.73-5.72-4.05-9.36l14.51-19.77c1.86-2.54,5.39-3.17,8.01-1.44
			l39.96,26.35C527.71,651.36,524.73,659.47,518.54,658.72z"/>
		<path class="st88" d="M474.36,680.39l-27.28-36.45c-2.7-3.61-0.53-8.79,3.94-9.39l33.67-4.54c3.91-0.53,7.23,2.86,6.63,6.76
			l-6.38,40.99C484.12,682.92,477.49,684.57,474.36,680.39z"/>
		<path class="st88" d="M414.53,672.76l14.2-39.06c1.15-3.15,4.69-4.72,7.79-3.45L465.2,642c4.43,1.82,4.97,7.87,0.93,10.45
			l-42.88,27.32C418.49,682.79,412.6,678.06,414.53,672.76z"/>
	</g>
	<path class="st90" d="M321.29,61.04c-15.14-0.65-40.94,17.13-53.97,31.02c-10.17,10.85-17.21,24-24.23,36.96
		c-7.02,12.96-14.48,26.05-25.54,36.04c-12.25,11.05-28.02,17.54-42.7,25.35c-1.91,1.02-4.07,2.53-3.86,4.62
		c0.33,3.23,5.2,3.23,8.42,2.3c39.59-11.42,89.39-25.24,132.75-15.16C306.48,147.99,312.55,99.71,321.29,61.04z"/>
	<path class="st91" d="M226.79,177.49c-18.6,3.34-36.55,10.15-52.29,20.28c1.58,0.19,3.41-0.02,4.9-0.45
		c32.78-9.45,72.55-20.54,109.87-18.36C268.85,174.31,247.4,173.78,226.79,177.49z"/>
	<ellipse transform="matrix(0.6547 -0.7559 0.7559 0.6547 -18.4908 295.3426)" cx="313.99" cy="167.91" rx="7.9" ry="5.97"/>
	<path class="st85" d="M207.27,293.74c5.28,51.58,32.32,101.43,75.29,138.81c8.6,7.48,18.48,15.71,18.44,26.08
		c-0.05,12.87-16.51,22.25-31.95,22.41s-29.74-6.26-43.24-12.51c-15.57-7.2-32.13-15.25-39.54-28.75
		c-6.21-11.3-4.81-24.35-3.29-36.71C188.11,361.32,193.36,319.16,207.27,293.74z"/>
	<path class="st85" d="M448.06,303.93c-5.18,46.07-33.12,89.03-73.14,112.44c-9.61,5.62-20.05,10.33-27.73,18.39
		c-7.67,8.07-11.87,20.87-6.25,30.48c6.56,11.22,22.1,12.49,35.05,11.42c23.51-1.93,47.02-7.31,67.75-18.56s38.54-28.76,47.52-50.57
		c4.8-11.66,6.98-24.9,3.23-36.94c-4.61-14.8-17.16-25.42-27.75-36.74C456.14,322.54,446.56,307.58,448.06,303.93z"/>
	<path class="st82" d="M181.67,518.55c0-33.52,46.85,7.95,87.46,7.95s73.54,27.18,73.54,60.7s-21.35,50.83-73.54,50.83
		C203.63,638.03,181.67,552.08,181.67,518.55z"/>
	<path class="st82" d="M543.28,527.72c0-33.45-46.85,7.93-87.46,7.93s-73.54,27.11-73.54,60.56s21.35,50.71,73.54,50.71
		C521.33,646.93,543.28,561.17,543.28,527.72z"/>
</g>
<g id="レイヤー_9">
</g>
<g id="レイヤー_7">
</g>
</svg>
