<?xml version="1.0" encoding="utf-8"?>
<!-- Generator: Adobe Adobe Illustrator 24.2.0, SVG Export Plug-In . SVG Version: 6.00 Build 0)  -->
<svg version="1.1" xmlns="http://www.w3.org/2000/svg" xmlns:xlink="http://www.w3.org/1999/xlink" x="0px" y="0px"
	 width="719.81px" height="719.81px" viewBox="0 0 719.81 719.81" style="enable-background:new 0 0 719.81 719.81;"
	 xml:space="preserve">
<style type="text/css">
	.st0{display:none;}
	.st1{fill:#CFCFCF;}
	.st2{fill:#F0DAB3;}
	.st3{fill:#F7C8DE;}
	.st4{fill:#F4C9D9;}
	.st5{fill:#BBE6AF;}
	.st6{fill:#97B58D;}
	.st7{fill:#FFFFFF;}
	.st8{fill:#DE985F;}
	.st9{fill:#F8C79C;}
	.st10{fill:#F4C79C;}
	.st11{fill:#F3B380;}
	.st12{fill:#F8F1E0;}
	.st13{fill:#ECD9B3;}
	.st14{fill:#EEDAB3;}
	.st15{fill:#363636;}
	.st16{fill:#FB7C7D;}
	.st17{fill:#F8B7B8;}
	.st18{fill:#F2D994;}
	.st19{fill:#F5D994;}
	.st20{fill:#A8D7A2;}
	.st21{fill:#A7D5A1;}
	.st22{fill:#9DD394;}
	.st23{fill:#35AC53;}
	.st24{fill:#34AB52;}
	.st25{fill:#80CA3B;}
	.st26{fill:#A7D4A1;}
	.st27{fill:#6B9466;}
	.st28{fill:#F9FCEA;}
	.st29{fill:#113B1D;}
	.st30{fill:#F9D6E5;}
	.st31{fill:#EEC0D2;}
	.st32{fill:#EDC0D0;}
	.st33{fill:#F5F6E6;}
	.st34{fill:#F7B280;}
	.st35{fill:#F9F7E6;}
	.st36{fill:#303030;}
	.st37{fill:#F88E91;}
	.st38{fill:none;stroke:#303030;stroke-width:7;stroke-linecap:round;stroke-miterlimit:10;}
	.st39{fill:#DEB781;}
	.st40{fill:#ECC38C;}
	.st41{fill:#E0BC89;}
	.st42{fill:none;stroke:#303030;stroke-width:4;stroke-linecap:round;stroke-miterlimit:10;}
	.st43{fill:#D6D6D6;}
	.st44{fill:#5987B0;}
	.st45{fill:#E8B384;}
	.st46{fill:#4F84B8;}
	.st47{fill:#B4D3E6;}
	.st48{fill:#3A5F82;}
	.st49{fill:#99BDD7;}
	.st50{fill:#464747;}
	.st51{fill:#D6A172;}
	.st52{fill:#94661B;}
	.st53{fill:none;}
	.st54{fill:#F2BD8F;}
	.st55{fill:#F8EDD9;}
	.st56{fill:#BF8667;}
	.st57{fill:#4D4D4D;}
	.st58{fill:none;stroke:#734318;stroke-width:4;stroke-linecap:round;stroke-miterlimit:10;}
	.st59{fill:#8F633D;}
	.st60{fill:#EBB98D;}
	.st61{fill:#BF8654;}
	.st62{fill:#F898B8;}
	.st63{fill:#F1A5BC;}
	.st64{fill:#FBD6E1;}
	.st65{fill:none;stroke:#916137;stroke-width:2;stroke-linecap:round;stroke-miterlimit:10;}
	.st66{fill:#F6D5B0;}
	.st67{fill:#BE8567;}
	.st68{fill:#F2C757;}
	.st69{fill:#F2F6F7;}
	.st70{fill:#EFC657;}
	.st71{fill:#DBDBDB;}
	.st72{fill:#F3F5F5;}
	.st73{fill:none;stroke:#F7C44C;stroke-width:7;stroke-miterlimit:10;}
	.st74{fill:none;stroke:#4A4A4A;stroke-width:7;stroke-miterlimit:10;}
	.st75{fill:#7A3131;}
	.st76{fill:#F97273;}
	.st77{fill:#F8B4B5;}
	.st78{fill:#F57073;}
	.st79{fill:#383838;}
	.st80{fill:#B34B4D;}
	.st81{fill:#595959;}
	.st82{fill:#C9E2EE;}
	.st83{fill:#13162E;}
	.st84{fill:#F3755E;}
	.st85{fill:#3C3F63;}
	.st86{fill:#F8BB5D;}
	.st87{fill:#F1755E;}
	.st88{fill:#F7BB5D;}
	.st89{fill:#F0755E;}
	.st90{fill:#3B4063;}
	.st91{fill:#FABC5E;}
	.st92{fill:#F4755E;}
	.st93{fill:#9E577C;}
	.st94{fill:#C92A0F;}
	.st95{fill:#292929;}
	.st96{fill:#F9AFD6;}
	.st97{fill:none;stroke:#F0755E;stroke-width:15;stroke-miterlimit:10;}
	.st98{fill:#D691B2;}
	.st99{fill:#F9DDE9;}
	.st100{fill:#997485;}
	.st101{fill:none;stroke:#5F3048;stroke-width:8;stroke-linecap:round;stroke-miterlimit:10;}
	.st102{fill:#E3E1E1;}
	.st103{fill:#BFBFBF;}
	.st104{fill:#A19D9E;}
	.st105{fill:#F0F0F0;}
	.st106{fill:#949494;}
	.st107{fill:#5F3048;}
	.st108{fill:#9E9898;}
	.st109{opacity:0.3412;fill:#525252;}
	.st110{fill:#EBEBEB;}
	.st111{fill:#242424;}
	.st112{fill:#3D3D3D;}
	.st113{fill:#525252;}
	.st114{fill:#4D3125;}
	.st115{fill:#F5CE53;}
	.st116{fill:#F1CE54;}
	.st117{fill:#F9F6D9;}
	.st118{fill:none;stroke:#000000;stroke-width:7;stroke-linecap:round;stroke-miterlimit:10;}
	.st119{fill:#EDEDED;}
	.st120{fill:#754A39;}
	.st121{fill:#F7B06E;}
	.st122{fill:#424242;}
	.st123{fill:#10100F;}
	.st124{fill:#DEC5DB;}
	.st125{fill:#594877;}
	.st126{fill:#9F8EBC;}
	.st127{fill:#79679C;}
	.st128{fill:#594878;}
	.st129{fill:#ECE3EE;}
	.st130{fill:#F8ACD4;}
	.st131{fill:#D989B4;}
	.st132{fill:#A4DB9B;}
	.st133{fill:#9E9E9E;}
	.st134{fill:#1C421C;}
	.st135{fill:#19431E;}
	.st136{fill:#13431F;}
	.st137{fill:#F9E8F1;}
	.st138{fill:#D4D4D4;}
	.st139{fill:#EA68B3;}
	.st140{fill:#BF5493;}
	.st141{fill:#F9B9D6;}
	.st142{fill:#D991AE;}
	.st143{fill:#F1B3CC;}
	.st144{fill:#F6B9D2;}
	.st145{fill:#212121;}
	.st146{fill:#F3B3D1;}
	.st147{fill:#BA759B;}
</style>
<g id="背景">
</g>
<g id="ガイド線" class="st0">
</g>
<g id="文字">
</g>
<g id="影">
</g>
<g id="レイヤー_6">
	<g id="レイヤー_8">
	</g>
	<g>
		<circle class="st20" cx="231.94" cy="111.62" r="71.46"/>
		<path class="st21" d="M214.91,497.17c-41.93-13.6-79.53-38.66-106.97-71.09c-14.77-17.45-12.75-42.39,4.13-58.1
			c10.63-9.9,21.51-19.58,32.61-29.03c22.47-19.11,58.35-13.99,73.24,10.7c17,28.17,34.68,55.99,53.02,83.43
			c9.8,14.65,9.5,33.45-1.14,47.59c-0.28,0.37-0.56,0.74-0.84,1.1C256.84,497.58,234.65,503.58,214.91,497.17z"/>
		<path class="st22" d="M214.91,497.17c-41.93-13.6-79.53-38.66-106.97-71.09c-14.77-17.45-12.75-42.39,4.13-58.1
			c10.63-9.9,21.51-19.58,32.61-29.03c22.47-19.11,58.35-13.99,73.24,10.7c17,28.17,34.68,55.99,53.02,83.43
			c9.8,14.65,9.5,33.45-1.14,47.59c-0.28,0.37-0.56,0.74-0.84,1.1C256.84,497.58,234.65,503.58,214.91,497.17z"/>
		<path class="st21" d="M485.77,365.05c27.72,95.83,25.23,200.18-7.02,294.58c-2.13,6.22-8.16,10.33-14.7,9.74
			c-20.92-1.88-44.07-0.83-63.29,0.13c-7.01,0.35-13.25-4.45-14.72-11.31c-2.53-11.85-4.45-22.45-4.32-35.05
			c0.08-7.95-6.14-14.49-14.09-14.65c-5.71-0.11-10.49-0.38-15.97-0.47c-7.77-0.12-14.16,5.94-14.56,13.71
			c-0.66,12.61-3.33,27.21-7.47,41.79c-1.55,5.48-6.24,9.51-11.88,10.29c-20.97,2.9-42,2.74-62.33-0.94
			c-4.78-0.87-8.76-4.09-10.7-8.54c-16.92-38.89-22.88-82.54-24.54-125.25c-1.74-44.97,0.87-90.2-1.24-129.99
			c-0.03-0.58-0.1-1.14-0.2-1.71c-2.33-12.89-2.28-26.2,0.11-39.08c1.33-7.15,7.94-12.08,15.2-11.54
			c39.61,2.92,76.53,33.13,116.71,29.16c32.67-3.23,59.65-28.5,120.72-31.31C478.07,354.3,483.93,358.7,485.77,365.05z"/>
		<path class="st21" d="M508.12,376.8c49.81,51.89,79.3,123,80.45,194.94c0.08,5.09-3.98,9.28-9.07,9.2l-91.06-1.38
			c-5.33-0.08-9.39-4.78-8.71-10.08c7.56-59.14,11.89-119.09,12.98-186.62C492.84,374.88,502.59,371.04,508.12,376.8z"/>
		<g>
			<g>
				<circle class="st23" cx="322.45" cy="101.52" r="34.76"/>
				<circle class="st23" cx="382.41" cy="101.52" r="34.76"/>
			</g>
			<circle class="st23" cx="160.48" cy="183.08" r="34.76"/>
			<circle class="st23" cx="140.49" cy="236.02" r="34.76"/>
			<circle class="st23" cx="140.49" cy="292.27" r="34.76"/>
			<circle class="st23" cx="160.48" cy="341.87" r="34.76"/>
			<circle class="st23" cx="203.82" cy="386.74" r="34.76"/>
			<circle class="st23" cx="266.7" cy="411.39" r="34.76"/>
			<circle class="st23" cx="333.75" cy="424.21" r="34.76"/>
			<g>
				<circle class="st23" cx="539.93" cy="162.27" r="34.76"/>
				<circle class="st23" cx="567.34" cy="211.77" r="34.76"/>
				<circle class="st23" cx="575.46" cy="267.42" r="34.76"/>
				<circle class="st23" cx="562.84" cy="319.39" r="34.76"/>
				<circle class="st23" cx="526.42" cy="370.04" r="34.76"/>
				<circle class="st23" cx="467.76" cy="403.51" r="34.76"/>
				<circle class="st23" cx="403.27" cy="425.86" r="34.76"/>
			</g>
		</g>
		<circle class="st24" cx="382.41" cy="101.52" r="34.76"/>
		<path class="st20" d="M140.49,266.56c0-96.27,103.64-154.94,223.33-154.94s210.1,58.67,210.1,154.94S476.89,421.5,357.21,421.5
			S140.49,362.82,140.49,266.56z"/>
		<circle class="st25" cx="231.94" cy="111.62" r="24.72"/>
		<circle class="st20" cx="472.78" cy="111.62" r="71.46"/>
		<circle class="st25" cx="472.78" cy="111.62" r="24.72"/>
		<g>
			<path class="st26" d="M163.3,564.36c17.69,1.5,35.48,3,53.19,1.72s35.51-5.5,50.21-14.58c0.17,9.94,0.35,19.88,0.52,29.81
				c-32.26,18.93-75.89,20.5-109.69,3.94C160.53,578.18,163.51,571.09,163.3,564.36z"/>
			<g>
				
					<ellipse transform="matrix(0.984 -0.1783 0.1783 0.984 -100.1417 30.3127)" class="st23" cx="118.55" cy="572.2" rx="27.3" ry="24.85"/>
				
					<ellipse transform="matrix(0.1345 -0.9909 0.9909 0.1345 -484.8276 641.4229)" class="st23" cx="124.75" cy="598.24" rx="27.3" ry="24.85"/>
				
					<ellipse transform="matrix(0.4341 -0.9009 0.9009 0.4341 -455.1669 476.1883)" class="st23" cx="151.44" cy="600.38" rx="24.85" ry="27.3"/>
				
					<ellipse transform="matrix(0.6912 -0.7226 0.7226 0.6912 -366.0654 294.6154)" class="st23" cx="161.72" cy="575.67" rx="27.3" ry="24.85"/>
				
					<ellipse transform="matrix(0.8807 -0.4737 0.4737 0.8807 -247.5583 133.57)" class="st23" cx="141.39" cy="558.25" rx="24.85" ry="27.3"/>
			</g>
		</g>
		<g>
			
				<ellipse transform="matrix(0.984 -0.1783 0.1783 0.984 -81.0691 70.2871)" class="st23" cx="350.44" cy="486.1" rx="13.65" ry="12.42"/>
			
				<ellipse transform="matrix(0.1345 -0.9909 0.9909 0.1345 -188.5741 782.3413)" class="st23" cx="353.55" cy="499.12" rx="13.65" ry="12.42"/>
			
				<ellipse transform="matrix(0.4341 -0.9009 0.9009 0.4341 -242.9773 613.5796)" class="st23" cx="366.89" cy="500.19" rx="12.42" ry="13.65"/>
			
				<ellipse transform="matrix(0.6912 -0.7226 0.7226 0.6912 -237.6519 419.4704)" class="st23" cx="372.03" cy="487.83" rx="13.65" ry="12.42"/>
			
				<ellipse transform="matrix(0.8807 -0.4737 0.4737 0.8807 -183.7753 228.5615)" class="st23" cx="361.87" cy="479.12" rx="12.42" ry="13.65"/>
		</g>
		<g>
			
				<ellipse transform="matrix(0.984 -0.1783 0.1783 0.984 -92.9067 71.3512)" class="st23" cx="350.44" cy="552.48" rx="13.65" ry="12.42"/>
			
				<ellipse transform="matrix(0.1345 -0.9909 0.9909 0.1345 -254.3508 839.7958)" class="st23" cx="353.55" cy="565.5" rx="13.65" ry="12.42"/>
			
				<ellipse transform="matrix(0.4341 -0.9009 0.9009 0.4341 -302.7764 651.1443)" class="st23" cx="366.89" cy="566.57" rx="12.42" ry="13.65"/>
			
				<ellipse transform="matrix(0.6912 -0.7226 0.7226 0.6912 -285.62 439.9668)" class="st23" cx="372.03" cy="554.21" rx="13.65" ry="12.42"/>
			
				<ellipse transform="matrix(0.8807 -0.4737 0.4737 0.8807 -215.2169 236.4799)" class="st23" cx="361.87" cy="545.5" rx="12.42" ry="13.65"/>
		</g>
		<path class="st27" d="M492.03,456.08c8.78,32.78,9.26,67.76,1.39,100.77c5.99-17.01,11.55-34.38,12.96-52.35
			C507.79,486.52,504.72,467.69,492.03,456.08z"/>
		<g>
			<circle class="st28" cx="345.4" cy="250.88" r="25.32"/>
			<circle class="st28" cx="376.51" cy="250.88" r="25.32"/>
		</g>
		<path class="st29" d="M355.26,216.3l-6.67,7.76c-4.19,4.87-0.73,12.41,5.7,12.41h13.34c6.43,0,9.89-7.54,5.7-12.41l-6.67-7.76
			C363.65,212.81,358.26,212.81,355.26,216.3z"/>
		<circle class="st29" cx="293.17" cy="242.97" r="15.12"/>
		<circle class="st29" cx="426.8" cy="245.43" r="15.12"/>
	</g>
</g>
<g id="レイヤー_9">
</g>
<g id="レイヤー_7">
</g>
</svg>
