<?xml version="1.0" encoding="utf-8"?>
<!-- Generator: Adobe Adobe Illustrator 24.2.0, SVG Export Plug-In . SVG Version: 6.00 Build 0)  -->
<svg version="1.1" xmlns="http://www.w3.org/2000/svg" xmlns:xlink="http://www.w3.org/1999/xlink" x="0px" y="0px"
	 width="719.81px" height="719.81px" viewBox="0 0 719.81 719.81" style="enable-background:new 0 0 719.81 719.81;"
	 xml:space="preserve">
<style type="text/css">
	.st0{display:none;}
	.st1{fill:#CFCFCF;}
	.st2{fill:#F0DAB3;}
	.st3{fill:#F7C8DE;}
	.st4{fill:#F4C9D9;}
	.st5{fill:#BBE6AF;}
	.st6{fill:#97B58D;}
	.st7{fill:#FFFFFF;}
	.st8{fill:#DE985F;}
	.st9{fill:#F8C79C;}
	.st10{fill:#F4C79C;}
	.st11{fill:#F3B380;}
	.st12{fill:#F8F1E0;}
	.st13{fill:#ECD9B3;}
	.st14{fill:#EEDAB3;}
	.st15{fill:#363636;}
	.st16{fill:#FB7C7D;}
	.st17{fill:#F8B7B8;}
	.st18{fill:#F2D994;}
	.st19{fill:#F5D994;}
	.st20{fill:#A8D7A2;}
	.st21{fill:#A7D5A1;}
	.st22{fill:#9DD394;}
	.st23{fill:#35AC53;}
	.st24{fill:#34AB52;}
	.st25{fill:#80CA3B;}
	.st26{fill:#A7D4A1;}
	.st27{fill:#6B9466;}
	.st28{fill:#F9FCEA;}
	.st29{fill:#113B1D;}
	.st30{fill:#F9D6E5;}
	.st31{fill:#EEC0D2;}
	.st32{fill:#EDC0D0;}
	.st33{fill:#F5F6E6;}
	.st34{fill:#F7B280;}
	.st35{fill:#F9F7E6;}
	.st36{fill:#303030;}
	.st37{fill:#F88E91;}
	.st38{fill:none;stroke:#303030;stroke-width:7;stroke-linecap:round;stroke-miterlimit:10;}
	.st39{fill:#DEB781;}
	.st40{fill:#ECC38C;}
	.st41{fill:#E0BC89;}
	.st42{fill:none;stroke:#303030;stroke-width:4;stroke-linecap:round;stroke-miterlimit:10;}
	.st43{fill:#D6D6D6;}
	.st44{fill:#5987B0;}
	.st45{fill:#E8B384;}
	.st46{fill:#4F84B8;}
	.st47{fill:#B4D3E6;}
	.st48{fill:#3A5F82;}
	.st49{fill:#99BDD7;}
	.st50{fill:#464747;}
	.st51{fill:#D6A172;}
	.st52{fill:#94661B;}
	.st53{fill:none;}
	.st54{fill:#F2BD8F;}
	.st55{fill:#F8EDD9;}
	.st56{fill:#BF8667;}
	.st57{fill:#4D4D4D;}
	.st58{fill:none;stroke:#734318;stroke-width:4;stroke-linecap:round;stroke-miterlimit:10;}
	.st59{fill:#8F633D;}
	.st60{fill:#EBB98D;}
	.st61{fill:#BF8654;}
	.st62{fill:#F898B8;}
	.st63{fill:#F1A5BC;}
	.st64{fill:#FBD6E1;}
	.st65{fill:none;stroke:#916137;stroke-width:2;stroke-linecap:round;stroke-miterlimit:10;}
	.st66{fill:#F6D5B0;}
	.st67{fill:#BE8567;}
	.st68{fill:#F2C757;}
	.st69{fill:#F2F6F7;}
	.st70{fill:#EFC657;}
	.st71{fill:#DBDBDB;}
	.st72{fill:#F3F5F5;}
	.st73{fill:none;stroke:#F7C44C;stroke-width:7;stroke-miterlimit:10;}
	.st74{fill:none;stroke:#4A4A4A;stroke-width:7;stroke-miterlimit:10;}
	.st75{fill:#7A3131;}
	.st76{fill:#F97273;}
	.st77{fill:#F8B4B5;}
	.st78{fill:#F57073;}
	.st79{fill:#383838;}
	.st80{fill:#B34B4D;}
	.st81{fill:#595959;}
	.st82{fill:#C9E2EE;}
	.st83{fill:#13162E;}
	.st84{fill:#F3755E;}
	.st85{fill:#3C3F63;}
	.st86{fill:#F8BB5D;}
	.st87{fill:#F1755E;}
	.st88{fill:#F7BB5D;}
	.st89{fill:#F0755E;}
	.st90{fill:#3B4063;}
	.st91{fill:#FABC5E;}
	.st92{fill:#F4755E;}
	.st93{fill:#9E577C;}
	.st94{fill:#C92A0F;}
	.st95{fill:#292929;}
	.st96{fill:#F9AFD6;}
	.st97{fill:none;stroke:#F0755E;stroke-width:15;stroke-miterlimit:10;}
	.st98{fill:#D691B2;}
	.st99{fill:#F9DDE9;}
	.st100{fill:#997485;}
	.st101{fill:none;stroke:#5F3048;stroke-width:8;stroke-linecap:round;stroke-miterlimit:10;}
	.st102{fill:#E3E1E1;}
	.st103{fill:#BFBFBF;}
	.st104{fill:#A19D9E;}
	.st105{fill:#F0F0F0;}
	.st106{fill:#949494;}
	.st107{fill:#5F3048;}
	.st108{fill:#9E9898;}
	.st109{opacity:0.3412;fill:#525252;}
	.st110{fill:#EBEBEB;}
	.st111{fill:#242424;}
	.st112{fill:#3D3D3D;}
	.st113{fill:#525252;}
	.st114{fill:#4D3125;}
	.st115{fill:#F5CE53;}
	.st116{fill:#F1CE54;}
	.st117{fill:#F9F6D9;}
	.st118{fill:none;stroke:#000000;stroke-width:7;stroke-linecap:round;stroke-miterlimit:10;}
	.st119{fill:#EDEDED;}
	.st120{fill:#754A39;}
	.st121{fill:#F7B06E;}
	.st122{fill:#424242;}
	.st123{fill:#10100F;}
	.st124{fill:#DEC5DB;}
	.st125{fill:#594877;}
	.st126{fill:#9F8EBC;}
	.st127{fill:#79679C;}
	.st128{fill:#594878;}
	.st129{fill:#ECE3EE;}
	.st130{fill:#F8ACD4;}
	.st131{fill:#D989B4;}
	.st132{fill:#A4DB9B;}
	.st133{fill:#9E9E9E;}
	.st134{fill:#1C421C;}
	.st135{fill:#19431E;}
	.st136{fill:#13431F;}
	.st137{fill:#F9E8F1;}
	.st138{fill:#D4D4D4;}
	.st139{fill:#EA68B3;}
	.st140{fill:#BF5493;}
	.st141{fill:#F9B9D6;}
	.st142{fill:#D991AE;}
	.st143{fill:#F1B3CC;}
	.st144{fill:#F6B9D2;}
	.st145{fill:#212121;}
	.st146{fill:#F3B3D1;}
	.st147{fill:#BA759B;}
</style>
<g id="背景">
</g>
<g id="ガイド線" class="st0">
</g>
<g id="文字">
</g>
<g id="影">
</g>
<g id="レイヤー_6">
	<g id="レイヤー_8">
	</g>
	<path class="st114" d="M369.82,342.6c21.96-43.67,25.66-96.18,10.06-142.51s-50.32-85.89-94.23-107.38
		c-13.39-6.55-28.07-11.56-42.94-10.52c-14.88,1.04-29.94,9.17-35.88,22.85c-6.07,13.98-1.48,30.75,7.66,42.93
		s22.2,20.74,34.98,29.03c-16.22-12.66-37.53-25.95-55.87-16.62c-13.19,6.71-18.79,23.91-15.01,38.21
		c3.78,14.31,15.18,25.63,28.19,32.7c13.01,7.06,27.63,10.46,42.06,13.77c-16.39-1.72-36.27-1.89-45.31,11.88
		c-10.26,15.64,2.43,36.99,18.46,46.63c16.03,9.64,35.47,13.34,50,25.13c-7.58-5.95-19.87-0.49-23.44,8.46
		c-3.57,8.95-0.55,19.26,4.36,27.56c14.36,24.3,45.65,37.18,72.95,30.04C353.15,387.64,374.12,361.09,369.82,342.6z"/>
	<path class="st57" d="M496.74,315.31c15.07,46.8,30.15,93.61,45.22,140.41c3.74,11.61,7.5,24.02,4.28,35.78
		c-4.54,16.54-21.21,26.37-36.88,33.33c-77.93,34.58-165.98,40.66-250.85,32.47c-29.25-2.83-61.71-9.26-78.5-33.38
		c-12.01-17.25-13.03-40.07-8.97-60.68c6.88-34.97,26.87-66.31,51.61-91.97s54.21-46.2,83.71-66.19
		c21.77-14.75,45.54-29.87,71.84-29.28C422.18,276.78,454.81,320.65,496.74,315.31z"/>
	<path class="st119" d="M155.68,513.06c-29.45,5.69-57.26,19.63-79.43,39.83c-7.15,6.51-13.94,17.73-7.48,24.93
		c3.42,3.81,9.11,4.37,14.22,4.45c20.13,0.3,40.3-2.95,59.32-9.55c-16.1,14.7-27.73,34.22-33,55.37
		c-1.61,6.48-2.32,14.24,2.39,18.98c5.6,5.64,15.13,3.46,22.29,0c18.24-8.81,33.56-23.56,43.04-41.47
		c2.7,12.64-1.42,25.66-1.68,38.59c-0.27,12.93,5.8,28.17,18.56,30.27c14.88,2.45,25.42-14,30.29-28.27
		c10.11-29.59,14.73-61.05,13.54-92.3c-0.26-6.93-0.88-14.09-4.21-20.17c-7.02-12.8-23.73-16.77-38.29-15.8
		C180.67,518.9,166.29,523.44,155.68,513.06z"/>
	<path class="st120" d="M332.02,394.51c-3.62-48.75-27.44-95.69-64.65-127.4s-87.32-47.79-136.03-43.64
		c-14.86,1.26-30.02,4.52-42.24,13.06c-12.23,8.54-20.96,23.26-19.03,38.05c1.98,15.11,14.54,27.13,28.65,32.88
		s29.71,6.37,44.93,6.91c-20.43-2.52-45.53-2.97-56.47,14.47c-7.86,12.54-3.82,30.16,6.78,40.49s26.2,14.18,40.99,13.55
		s29.08-5.24,43.15-9.81c-14.94,6.95-32.08,17.03-32.75,33.49c-0.76,18.69,21.1,30.48,39.81,30.51s37.28-6.8,55.8-4.16
		c-9.56-1.2-17.29,9.8-15.75,19.31c1.54,9.51,9.43,16.8,17.9,21.39c24.81,13.46,58.27,8.42,78.01-11.74
		C340.88,441.71,345.21,408.15,332.02,394.51z"/>
	<path class="st119" d="M298.58,242.29c-5.25-52.05,26.54-105.73,74.71-126.15s108.85-5.93,142.6,34.04
		c33.13,39.24,38.56,94.12,42.55,145.32c0.46,5.92,0.75,12.44-2.85,17.15c-5.23,6.84-16.44,6.06-23.17,0.7
		c-6.73-5.37-10.11-13.8-13.2-21.83c-8.68,9.95,2.49,28.64-7.21,37.6c-7.23,6.68-19.17,1.12-25.61-6.32
		c-6.44-7.44-11.57-17.09-20.9-20.21c6.1,17.13-6.34,38.28-24.28,41.26c-17.94,2.99-36.56-12.99-36.33-31.18
		c0.51,15.67-14.09,30.7-29.67,28.99c-15.58-1.71-26.48-21.68-18.2-34.98c-5.22,10.13-10.61,20.49-19.03,28.17
		c-8.42,7.68-20.64,12.24-31.43,8.56c-15.14-5.16-21.21-23.62-21-39.61C285.75,287.81,301.64,272.69,298.58,242.29z"/>
	<path class="st57" d="M188.53,493.14c-10.94-10.89-30.22-11.91-42.25-2.24c-5.12,4.11-9.04,10.39-8.38,16.93
		c0.94,9.2,10.76,15.4,20.01,15.61c9.25,0.21,17.95-4,26.24-8.1c-10.87,6.99-19.46,17.47-24.2,29.49
		c-1.84,4.66-2.73,10.83,1.19,13.94c3.04,2.41,7.48,1.65,11.11,0.3c12.07-4.49,21.96-14.52,26.29-26.65
		c-2.46,9.77-1.73,20.32,2.07,29.65c1.93,4.75,4.96,9.48,9.73,11.37c7.48,2.97,16.15-2.58,19.5-9.89c3.35-7.31,2.8-15.74,2.18-23.76
		c-0.46,7.77-0.27,15.79,2.74,22.97s9.34,13.38,17.06,14.31c11.05,1.33,21.11-9.06,22.14-20.14s-5.06-21.81-13.23-29.36
		c-8.17-7.55-18.31-12.54-28.04-17.93C222.96,504.24,213.24,498.13,188.53,493.14z"/>
	<path class="st121" d="M481.96,272c45.47-25.81,104.11-26.73,150.37-2.37c6.07-17.33,0.23-37.34-11.71-51.3
		c-11.93-13.96-29.13-22.52-46.79-27.56c-17.02-4.86-35.19-6.74-52.45-2.84c-17.26,3.9-33.51,14.05-42.52,29.28
		S469.15,252.86,481.96,272z"/>
	<circle class="st122" cx="428.17" cy="225.03" r="13.5"/>
	<path class="st121" d="M442.91,521.05c8.52,18.66,17.04,37.33,25.56,55.99c20.03,6.84,40.06,13.68,60.08,20.52
		c-18,2.53-36.65,0.22-53.49-6.6c16.29,6.75,29.68,20.22,36.34,36.55c-15.99-4.27-30.44-14.08-40.31-27.36
		c-2.34,13.63-4.68,27.27-7.02,40.9C461.14,601.22,456.81,561.5,442.91,521.05z"/>
	<path class="st121" d="M528.55,507.02c20.52-0.24,41.03-0.48,61.55-0.73c14.36-15.55,28.71-31.1,43.07-46.65
		c-4.97,17.48-14.62,33.6-27.68,46.24c12.77-12.17,30.5-18.97,48.13-18.45c-10.37,12.89-25.19,22.14-41.33,25.8
		c11.52,7.66,23.04,15.31,34.56,22.97C609.25,522.77,571.17,510.66,528.55,507.02z"/>
</g>
<g id="レイヤー_9">
</g>
<g id="レイヤー_7">
</g>
</svg>
