<?xml version="1.0" encoding="UTF-8"?>
<svg id="_レイヤー_6" data-name="レイヤー 6" xmlns="http://www.w3.org/2000/svg" width="719.81" height="719.81" viewBox="0 0 719.81 719.81">
  <defs>
    <style>
      .cls-1 {
        fill: #725644;
      }

      .cls-2 {
        fill: #e59342;
      }

      .cls-3 {
        fill: #545959;
      }

      .cls-4 {
        fill: #514032;
      }

      .cls-5 {
        fill: #3c4242;
      }

      .cls-6 {
        fill: #4a504f;
      }

      .cls-7 {
        fill: #ecedf0;
      }

      .cls-8 {
        fill: #545a58;
      }

      .cls-9 {
        fill: #a1a5a9;
      }

      .cls-10 {
        fill: #ffab50;
      }
    </style>
  </defs>
  <path class="cls-4" d="M369.7,374.07c21.96-43.67,25.66-96.18,10.06-142.51-15.6-46.33-50.32-85.89-94.23-107.38-13.39-6.55-28.07-11.56-42.94-10.52-14.88,1.04-29.94,9.17-35.88,22.85-6.07,13.98-1.48,30.75,7.66,42.93,9.15,12.19,22.2,20.74,34.98,29.03-16.22-12.66-37.53-25.95-55.87-16.62-13.19,6.71-18.79,23.91-15.01,38.21,3.78,14.31,15.18,25.63,28.19,32.7s27.63,10.46,42.06,13.77c-16.39-1.72-36.27-1.89-45.31,11.88-10.26,15.64,2.43,36.99,18.46,46.63s35.47,13.34,50,25.13c-7.58-5.95-19.87-.49-23.44,8.46-3.57,8.95-.55,19.26,4.36,27.56,14.36,24.3,45.65,37.18,72.95,30.04,27.3-7.14,48.27-33.7,43.97-52.18Z"/>
  <path class="cls-7" d="M265.61,537.4c-5.46-1.21-11.35,1.22-17.08,6.42-.96-1.47-2.12-2.72-3.51-3.71-.36-.26-.74-.48-1.12-.7,1.86-5.63,1.8-10.68-.55-14.68-8.34-14.23-42.33-9.81-75.93,9.87-33.59,19.68-54.07,47.18-45.73,61.41,5.88,10.04,24.54,10.78,46.82,3.44-12.98,25.25-15.51,48.3-4.7,55.92,11.31,7.97,33.62-3.5,53.76-26.19-.6,24.66,5.9,43.31,17.65,45.91,16.11,3.56,35.97-24.38,44.36-62.4,8.39-38.02,2.14-71.72-13.96-75.28Z"/>
  <path class="cls-7" d="M265.61,537.4c-5.46-1.21-11.35,1.22-17.08,6.42-.96-1.47-2.12-2.72-3.51-3.71-.36-.26-.74-.48-1.12-.7,1.86-5.63,1.8-10.68-.55-14.68-8.34-14.23-42.33-9.81-75.93,9.87-33.59,19.68-54.07,47.18-45.73,61.41,5.88,10.04,24.54,10.78,46.82,3.44-12.98,25.25-15.51,48.3-4.7,55.92,11.31,7.97,33.62-3.5,53.76-26.19-.6,24.66,5.9,43.31,17.65,45.91,16.11,3.56,35.97-24.38,44.36-62.4,8.39-38.02,2.14-71.72-13.96-75.28Z"/>
  <path class="cls-9" d="M182.92,533.37c1.47,5.79,4.92,11.02,9.81,14.48,4.93,3.49,10.97,5.1,16.98,4.81.3-.01.47.24.5.5.54,4.01,1.95,7.88,4.03,11.34,1.85,3.07,4.24,5.83,7.08,8.04,2.99,2.33,6.44,3.9,10.11,4.8,7.57,1.87,15.76.75,22.35-3.49.24-.15.54-.04.68.18,1.87,2.75,4.26,5.12,6.99,7.01,4.78,3.3,10.52,5.16,16.31,5.41,1.8.08,3.61-.03,5.39-.27,1.2-26.08-5.34-46.09-17.55-48.79-5.46-1.21-11.35,1.22-17.08,6.42-.96-1.47-2.12-2.72-3.51-3.71-.36-.26-.74-.48-1.12-.7,1.86-5.63,1.8-10.68-.55-14.68-7.11-12.14-32.91-10.7-61.2,2.22-.02,2.16.24,4.33.78,6.43Z"/>
  <path class="cls-3" d="M532.26,325.08c15.07,46.8,30.15,93.61,45.22,140.41,3.74,11.61,7.5,24.02,4.28,35.78-4.54,16.54-21.21,26.37-36.88,33.33-77.93,34.58-165.98,40.66-250.85,32.47-29.25-2.83-61.71-9.26-78.5-33.38-12.01-17.25-13.03-40.07-8.97-60.68,6.88-34.97,26.87-66.31,51.61-91.97,24.74-25.65,54.21-46.2,83.71-66.19,21.77-14.75,45.54-29.87,71.84-29.28,43.98.99,76.61,44.85,118.55,39.52Z"/>
  <path class="cls-5" d="M321.27,332.36c.09.11.14.25.12.41-1,7.1.58,14.38,3.96,20.66,2.97,5.51,7.3,10.33,12.6,13.69,5.26,3.34,11.35,4.99,17.57,4.91,12.29-.14,24.35-6.75,30.5-17.48.23-.4.77-.27.91.12,1.67,4.51,4.46,8.56,8.07,11.75,6.38,5.65,14.89,8.02,23.22,6.04,8.06-1.93,15.37-7.39,18.73-15.07.16-.36.68-.28.86,0,3.54,5.57,8.59,10.05,14.46,13.06,10.44,5.37,22.98,5.76,33.52.45,10.21-5.15,18.18-14.83,20.42-26.13.09-.46.68-.43.91-.12,2.14,2.92,4.91,5.33,8.06,7.12,7.83,4.44,17.85,5.14,26.27,1.92-3.07-9.53-6.14-19.06-9.21-28.6-41.94,5.33-74.57-38.53-118.55-39.52-26.29-.59-50.06,14.53-71.84,29.28-6.73,4.56-13.46,9.15-20.13,13.83-.22,1.22-.38,2.45-.48,3.68Z"/>
  <path class="cls-7" d="M331.96,265.64c-5.25-52.05,26.54-105.73,74.71-126.15,48.17-20.42,108.85-5.93,142.6,34.04,33.13,39.24,38.56,94.12,42.55,145.32.57,7.27.88,15.45-5.99,20.07-4.41,2.97-10.1,3.09-14.95.89-4-1.82-7.08-4.51-9.58-7.69-3.59-4.58-10.97-1.51-10.29,4.27.86,7.41.54,14.21-8.14,17.14-7.44,2.52-15.7.33-21.19-5.3-3.18-3.26-5.95-7.21-8.89-10.92-3.93-4.96-11.72-2.87-12.85,3.35-2.3,12.75-12.39,24.38-25.35,26.53-14.35,2.39-29.14-7.36-34.36-20.66-.86-2.19-3.91-2.31-4.84-.15-4.83,11.13-14.79,19.94-26.79,18.63-11.74-1.29-17.81-11.8-18.82-23.46-.23-2.61-3.64-3.39-4.94-1.11-3.72,6.53-7.94,12.72-13.47,17.76-8.42,7.68-20.64,12.24-31.43,8.56-15.14-5.16-21.21-23.62-21-39.61s16.09-31.12,13.02-61.52Z"/>
  <path class="cls-10" d="M524.25,290.69c39.94-19.2,88.19-20.45,129.13-3.5,7.14,2.96,14.98-2.49,14.75-10.22-.37-12.73-5.74-25.5-14.11-35.29-11.93-13.96-29.13-22.52-46.79-27.56-17.02-4.86-35.19-6.74-52.45-2.84-17.26,3.9-33.51,14.05-42.52,29.28-7.43,12.57-9.22,28.66-2.43,44.65,2.37,5.58,8.95,8.1,14.41,5.47Z"/>
  <path class="cls-2" d="M656.29,271.45c-10.9-7.3-22.8-13.12-35.3-17.14-12.96-4.17-26.67-6.49-40.28-6.82-14.04-.34-28.1,1.48-41.61,5.3-11.72,3.32-22.97,8.16-33.45,14.36.27,5.9,1.6,11.99,4.18,18.06,2.37,5.58,8.95,8.1,14.41,5.47,39.94-19.2,88.19-20.45,129.13-3.5,6.16,2.55,12.83-1.16,14.4-7.19-3.69-3.04-7.52-5.9-11.49-8.55Z"/>
  <circle class="cls-6" cx="463.66" cy="270.87" r="10.97"/>
  <path class="cls-1" d="M337.76,360.83c-30.58-38.13-50.65-85.7-94.63-107.02s-96.54-24.27-142.64-7.99c-14.06,4.96-27.91,11.93-37.6,23.27-9.68,11.34-14.43,27.79-8.84,41.61,5.72,14.12,20.9,22.6,36,24.61s30.35-1.31,45.23-4.62c-20.4,2.7-44.81,8.59-51,28.22-4.45,14.11,3.89,30.15,16.75,37.48,12.86,7.33,28.93,7.13,43.08,2.8,14.15-4.33,26.82-12.39,39.29-20.36-12.71,10.49-26.76,24.56-23.27,40.66,3.97,18.28,28.09,24.19,46.21,19.5,18.11-4.68,33.38-17.78,51.97-19.88-7.96,2.07-13.28,15.64-9.4,24.46,3.88,8.82,13.36,13.88,22.71,16.2,27.4,6.78,58.51-6.52,72.55-31s5.45-53.13-6.42-67.93Z"/>
  <g>
    <path class="cls-10" d="M491.68,545.71l11.61,25.42c.28.6.79,1.07,1.41,1.28l48.16,16.45c2.55.87,1.92,5.19-.73,4.7-11.11-2.05-18.85-2.96-31.26-3.94-1.73-.14-2.35,1.38-1.3,2.76,7.24,9.55,15.86,15.18,24.81,25.19,1.44,1.61-.99,4.37-2.91,3.37-12.75-6.63-22.13-13.89-31.84-21.66-1.59-1.27-3.85-.85-4.2,1.16l-2.89,16.8c-.48,2.78-4.52,2.62-4.77-.19-2.09-23.2-5.09-46.42-10.63-69.8-.67-2.83,3.33-4.19,4.54-1.55Z"/>
    <path class="cls-8" d="M497.29,611.88c.17,1.72.33,3.45.48,5.17.25,2.81,4.3,2.96,4.77.19l.92-5.36h-6.18Z"/>
    <path class="cls-8" d="M552.86,588.86l-5.33-1.82c-.08,1.89-.15,3.78-.23,5.67,1.55.26,3.15.54,4.83.85,2.65.49,3.28-3.83.73-4.7Z"/>
    <path class="cls-8" d="M540.43,613.39c-1.4,1.53-2.64,3.19-3.71,4.97,1.54.87,3.12,1.74,4.76,2.59,1.92,1,4.35-1.76,2.91-3.37-1.32-1.48-2.64-2.86-3.95-4.18Z"/>
  </g>
  <g>
    <path class="cls-10" d="M577.44,490.84l27.89,1.8c.66.04,1.31-.19,1.8-.64l37.27-34.65c1.97-1.84,5.48.76,3.79,2.87-7.06,8.82-11.52,15.2-18.26,25.68-.94,1.46.1,2.72,1.82,2.45,11.84-1.86,20.88-6.79,33.93-9.94,2.1-.51,3.39,2.94,1.6,4.16-11.87,8.09-22.7,12.92-34.14,17.8-1.88.8-2.57,2.99-.96,4.25l13.44,10.49c2.22,1.73.17,5.22-2.42,4.12-21.43-9.14-43.3-17.47-66.53-23.65-2.81-.75-2.12-4.91.78-4.73Z"/>
    <path class="cls-8" d="M638.4,517.19c1.6.67,3.19,1.34,4.79,2.02,2.59,1.11,4.64-2.38,2.42-4.12l-4.29-3.35-2.92,5.44Z"/>
    <path class="cls-8" d="M644.4,457.35l-4.13,3.84c1.63.96,3.26,1.92,4.88,2.88.97-1.25,1.97-2.52,3.04-3.85,1.68-2.11-1.82-4.7-3.79-2.87Z"/>
    <path class="cls-8" d="M660.14,479.9c.68,1.96,1.57,3.84,2.62,5.62,1.5-.94,3-1.93,4.53-2.97,1.79-1.22.51-4.66-1.6-4.16-1.93.47-3.77.97-5.55,1.5Z"/>
  </g>
  <path class="cls-3" d="M302.54,549.59c-5.91-12.17-20.57-17.25-32.74-11.33-1.99.97-3.79,2.17-5.38,3.56-.83-4.82-3.08-9.44-6.8-13.17-7.06-7.06-17.34-8.89-26.09-5.54.04-3.69-.74-7.44-2.46-10.98-5.91-12.17-20.57-17.25-32.74-11.33-12.17,5.91-17.25,20.57-11.33,32.74,5.6,11.54,19.06,16.69,30.82,12.16-.07,6.36,2.31,12.74,7.16,17.6,9.16,9.16,23.77,9.53,33.39,1.14.38,2.22,1.07,4.43,2.11,6.56,5.91,12.17,20.57,17.25,32.74,11.33s17.25-20.57,11.33-32.74Z"/>
</svg>